<svg xmlns="http://www.w3.org/2000/svg" xmlns:xlink="http://www.w3.org/1999/xlink" width="410" height="413.12" viewBox="0 0 410 413.12">
  <title>laroue</title>
  <g style="isolation: isolate">
    <g id="a48c0949-651f-4357-8b44-e76e482e59fe" data-name="Calque 1">
      <g id="1f725c0e-6d87-44ea-80b1-95b6ff34c034" data-name="theWheel">
        <path d="M207,205.55V4.55s78-5,142,59C207,204.55,207,205.55,207,205.55Z" style="fill: #1976d2"/>
        <path d="M207,205.55V4.55s-78-5-142,59C207,204.55,207,205.55,207,205.55Z" style="fill: #1565c0"/>
        <path d="M207,209.5v201s78,5,142-59C207,210.5,207,209.5,207,209.5Z" style="fill: #42a5f5"/>
        <path d="M207,209.5v201s-78,5-142-59C207,210.5,207,209.5,207,209.5Z" style="fill: #64b5f6"/>
        <path d="M205.05,207.55H4.05s-5,78,59,142C204.05,207.55,205.05,207.55,205.05,207.55Z" style="fill: #90caf9"/>
        <path d="M205.05,207.55H4.05s-5-78,59-142C204.05,207.55,205.05,207.55,205.05,207.55Z" style="fill: #bbdefb"/>
        <path d="M208.45,207.55h201s5,78-59,142C209.45,207.55,208.45,207.55,208.45,207.55Z" style="fill: #2196f3"/>
        <path d="M208.45,207.55h201s5-78-59-142C209.45,207.55,208.45,207.55,208.45,207.55Z" style="fill: #1e88e5"/>
        <line x1="206.75" y1="410" x2="206.75" y2="5" style="fill: none;stroke: #fff;stroke-miterlimit: 10;stroke-width: 2px"/>
        <line x1="4.25" y1="207.5" x2="409.25" y2="207.5" style="fill: none;stroke: #fff;stroke-miterlimit: 10;stroke-width: 2px"/>
      </g>
    </g>
    <g id="60a9f770-4ee7-4fc0-ac76-cb194b5a4922" data-name="Calque 2">
      <image width="132" height="132" transform="translate(93) scale(0.74)" xlink:href="../../orga/fanny.png"/>
      <image width="324" height="324" transform="translate(92 312.55) scale(0.3)" xlink:href="../../orga/francois.png"/>
      <image width="132" height="132" transform="translate(225.01 315.12) scale(0.74)" xlink:href="../../orga/manu.png"/>
      <image width="132" height="132" transform="translate(5 223.03) scale(0.74)" xlink:href="../../orga/moi.png"/>
      <image width="132" height="132" transform="translate(0 95) scale(0.74)" xlink:href="../../orga/romain.png"/>
      <image width="2016" height="2016" transform="translate(312 223.03) scale(0.05)" xlink:href="../../orga/Sans-titre-2.png"/>
      <g>
        <circle cx="273.72" cy="56.62" r="49" style="opacity: 0.1;mix-blend-mode: multiply"/>
        <circle cx="273.28" cy="53.91" r="48.18" style="fill: #43aaaf;stroke: #fff;stroke-miterlimit: 10;stroke-width: 0.612499876854826px"/>
        <g>
          <polygon points="226.81 34.54 237.05 75.72 319.4 49.09 316.2 19.25 226.81 34.54" style="fill: #f4e558"/>
          <g style="opacity: 0.2">
            <polygon points="257.69 36.88 257.56 39.31 251.67 39.99 252 52.71 258.34 53.03 258.19 55.95 251.85 55.63 251.9 64.43 257.75 64.72 257.65 66.67 248.8 67.69 248.91 36.43 257.69 36.88"/>
            <polygon points="290.43 36.58 290.31 39.01 284.41 39.69 284.75 52.41 291.08 52.73 290.93 55.65 284.6 55.33 284.64 64.13 290.49 64.42 290.39 66.37 281.55 67.39 281.66 36.13 290.43 36.58"/>
            <polyline points="270.8 67.34 270.92 36.08 279.69 36.52 279.56 38.96 273.67 39.64 274 52.35 280.34 52.67 280.19 55.6 273.86 55.28 273.75 67"/>
            <path d="M299.41,52.17l2.47-.36-.32-13.21s-1.26-4-5.18-3.68-4.15,4.68-4.15,4.68-.59,11.69.34,12.72c1.39,1.53,6.57,5.21,7,6.7s2,7.92-1.4,8.23-3.26-3.09-3.26-3.09l-.17-6.36-2.94.34,1,8.84A5.86,5.86,0,0,0,298,69.69c3.44-.32,4.15-4.68,4.15-4.68s.75-5.33-.59-7.84c-.85-2.49-5.65-4.2-6.06-5.68s-.87-11.77-.87-11.77.61-2.41,2.07-2.34A3.38,3.38,0,0,1,299.1,39Z"/>
            <path d="M244.14,31.69c-2.58-1.88-9.5-2.82-9.5-2.82l1.12,41.58s9.17-1.29,10.36-3.57S246.73,33.58,244.14,31.69Zm-.73,32.71c-.69,2-5.75,3.23-5.75,3.23l0-35.68s3.79.7,5.18,2.27S244.1,62.42,243.41,64.4Z"/>
            <polygon points="265.72 40.26 268.64 40.4 264.98 64.39 263.01 64.68 256.39 41.33 259.82 41.12 265.84 57.29 265.72 40.26"/>
            <polygon points="313.19 30.89 313.56 33.35 307.68 33.54 307.32 69.67 304.4 69.52 305.25 33.41 299.91 32.66 300.03 30.22 313.19 30.89"/>
          </g>
          <g>
            <polygon points="257.69 34.82 257.56 37.26 251.67 37.94 252 50.66 258.34 50.98 258.19 53.9 251.85 53.58 251.9 62.37 257.75 62.67 257.65 64.62 248.8 65.64 248.91 34.38 257.69 34.82" style="fill: #f7981d;stroke: #875712;stroke-miterlimit: 10;stroke-width: 0.612499876854826px"/>
            <polygon points="290.43 34.52 290.31 36.96 284.41 37.64 284.75 50.35 291.08 50.67 290.93 53.6 284.6 53.28 284.64 62.07 290.49 62.37 290.39 64.32 281.55 65.34 281.66 34.08 290.43 34.52" style="fill: #f7981d;stroke: #875712;stroke-miterlimit: 10;stroke-width: 0.612499876854826px"/>
            <polyline points="270.8 65.28 270.92 34.02 279.69 34.47 279.56 36.9 273.67 37.58 274 50.3 280.34 50.62 280.19 53.54 273.86 53.22 273.75 64.94" style="fill: #f7981d;stroke: #875712;stroke-miterlimit: 10;stroke-width: 0.612499876854826px"/>
            <path d="M299.41,50.12l2.47-.37-.32-13.2s-1.26-4-5.18-3.68-4.15,4.67-4.15,4.67-.59,11.7.34,12.72c1.39,1.54,6.57,5.22,7,6.7s2,7.92-1.4,8.24-3.26-3.1-3.26-3.1l-.17-6.36-2.94.34,1,8.85A5.86,5.86,0,0,0,298,67.64c3.44-.32,4.15-4.68,4.15-4.68s.75-5.34-.59-7.85c-.85-2.48-5.65-4.19-6.06-5.68s-.87-11.76-.87-11.76.61-2.42,2.07-2.34a3.35,3.35,0,0,1,2.36,1.58Z" style="fill: #f7981d;stroke: #875712;stroke-miterlimit: 10;stroke-width: 0.612499876854826px"/>
            <path d="M244.14,29.64c-2.58-1.89-9.5-2.82-9.5-2.82l1.12,41.58s9.17-1.29,10.36-3.57S246.73,31.52,244.14,29.64Zm-.73,32.7c-.69,2-5.75,3.23-5.75,3.23l0-35.67s3.79.69,5.18,2.27S244.1,60.37,243.41,62.34Z" style="fill: #f7981d;stroke: #875712;stroke-miterlimit: 10;stroke-width: 0.612499876854826px"/>
            <polygon points="265.72 38.2 268.64 38.35 266.35 62.34 264.38 62.62 256.39 39.28 259.82 39.06 264.7 52.54 265.72 38.2" style="fill: #f7981d;stroke: #875712;stroke-miterlimit: 10;stroke-width: 0.612499876854826px"/>
            <polygon points="313.19 28.83 313.56 31.29 307.68 31.48 307.32 67.62 304.4 67.47 305.25 31.36 299.91 30.6 300.03 28.17 313.19 28.83" style="fill: #f7981d;stroke: #875712;stroke-miterlimit: 10;stroke-width: 0.612499876854826px"/>
          </g>
          <path d="M258.24,91.37a2,2,0,0,1,3.31-1.66c.54.54,1,1.26,1.72,1.27a3.5,3.5,0,0,0,2-.83,6,6,0,0,1,2.08-1.06,2.14,2.14,0,0,1,1.22.15,5.12,5.12,0,0,1,1,.63c.59.46,1.24.89,1.85.6s1-1.06,1.9-1.29a3.8,3.8,0,0,1,2.37.34,9.64,9.64,0,0,0,2.09.69,2.39,2.39,0,0,0,1.91-.58,5.71,5.71,0,0,1,1-.61,1.93,1.93,0,0,1,1.32-.1,15.17,15.17,0,0,1,2,1.18,2.11,2.11,0,0,0,2-.21A6.18,6.18,0,0,1,288.1,89a2.38,2.38,0,0,1,1.18.17,1.11,1.11,0,0,1,.69.9h-.06a1,1,0,0,0-.7-.76,2.15,2.15,0,0,0-1.07,0,5.91,5.91,0,0,0-2,1,3.39,3.39,0,0,1-1.12.46,2,2,0,0,1-1.26-.14,19,19,0,0,0-1.95-1.07c-.61-.2-1.21.18-1.84.62a4.16,4.16,0,0,1-1.06.59,2.75,2.75,0,0,1-1.27.09,9.94,9.94,0,0,1-2.21-.78,3.37,3.37,0,0,0-2-.38c-.67.12-1.06.85-1.86,1.23a1.56,1.56,0,0,1-1.27,0,5.14,5.14,0,0,1-1-.65,4.73,4.73,0,0,0-.92-.61,1.81,1.81,0,0,0-1-.15,5.87,5.87,0,0,0-2,1,3.71,3.71,0,0,1-2.17.82,1.77,1.77,0,0,1-1.07-.53c-.28-.28-.5-.6-.76-.85-1-1.16-3.29,0-3.12,1.51Z" style="fill: #fff"/>
          <g>
            <polyline points="267.77 78.58 267.79 82.39 270.33 82.52 270.28 83.37 266.45 83.81 266.5 70.27 267.71 70.32" style="fill: #f4e558"/>
            <polyline points="272.91 78.58 272.93 82.39 275.46 82.52 275.42 83.37 271.59 83.81 271.64 70.27 272.84 70.32" style="fill: #f4e558"/>
            <polyline points="277.12 78.58 277.14 82.39 279.67 82.52 279.63 83.37 275.8 83.81 275.85 70.27 277.05 70.32" style="fill: #f4e558"/>
            <line x1="267.71" y1="70.32" x2="267.79" y2="78.58" style="fill: #f4e558"/>
            <polygon points="269.05 71.92 269.05 80.43 270.32 80.43 270.49 71.92 269.05 71.92" style="fill: #f4e558"/>
            <polygon points="281.53 70.51 281.49 71.31 279.54 71.54 279.65 75.74 281.74 75.84 281.69 76.81 279.6 76.7 279.62 79.61 281.55 79.7 281.52 80.35 278.6 80.68 278.63 70.36 281.53 70.51" style="fill: #f4e558"/>
          </g>
          <g>
            <path d="M248.61,23.42a3.21,3.21,0,0,0,0-.78.84.84,0,0,0-.26-.47.51.51,0,0,0-.46-.11.5.5,0,0,0-.39.34,1,1,0,0,0-.07.61,1.36,1.36,0,0,0,.94,1c.55.23.93.39,1.13.5a1.58,1.58,0,0,1,.45.32,1.74,1.74,0,0,1,.45.87,1.71,1.71,0,0,1-.31,1.42,1.89,1.89,0,0,1-1.16.73,1.78,1.78,0,0,1-1.52-.44,6.16,6.16,0,0,1-1-1.12l.8-.6a3.26,3.26,0,0,0,.71.83.89.89,0,0,0,.74.26.66.66,0,0,0,.39-.23.57.57,0,0,0,.1-.47.87.87,0,0,0-.34-.52,3.09,3.09,0,0,0-.71-.4c-.29-.13-.51-.24-.68-.33a5.92,5.92,0,0,1-.55-.35,1.95,1.95,0,0,1,.81-3.47,1.69,1.69,0,0,1,1.41.35,1.88,1.88,0,0,1,.75,1.13,2.32,2.32,0,0,1,0,1.12Z" style="fill: #fff"/>
            <path d="M251.16,23a1.24,1.24,0,0,1,.91-.69,1,1,0,0,1,1,.35,3,3,0,0,1,.58,1.42c.11.63.24,1.52.38,2.65l-.79.08-.12-.28a1.74,1.74,0,0,1-.84.41,1,1,0,0,1-.8-.16,1.25,1.25,0,0,1-.08-1.87,2.29,2.29,0,0,1,1.21-.66l0-.25c-.09-.48-.25-.7-.49-.65s-.2.12-.27.3a1.82,1.82,0,0,0-.1.59l-.86.08A2.79,2.79,0,0,1,251.16,23Zm.84,2.86c0,.2.17.27.4.23a1.26,1.26,0,0,0,.48-.21l-.12-.77a1.14,1.14,0,0,0-.61.34A.46.46,0,0,0,252,25.89Z" style="fill: #fff"/>
            <path d="M254.11,20.34l1-.07.1,1-1,.07Zm.23,1.63,1.06-.1.83,4.41-1.07.09Z" style="fill: #fff"/>
            <path d="M258.32,22.76c-.07-.36-.19-.53-.38-.5a.35.35,0,0,0-.22.18.53.53,0,0,0-.05.38.75.75,0,0,0,.16.36,1,1,0,0,0,.37.23,4,4,0,0,1,.41.16l.36.18a1.11,1.11,0,0,1,.54.78,1.06,1.06,0,0,1-.24.91,1.38,1.38,0,0,1-.81.49,1.63,1.63,0,0,1-.93-.1,2.25,2.25,0,0,1-.75-.54l.39-.65c.33.37.62.54.89.49a.41.41,0,0,0,.23-.13.3.3,0,0,0,.06-.23c0-.2-.22-.35-.53-.46a2.57,2.57,0,0,1-.81-.42,1.31,1.31,0,0,1-.41-.81,1.4,1.4,0,0,1,.27-1.09,1.45,1.45,0,0,1,.9-.63,1.08,1.08,0,0,1,.9.21,1.45,1.45,0,0,1,.49.92,3.1,3.1,0,0,1,0,.54l-.85.09A2.6,2.6,0,0,0,258.32,22.76Z" style="fill: #fff"/>
            <path d="M259.77,23.69a4.26,4.26,0,0,1,0-1.74,2,2,0,0,1,.4-.77,1.22,1.22,0,0,1,.69-.4,1.33,1.33,0,0,1,.75.06,1.18,1.18,0,0,1,.55.41,3,3,0,0,1,.55,1.28,3.86,3.86,0,0,1-.07,1.86,1.28,1.28,0,0,1-1,1C260.65,25.56,260,25,259.77,23.69Zm1.09-.12c.13.69.34,1,.65.95.13,0,.21-.24.23-.64a5.35,5.35,0,0,0-.07-1.15c-.15-.78-.35-1.15-.61-1.1s-.26.27-.28.7A5,5,0,0,0,260.86,23.57Z" style="fill: #fff"/>
            <path d="M264.79,20q1.21-.22,1.59,1.8c.13.71.23,1.46.3,2.27l-1.09.1c-.07-.71-.16-1.42-.3-2.13s-.3-1-.5-1-.18.29-.24.81a6.85,6.85,0,0,0,0,1.5c.06.24.17.69.32,1.34l-1.09.1c-.23-.85-.4-1.6-.52-2.26S263,21.3,263,20.77l.7-.05.24.57C264.14,20.51,264.43,20.09,264.79,20Z" style="fill: #fff"/>
            <path d="M269.85,17.68a2.69,2.69,0,0,1,1-.37,1.44,1.44,0,0,1,1.05.2,1.33,1.33,0,0,1,.6,1c.09.45-.18,1-.8,1.62a1.44,1.44,0,0,1,1.16,1.11,1.71,1.71,0,0,1-.35,1.45,1.93,1.93,0,0,1-1.12.75,2.92,2.92,0,0,1-1.14,0l-.36-1a2.93,2.93,0,0,0,.81-.05,1.78,1.78,0,0,0,.8-.36c.22-.19.31-.37.27-.56a.58.58,0,0,0-.31-.42.89.89,0,0,0-.63-.08,2.79,2.79,0,0,0-.74.27l-.49-.88a6.41,6.41,0,0,0,1.35-1c.3-.31.44-.56.4-.76s-.18-.31-.42-.26a2.64,2.64,0,0,0-1.19.81l-.75-.76A5.09,5.09,0,0,1,269.85,17.68Z" style="fill: #fff"/>
          </g>
        </g>
        <g>
          <path d="M285.55,3.55l.24,7.86q.06,2,.09,3.93c0,1.32,0,2.63-.07,3.94h0c-.11-1.31-.13-2.62-.2-3.93s0-2.62,0-3.93l0-7.87Z" style="fill: #fff"/>
          <path d="M282.08,4.63l3.73,7c.62,1.15,1.24,2.31,1.84,3.48s1.16,2.35,1.69,3.56h0c-.68-1.12-1.29-2.29-1.93-3.43s-1.21-2.33-1.79-3.51l-3.53-7Z" style="fill: #fff"/>
          <path d="M290.11,4.52l-3.81,6.85q-.94,1.72-1.92,3.42c-.69,1.11-1.34,2.24-2.07,3.33h0c.57-1.18,1.22-2.31,1.83-3.47s1.31-2.27,2-3.39l4-6.75Z" style="fill: #fff"/>
          <path d="M279.73,10.87l6.52.85a64.55,64.55,0,0,1,6.49,1.07v0a64.59,64.59,0,0,1-6.52-.86l-6.49-1.06Z" style="fill: #fff"/>
        </g>
      </g>
      <path d="M359.83,161.3h11.8V125.9h-11.8m-11.8,0H321.48a5.87,5.87,0,0,0-5.43,3.6l-8.9,20.8a5.72,5.72,0,0,0-.42,2.15v5.9a5.9,5.9,0,0,0,5.9,5.9h18.62l-2.81,13.48a5.43,5.43,0,0,0-.08.92,4.38,4.38,0,0,0,1.29,3.12l3.13,3.13,19.41-19.44a5.78,5.78,0,0,0,1.74-4.16V131.8A5.9,5.9,0,0,0,348,125.9Z" style="fill: #fff"/>
    </g>
  </g>
</svg>
