<svg xmlns="http://www.w3.org/2000/svg" width="496" height="525.05" viewBox="0 0 496 525.05">
  <title>Roulette</title>
  <g style="isolation:isolate">
  <g id="theWheel" data-name="Calque 2"><path d="M248.25,246.05v-201s78-5,142,59C248.25,245.05,248.25,246.05,248.25,246.05Z" style="fill:#1976d2"/><path d="M248.25,246.05v-201s-78-5-142,59C248.25,245.05,248.25,246.05,248.25,246.05Z" style="fill:#1565c0"/><path d="M248.25,250V451s78,5,142-59C248.25,251,248.25,250,248.25,250Z" style="fill:#42a5f5"/><path d="M248.25,250V451s-78,5-142-59C248.25,251,248.25,250,248.25,250Z" style="fill:#64b5f6"/><path d="M246.3,248.05H45.3s-5,78,59,142C245.3,248.05,246.3,248.05,246.3,248.05Z" style="fill:#90caf9"/><path d="M246.3,248.05H45.3s-5-78,59-142C245.3,248.05,246.3,248.05,246.3,248.05Z" style="fill:#bbdefb"/><path d="M249.7,248.05h201s5,78-59,142C250.7,248.05,249.7,248.05,249.7,248.05Z" style="fill:#2196f3"/><path d="M249.7,248.05h201s5-78-59-142C250.7,248.05,249.7,248.05,249.7,248.05Z" style="fill:#1e88e5"/><path d="M301.9,93.43,303.3,90l2,.79a3,3,0,0,0,.47,2.36,5.43,5.43,0,0,0,2.44,1.65,4.68,4.68,0,0,0,3.64.13,4.83,4.83,0,0,0,2.54-2.9,4.45,4.45,0,0,0,.19-3.53,4.12,4.12,0,0,0-2.34-2.11,5,5,0,0,0-4.49.14l-2.1-.85L310.3,74l12.41,5-1.83,4.56-2.22-.89.52-2.12-7.36-3L309.22,84l.09,0a6.9,6.9,0,0,1,4.73.42,7.13,7.13,0,0,1,3.9,3.39,6.34,6.34,0,0,1-.1,5.4,6.83,6.83,0,0,1-4.14,4.21,8.93,8.93,0,0,1-6.37-.42A15.52,15.52,0,0,1,301.9,93.43Z" style="fill:#fff"/><path d="M320.13,93.4l1-1.8,1.52.81c.05-.13.22-.47.5-1l.24-.41c.13-.24.22-.38.25-.44l-1.52-.81L323,88l1.69.9a10.2,10.2,0,0,1,5.68-4,9,9,0,0,1,6.49,1,14.85,14.85,0,0,1,4.82,3.8l-2.11,4-1.91-1a3.58,3.58,0,0,0,.2-2.72A4.08,4.08,0,0,0,335.8,88c-2.79-1.49-5.34-.6-7.68,2.65L334.37,94,333,95.58l-6-3.2-1,1.85,5.67,3-1.35,1.59-5.13-2.73a8,8,0,0,0-.59,4.6,4.77,4.77,0,0,0,2.68,3,5.09,5.09,0,0,0,4.87.18l1.69.9-1.24,2.32a11,11,0,0,1-6.54-1.3,9,9,0,0,1-4.49-4.73,9.81,9.81,0,0,1,.22-6.81Z" style="fill:#fff"/><path d="M402.54,155.86l1.76-1L409,157.7l1.2,2.15-16.81,9.35a1,1,0,0,0-.46.59.9.9,0,0,0,0,.74l1.07,1.91-1.78,1-5-9,1.78-1,1.21,2.18a.88.88,0,0,0,.62.42,1.14,1.14,0,0,0,.74-.09l13.79-7.68L403,156.66Z" style="fill:#fff"/><path d="M396.53,175.78q1.67-3.65,6.67-5.83t8.77-.88a9.21,9.21,0,0,1,5.37,12.31q-1.59,3.65-6.63,5.84t-8.84.89a9.08,9.08,0,0,1-5.34-12.33Zm8.15-2.27q-8.18,3.56-6,8.64t10.41,1.55q8.2-3.55,6-8.68T404.68,173.51Z" style="fill:#fff"/><path d="M408.48,190.68l2-.58.49,1.65c.13-.06.49-.18,1.06-.35l.46-.12.49-.13-.49-1.65,1.95-.58.54,1.83a10.21,10.21,0,0,1,6.84,1.24,8.94,8.94,0,0,1,3.85,5.31,14.8,14.8,0,0,1,.68,6.1L422,204.68l-.62-2.07a3.61,3.61,0,0,0,2.08-1.78,4.07,4.07,0,0,0-.16-2.78q-1.33-4.55-7.28-3.6l2,6.78-2.08.17L414,194.87l-2,.59,1.83,6.16-2.08.15-1.65-5.56a8.07,8.07,0,0,0-3.7,2.8,4.77,4.77,0,0,0-.27,4,5.07,5.07,0,0,0,3.28,3.59l.55,1.84-2.52.75a11,11,0,0,1-3.66-5.58,9.05,9.05,0,0,1,.21-6.52,9.84,9.84,0,0,1,5-4.62Z" style="fill:#fff"/><path d="M421.8,293.24l1.93.57,1.26,5.31-.69,2.36-18.45-5.43a1,1,0,0,0-.75.09.84.84,0,0,0-.5.53l-.62,2.11-2-.58,2.9-9.86,2,.58-.71,2.38a.87.87,0,0,0,.14.74,1.06,1.06,0,0,0,.58.46L422,297l-.49-2.83Z" style="fill:#fff"/><path d="M402.84,299.52l3.49,1.36-.77,2a3,3,0,0,0-2.36.49,5.5,5.5,0,0,0-1.62,2.46,4.66,4.66,0,0,0-.08,3.64,4.86,4.86,0,0,0,2.93,2.51,4.4,4.4,0,0,0,3.52.14,4,4,0,0,0,2.09-2.36,5,5,0,0,0-.19-4.48l.82-2.12,11.73,4.55-4.84,12.47L413,318.39l.87-2.23,2.12.5,2.87-7.4-6.49-2.52,0,.09a6.92,6.92,0,0,1-.37,4.73,7.13,7.13,0,0,1-3.34,3.94,6.38,6.38,0,0,1-5.41,0,6.83,6.83,0,0,1-4.25-4.09,8.89,8.89,0,0,1,.35-6.37A15.42,15.42,0,0,1,402.84,299.52Z" style="fill:#fff"/><path d="M403.09,317.74l1.8.94-.79,1.53c.14.05.47.21,1,.49a4.06,4.06,0,0,1,.41.23l.44.24.8-1.53,1.81.94-.88,1.7a10.27,10.27,0,0,1,4.07,5.63,9,9,0,0,1-.92,6.5,14.73,14.73,0,0,1-3.75,4.86l-4-2.06,1-1.92a3.55,3.55,0,0,0,2.72.16,4.08,4.08,0,0,0,1.82-2.1q2.18-4.22-2.75-7.65L402.66,332l-1.61-1.33,3.13-6.05-1.86-1-3,5.7-1.6-1.33,2.67-5.16a8,8,0,0,0-4.61-.54,4.81,4.81,0,0,0-3,2.72,5.11,5.11,0,0,0-.13,4.87l-.88,1.69-2.33-1.21a11,11,0,0,1,1.23-6.55,9.07,9.07,0,0,1,4.67-4.55,9.8,9.8,0,0,1,6.82.15Z" style="fill:#fff"/><path d="M338,384.44a8.1,8.1,0,0,1,1,2.62,7,7,0,0,1-.05,2.76,16.16,16.16,0,0,1-.69,2.52c-.26.72-.64,1.62-1.14,2.69-.41.85-.66,1.38-.73,1.57l-.55,1.3a6.46,6.46,0,0,0-.47,1.4l-.14,1.11a3,3,0,0,0,.08,1.27,5.47,5.47,0,0,0,.5,1.08q1.92,3.24,5.12,1.32A5.14,5.14,0,0,0,343.1,402a3.43,3.43,0,0,0,0-2.67l1.86-1.1,2.16,3.64a18.28,18.28,0,0,1-5.05,4.41,8.66,8.66,0,0,1-5.53,1.48,5.54,5.54,0,0,1-4-3,6.42,6.42,0,0,1-.59-1.25,4.24,4.24,0,0,1-.24-1.34l0-1.23a4,4,0,0,1,.26-1.33c.19-.53.32-.94.4-1.21a11.39,11.39,0,0,1,.61-1.35l.61-1.21.68-1.31a19,19,0,0,0,1.8-4.25,4.49,4.49,0,0,0-.27-3.29l-7.49,4.45,1.24,2.72-2.09,1.23-2.91-4.91L337.11,383Z" style="fill:#fff"/><path d="M321.64,395q3.67,1.62,5.91,6.6t1,8.76a9.19,9.19,0,0,1-12.25,5.51q-3.66-1.54-5.91-6.56t-1-8.82A9.07,9.07,0,0,1,321.64,395Zm2.37,8.13q-3.66-8.15-8.71-5.89t-1.43,10.44q3.66,8.16,8.75,5.88T324,403.16Z" style="fill:#fff"/><path d="M306.91,407.15l.6,2-1.64.51c.06.13.18.49.36,1.06l.12.46c.07.26.12.43.14.49l1.65-.52.6,1.95-1.83.57a10.23,10.23,0,0,1-1.15,6.85,9,9,0,0,1-5.27,3.91,14.55,14.55,0,0,1-6.09.75l-1.33-4.27,2.07-.64a3.59,3.59,0,0,0,1.8,2,4.11,4.11,0,0,0,2.78-.19q4.51-1.4,3.51-7.32l-6.76,2.1-.19-2.08,6.51-2-.62-2-6.14,1.9-.17-2.08,5.54-1.72a8,8,0,0,0-2.85-3.66,4.82,4.82,0,0,0-4-.22,5.09,5.09,0,0,0-3.55,3.33l-1.83.56-.78-2.51a11,11,0,0,1,5.53-3.73,9.08,9.08,0,0,1,6.52.14,9.79,9.79,0,0,1,4.68,5Z" style="fill:#fff"/><path d="M208.55,406.44a8,8,0,0,1-1.23,2.52,6.93,6.93,0,0,1-2.06,1.84,18.53,18.53,0,0,1-2.32,1.2c-.71.29-1.62.62-2.75,1l-1.65.53-1.33.48a6.74,6.74,0,0,0-1.34.6l-.91.66a3,3,0,0,0-.88.92,5.27,5.27,0,0,0-.46,1.1c-.71,2.4.12,4,2.51,4.65a5.11,5.11,0,0,0,3,.16,3.48,3.48,0,0,0,1.94-1.82l2.07.62L202,424.93a18.4,18.4,0,0,1-6.66-.72,8.63,8.63,0,0,1-4.84-3.06,5.54,5.54,0,0,1-.54-5,7,7,0,0,1,.52-1.28,4.28,4.28,0,0,1,.82-1.09l.89-.86a3.88,3.88,0,0,1,1.15-.7c.52-.23.91-.4,1.16-.53a9.58,9.58,0,0,1,1.41-.46l1.29-.38,1.43-.38a20,20,0,0,0,4.35-1.56,4.47,4.47,0,0,0,2.23-2.44L196.82,404l-1.15,2.76-2.33-.7,1.63-5.46L209,404.81Z" style="fill:#1565c0"/><path d="M192.81,401l-1.44,3.47-2-.82a3,3,0,0,0-.45-2.37,5.41,5.41,0,0,0-2.42-1.67,4.69,4.69,0,0,0-3.64-.17,4.89,4.89,0,0,0-2.57,2.88,4.45,4.45,0,0,0-.22,3.52,4,4,0,0,0,2.31,2.14,5,5,0,0,0,4.49-.09l2.1.87-4.81,11.62-12.35-5.11,1.87-4.54,2.22.91-.55,2.11,7.34,3,2.66-6.43-.09,0a6.92,6.92,0,0,1-4.72-.48,7.11,7.11,0,0,1-3.87-3.42,6.33,6.33,0,0,1,.16-5.4,6.84,6.84,0,0,1,4.18-4.17,8.94,8.94,0,0,1,6.36.49A15.47,15.47,0,0,1,192.81,401Z" style="fill:#1565c0"/><path d="M174.59,400.88l-1,1.79-1.51-.83a10.41,10.41,0,0,1-.51,1l-.24.41-.26.43,1.52.83-1,1.79-1.68-.92a10.22,10.22,0,0,1-5.72,3.95,8.93,8.93,0,0,1-6.47-1.06,14.65,14.65,0,0,1-4.78-3.85l2.14-3.93,1.9,1a3.56,3.56,0,0,0-.22,2.72,4,4,0,0,0,2.07,1.86q4.15,2.28,7.7-2.58l-6.21-3.39,1.35-1.58,6,3.27,1-1.84-5.64-3.08,1.37-1.57,5.1,2.78a8.08,8.08,0,0,0,.64-4.6,4.86,4.86,0,0,0-2.65-3.06,5.15,5.15,0,0,0-4.87-.23l-1.68-.91,1.26-2.31a11,11,0,0,1,6.53,1.37,9.07,9.07,0,0,1,4.45,4.78,9.86,9.86,0,0,1-.3,6.81Z" style="fill:#1565c0"/><path d="M110.06,334.07,106.68,336l-1.05-1.85q2-1.75.19-4.93a4.79,4.79,0,0,0-2.6-2.39,4,4,0,0,0-3.3.49q-3.3,1.88-1.11,5.7l.87,1.53-2.11,1.2-.75-1.32c-1.46-2.58-3.29-3.24-5.48-2s-2.6,2.91-1.36,5.09c1.15,2,2.55,2.8,4.22,2.29l1,1.8-3.3,1.87a18.06,18.06,0,0,1-4.18-5q-3.6-6.35,1.41-9.16,3.66-2.07,6.83,1.49l.08,0q-1.73-4.72,2.21-6.95a5.46,5.46,0,0,1,5.14-.38A9.77,9.77,0,0,1,107.9,328,16.91,16.91,0,0,1,110.06,334.07Z" style="fill:#1565c0"/><path d="M99.27,318.18q-1.68,3.65-6.71,5.79t-8.77.81a8.72,8.72,0,0,1-5.32-5,8.81,8.81,0,0,1,0-7.33q1.6-3.63,6.67-5.78t8.84-.83a9.07,9.07,0,0,1,5.25,12.36Zm-8.16,2.22q8.2-3.5,6-8.6t-10.4-1.63q-8.23,3.51-6,8.64T91.11,320.4Z" style="fill:#1565c0"/><path d="M87.44,303.22l-2,.56L85,302.13c-.13.06-.49.17-1.07.34l-.46.11-.49.13.48,1.66-1.95.56L81,303.1a10.26,10.26,0,0,1-6.83-1.29,9.06,9.06,0,0,1-3.81-5.34,14.72,14.72,0,0,1-.63-6.11l4.3-1.24.6,2.08A3.64,3.64,0,0,0,72.51,293a4.11,4.11,0,0,0,.14,2.78q1.3,4.54,7.25,3.65l-2-6.8,2.07-.15,1.9,6.55,2-.58-1.78-6.18,2.08-.13,1.61,5.58a8.05,8.05,0,0,0,3.72-2.78,4.83,4.83,0,0,0,.3-4,5.12,5.12,0,0,0-3.26-3.62l-.53-1.83,2.52-.73a11,11,0,0,1,3.63,5.6,9.11,9.11,0,0,1-.26,6.51,9.85,9.85,0,0,1-5,4.59Z" style="fill:#1565c0"/><path d="M90.74,205.26,87,204.08l.65-2q2.64.27,3.74-3.22a4.85,4.85,0,0,0,0-3.53,4,4,0,0,0-2.61-2.08c-2.41-.77-4,.26-4.94,3.06L83.33,198,81,197.22l.46-1.44c.9-2.82.14-4.61-2.26-5.38s-3.9.08-4.66,2.47q-1.07,3.33,1.19,4.65l-.62,2-3.62-1.14a18.4,18.4,0,0,1,.81-6.47q2.22-6.94,7.69-5.19c2.67.85,3.85,2.85,3.54,6l.09,0q2.28-4.49,6.6-3.11A5.56,5.56,0,0,1,94,193.14a9.94,9.94,0,0,1-.27,6.37A17.13,17.13,0,0,1,90.74,205.26Z" style="fill:#1565c0"/><path d="M95.46,190,92,188.47l.84-2a3,3,0,0,0,2.38-.4,5.58,5.58,0,0,0,1.71-2.4,4.67,4.67,0,0,0,.21-3.64,4.81,4.81,0,0,0-2.83-2.61,4.44,4.44,0,0,0-3.52-.27,4.06,4.06,0,0,0-2.17,2.28,5.05,5.05,0,0,0,0,4.49l-.9,2.08-11.56-5,5.3-12.28L86,170.73l-1,2.2-2.1-.58-3.15,7.29,6.4,2.76,0-.09a7,7,0,0,1,.55-4.71,7.07,7.07,0,0,1,3.48-3.82,6.4,6.4,0,0,1,5.4.23,6.87,6.87,0,0,1,4.11,4.25,8.92,8.92,0,0,1-.59,6.35A15.37,15.37,0,0,1,95.46,190Z" style="fill:#1565c0"/><path d="M95.87,171.76l-1.77-1,.85-1.51a8.49,8.49,0,0,1-1-.52l-.41-.25-.43-.26-.85,1.5-1.77-1,.94-1.66a10.16,10.16,0,0,1-3.86-5.78,9,9,0,0,1,1.14-6.46,14.75,14.75,0,0,1,3.93-4.72l3.89,2.2-1.06,1.88a3.59,3.59,0,0,0-2.72-.26,4.09,4.09,0,0,0-1.89,2c-1.56,2.75-.73,5.33,2.46,7.74l3.49-6.16,1.55,1.38L95,164.85l1.83,1,3.16-5.59,1.55,1.39-2.85,5.06a8,8,0,0,0,4.58.7,4.79,4.79,0,0,0,3.1-2.61,5.09,5.09,0,0,0,.3-4.86l.94-1.66,2.29,1.29a11,11,0,0,1-1.46,6.51,9.13,9.13,0,0,1-4.84,4.38,9.87,9.87,0,0,1-6.81-.4Z" style="fill:#1565c0"/><path d="M161.36,104.19l-1.4-2.58,2.44-17.12,2.94-1.59,6.86,12.65,2.25-1.22,1.15,2.14-2.24,1.21,1.15,2.13a1,1,0,0,0,.6.46.86.86,0,0,0,.74,0l1.39-.75,1,1.79-7.64,4.14-1-1.79,1.39-.75a1.13,1.13,0,0,0,.39-1.37l-1.15-2.13Zm1-3.29,6.72-3.65-4.9-9-.11.06-1.77,12.52Z" style="fill:#fff"/><path d="M180.71,97.15q-3.6-1.77-5.64-6.84t-.62-8.79a9.2,9.2,0,0,1,12.47-5q3.59,1.69,5.63,6.79t.64,8.86a9.1,9.1,0,0,1-12.48,5Zm-2-8.22q3.31,8.28,8.46,6.24T189,84.8q-3.33-8.31-8.51-6.23T178.68,88.93Z" style="fill:#fff"/><path d="M196,85.63l-.53-2,1.67-.44c-.06-.14-.16-.49-.32-1.08l-.1-.46c-.06-.27-.1-.43-.12-.49l-1.67.44-.52-2,1.85-.5a10.21,10.21,0,0,1,1.43-6.8,9,9,0,0,1,5.42-3.69,14.69,14.69,0,0,1,6.12-.5l1.15,4.33-2.09.55a3.65,3.65,0,0,0-1.71-2.13,4.11,4.11,0,0,0-2.78.08q-4.59,1.21-3.82,7.17l6.85-1.82.1,2.08-6.59,1.76.54,2L207,80.57l.09,2.09-5.61,1.49a8,8,0,0,0,2.7,3.77,4.77,4.77,0,0,0,4,.39,5.07,5.07,0,0,0,3.68-3.18l1.85-.49.68,2.54a11,11,0,0,1-5.68,3.5,9.07,9.07,0,0,1-6.51-.4,9.87,9.87,0,0,1-4.48-5.14Z" style="fill:#fff"/><line x1="248" y1="450.5" x2="248" y2="45.5" style="fill:none;stroke:#fff;stroke-miterlimit:10;stroke-width:2px"/><line x1="45.5" y1="248" x2="450.5" y2="248" style="fill:none;stroke:#fff;stroke-miterlimit:10;stroke-width:2px"/></g><g id="ca5985a4-99fc-451e-adf3-c0a163758824" data-name="Calque 3"><circle cx="248" cy="248" r="243" style="fill:none;stroke:#f9970b;stroke-miterlimit:10;stroke-width:10px"/><circle cx="248" cy="247" r="225.48" style="fill:none;stroke:#f9970b;stroke-miterlimit:10;stroke-width:2px"/><polygon points="247.5 434.05 196.5 525.05 299.5 525.05 247.5 434.05" style="fill:#f9970b"/><polygon points="206.72 506.81 147.25 525.05 196.25 525.05 206.72 506.81" style="opacity:0.18"/><rect x="17.25" y="503.05" width="190" height="4" rx="2" ry="2" style="opacity:0.18"/><polygon points="246.25 436.28 196.5 525.05 246.25 525.05 246.25 436.28" style="fill:#f9970b;opacity:0.36;mix-blend-mode:multiply"/><line x1="246.75" y1="45.55" x2="246.75" y2="9.55" style="fill:none;stroke:#f9970b;stroke-miterlimit:10;stroke-width:2px"/><line x1="105.25" y1="105.05" x2="79.25" y2="76.61" style="fill:none;stroke:#f9970b;stroke-miterlimit:10;stroke-width:2px"/><line x1="416.25" y1="418.05" x2="390.25" y2="389.61" style="fill:none;stroke:#f9970b;stroke-miterlimit:10;stroke-width:2px"/><line x1="45.25" y1="248.05" x2="5.25" y2="248.05" style="fill:none;stroke:#f9970b;stroke-miterlimit:10;stroke-width:2px"/><line x1="487.25" y1="248.05" x2="449.25" y2="248.05" style="fill:none;stroke:#f9970b;stroke-miterlimit:10;stroke-width:2px"/><line x1="390.25" y1="106.05" x2="418.25" y2="80.05" style="fill:none;stroke:#f9970b;stroke-miterlimit:10;stroke-width:2px"/><line x1="76.25" y1="418.05" x2="104.25" y2="392.05" style="fill:none;stroke:#f9970b;stroke-miterlimit:10;stroke-width:2px"/></g></g></svg>
