<svg xmlns="http://www.w3.org/2000/svg" viewBox="0 0 280.1 519.91"><defs><style>.cls-1{isolation:isolate;}.cls-2{fill:#1d1d1b;opacity:0.22;}.cls-3{fill:#af1548;}.cls-4,.cls-5{fill:#010101;}.cls-12,.cls-5{stroke:#55161b;stroke-miterlimit:10;}.cls-6{fill:#1d2c44;}.cls-7{fill:#020303;}.cls-8{fill:#55161b;opacity:0.29;mix-blend-mode:multiply;}.cls-9{opacity:0.9;}.cls-10{fill:#fff;}.cls-11{fill:#f59b1b;}.cls-12{fill:#d0262a;}.cls-13{opacity:0.4;}</style></defs><title>agenda</title><g class="cls-1"><g id="Calque_1" data-name="Calque 1"><ellipse class="cls-2" cx="111.15" cy="512.91" rx="30.64" ry="7"/><path class="cls-3" d="M237.24,22.44S243.57,69,214.39,95.51,54.61,101.57,26.49,116C7.79,138.23-7.93,413.79,4.36,424.47c5.32,4.62,44.6,8.58,88.27,10.59,8,.36,8.36,77.88,16.44,78.11,8.54.24,24.79-76.82,33.05-76.75,39.89.33,73.95-1.47,78.26-6.43,10.67-12.29,30-354.68,24.84-399.4-.8-6.95-3-17.77-3-17.77Z"/><path class="cls-4" d="M246.14,59.73a138.28,138.28,0,0,1,19.44,2.05,47,47,0,0,1,9.49,2.69,11.09,11.09,0,0,1,4.27,2.9,2.94,2.94,0,0,1,.57,2.95,4.75,4.75,0,0,1-2,2.06,20.22,20.22,0,0,1-4.67,2c-1.59.48-3.2.86-4.82,1.18a94.83,94.83,0,0,1-9.75,1.36,169.44,169.44,0,0,1-19.64.52,172,172,0,0,1-19.6-1.57c-3.25-.49-6.5-1.07-9.72-1.89a40.43,40.43,0,0,1-9.5-3.58A10.72,10.72,0,0,1,198,68.63a4.62,4.62,0,0,1-1-1.49,3.34,3.34,0,0,1-.21-1.07,3.05,3.05,0,0,1,.15-1,5.3,5.3,0,0,1,2-2.59,12.06,12.06,0,0,1,2.36-1.36,36.23,36.23,0,0,1,9.76-2.49,90.54,90.54,0,0,1,9.84-.68c3.28,0,6.54.09,9.8.36v.3c-3.25.19-6.49.35-9.71.71a89.63,89.63,0,0,0-9.57,1.38,37.75,37.75,0,0,0-9,2.8,11.08,11.08,0,0,0-1.82,1.14,2.66,2.66,0,0,0-.95,1.21.31.31,0,0,0,0,.18s0,0,0,0a.15.15,0,0,1,0,.07,2,2,0,0,0,.4.52,7.75,7.75,0,0,0,1.64,1.16,37.69,37.69,0,0,0,8.77,3.15c3.08.8,6.23,1.46,9.4,2A169.17,169.17,0,0,0,239.16,75,167.06,167.06,0,0,0,258.54,75a96.25,96.25,0,0,0,9.6-1.11c1.58-.28,3.15-.61,4.68-1a18.34,18.34,0,0,0,4.34-1.71,3.51,3.51,0,0,0,1.43-1.33,1.58,1.58,0,0,0-.33-1.6,10,10,0,0,0-3.68-2.6,46.29,46.29,0,0,0-9.18-2.91A139.88,139.88,0,0,0,246.12,60Z"/><circle class="cls-5" cx="240.52" cy="11.5" r="11"/><path class="cls-6" d="M46.66,138.32s74.18-11.49,171.06-.41c-2.05,123-18.62,268.84-18.62,268.84S89.73,427.3,26.83,405.29C19.62,289.36,46.66,138.32,46.66,138.32Z"/><path class="cls-7" d="M46.59,138.25c1-.19,1.82-.28,2.71-.42l2.65-.36c1.77-.24,3.55-.45,5.32-.66,3.55-.44,7.11-.79,10.66-1.15,7.12-.68,14.24-1.28,21.37-1.71q21.4-1.37,42.87-1.4c14.29,0,28.6.25,42.88,1.08,7.14.3,14.27.9,21.4,1.42,3.57.23,7.13.63,10.69,1l10.67,1,.76.08v.77c-.25,11.23-.38,22.47-.81,33.7-.2,5.62-.32,11.24-.59,16.85l-.78,16.84c-1.16,22.44-2.49,44.87-4.15,67.28s-3.48,44.81-5.54,67.18-4.29,44.74-6.79,67.07l-.07.6-.58.1c-14.3,2.52-28.68,4.38-43.11,5.82s-28.91,2.39-43.42,2.67c-7.25.16-14.5.14-21.75-.11-3.63-.08-7.25-.31-10.87-.49s-7.24-.5-10.85-.9a217.56,217.56,0,0,1-21.55-3.12,160.09,160.09,0,0,1-21.06-5.58l-.36-.13,0-.37c-1.19-22.35-1.34-44.72-.75-67.08q1.14-33.53,4-66.95t7.19-66.68Q38.8,188,41.25,171.41q1.22-8.29,2.55-16.57l1.35-8.28.69-4.13C46.08,141.06,46.3,139.68,46.59,138.25Zm.14.14c-1.83,10.91-3.59,22-5.16,33.06s-3.08,22.14-4.46,33.23Q33,238,30.17,271.36t-3.73,66.92c-.5,22.33-.31,44.68.95,67l-.38-.5a156.93,156.93,0,0,0,20.92,5.48c7.08,1.41,14.25,2.35,21.44,3.05,3.59.38,7.2.6,10.81.87s7.21.39,10.83.46c7.22.22,14.46.22,21.69,0,14.45-.31,28.9-1.33,43.29-2.77s28.75-3.38,43-5.92l-.65.69q3.63-33.48,6.55-67.05t5.39-67.16c1.65-22.4,3-44.82,4.14-67.24s2-44.87,2.49-67.32l.74.85L207,137.62c-3.55-.36-7.1-.79-10.66-1C189.21,136,182.1,135.37,175,135c-14.25-.93-28.53-1.26-42.8-1.36s-28.56.35-42.82,1c-7.13.34-14.26.85-21.38,1.43S53.69,137.47,46.73,138.39Z"/><polygon class="cls-8" points="92.78 434.76 141.79 436.36 136.86 443.23 96.27 441.8 92.78 434.76"/><g class="cls-9"><path class="cls-4" d="M123.35,172.27a199.69,199.69,0,0,0-3.2,23.91,217.89,217.89,0,0,0-.61,22.09L110,216.62q.12-8.43.71-16.44T112.38,185L108,190.12l-5.12-5a162.15,162.15,0,0,0,10.75-15.53Z"/><path class="cls-4" d="M149,207.37c-1.67-.13-5-.08-9.9.13L131,201.06q.14-1.73,7.81-13.32t11.86-15.56l11.76,2q-2.72,13.38-4.07,25.91l4.57.77-1.56,7.46-3.74-.27q-.6,8.19-.65,13.81l-8.57-1.35Q148.41,215.42,149,207.37Zm-7.13-8a56.7,56.7,0,0,1,7.79.07q1.2-9.43,3-17.61A190.61,190.61,0,0,0,141.87,199.33Z"/><path class="cls-4" d="M96.41,275.73q-.51,6.87-3.12,10.45t-5.9,3.33a8.06,8.06,0,0,1-3.47-1.41,12.14,12.14,0,0,1-3.46-3.32l2.44-4.45c1.46,1.31,2.59,2,3.36,2.05s1.5-.48,2.17-1.61a11.61,11.61,0,0,0,1.23-4.94q1.5-20.4,1.83-28.92L97.9,248Q97.78,257.12,96.41,275.73Zm-3.75-39.86,6.65,1.27-1.09,6.65-6.64-1.33Z"/><path class="cls-4" d="M124.05,249.24l-.82,9.45q-1,13.35-1,19.66l-5.88-1a32.48,32.48,0,0,0-.41-5.15c-2.43,3.07-4.75,4.53-7,4.36a6.66,6.66,0,0,1-5.13-2.66,9.29,9.29,0,0,1-1.52-6.43,185,185,0,0,1,2.5-18.46l6.9,1.17a167.35,167.35,0,0,0-2.33,16.91c-.15,2,.41,3.1,1.69,3.19.6.05,1.39-.72,2.37-2.29a24.63,24.63,0,0,0,2.5-5.77c0-.88.08-1.92.16-3.12s.42-4.84,1-10.94Z"/><path class="cls-4" d="M130.72,249.25l6.78,1.16-2.12,28.73L128.61,278ZM132,238.76l6.64,1.27-1.09,6.66-6.64-1.33Z"/><path class="cls-4" d="M156.09,251.18q7.91.58,6.93,13.74-.51,6.94-1.86,14.67l-6.95-1.18q1.15-6.77,1.67-13.74c.34-4.65-.14-7-1.46-7.12-.64,0-1.58,1.5-2.81,4.64a43.58,43.58,0,0,0-2.55,9.29q-.06,2.46-.17,8.89l-6.95-1.17q0-8.49.43-14.89t1.21-11.46l4.39.8c.05.33.26,1.64.61,4Q152.55,250.92,156.09,251.18Z"/></g><path class="cls-10" d="M45.56,372.89q-.08-3.67,0-8.29t.43-7.86l3.28.39q-.31,3-.42,7.36a85.47,85.47,0,0,0,4.76-8.21l3,1.27a85.42,85.42,0,0,1-4.87,7.9,26,26,0,0,0,4.49,5.87L54,373.76a30.61,30.61,0,0,1-5.15-7.54q-.11,4.39,0,7.11Z"/><path class="cls-10" d="M58.24,361.89l2.73.33-.28,11.51L58,373.4Zm.3-4.22,2.68.38-.31,2.68-2.68-.4Z"/><path class="cls-10" d="M68.41,362.16c2.11,0,3.13,1.84,3,5.36,0,1.85-.2,3.82-.46,5.89l-2.8-.33c.22-1.82.36-3.66.4-5.53s-.19-2.8-.72-2.81c-.26,0-.6.63-1,1.91a17.46,17.46,0,0,0-.84,3.76c0,.65,0,1.84.11,3.55l-2.8-.33c-.12-2.26-.16-4.24-.12-6s.13-3.24.25-4.6l1.78.24c0,.13.13.65.32,1.57C66.51,363,67.47,362.14,68.41,362.16Z"/><path class="cls-10" d="M76.6,372.06c.6,0,1.27-.55,2-1.71l1.8,1.13a12.91,12.91,0,0,1-.91,1.32,4.67,4.67,0,0,1-1.28,1,3.58,3.58,0,0,1-1.89.45,3.15,3.15,0,0,1-2.51-1.34,5.39,5.39,0,0,1-1-3.49,12.09,12.09,0,0,1,1-4.64,4.53,4.53,0,0,1,1.42-1.8,3,3,0,0,1,1.86-.66,3.23,3.23,0,0,1,1.52.34,3.56,3.56,0,0,1,.91.69,3.27,3.27,0,0,1,.58,1.11,11.14,11.14,0,0,1,.35,1.18,10,10,0,0,1,.14,1.33c.05.77.06,1.46.05,2.09a39.84,39.84,0,0,1-5,.83,4.48,4.48,0,0,0,.3,1.55C76.15,371.86,76.36,372.05,76.6,372.06Zm.71-7.35c-.36,0-.68.33-1,1a7.62,7.62,0,0,0-.55,2.43q1.27-.23,2.22-.45C78.05,365.72,77.82,364.72,77.31,364.71Zm-.43-3.28-1-1.39a31.18,31.18,0,0,1,4.48-2.41l1.24,2.16A21.4,21.4,0,0,0,76.88,361.43Z"/><path class="cls-10" d="M85.31,364.28a2.81,2.81,0,0,1,2.41-1.41,2.52,2.52,0,0,1,2.18,1.21,5.22,5.22,0,0,1,.72,3,10.8,10.8,0,0,1-1.31,5c-.83,1.5-1.69,2.24-2.59,2.22a5.25,5.25,0,0,1-1.65-.28q0,3.32,0,5.79l-2.8-.36q0-4.32.1-9.18t.54-8.38l2.49.33Zm.53,7.67c.45,0,.88-.42,1.3-1.29a6.49,6.49,0,0,0,.65-2.64A7,7,0,0,0,87.6,366c-.15-.49-.33-.74-.54-.74a1.09,1.09,0,0,0-.93.6,9.45,9.45,0,0,0-.88,1.78c0,.83-.07,2.11-.11,3.84C85.37,371.77,85.6,371.94,85.84,372Z"/><path class="cls-10" d="M91.47,369.61a11.15,11.15,0,0,1,1-4.34,4.51,4.51,0,0,1,1.4-1.73,3.14,3.14,0,0,1,2-.64,3.47,3.47,0,0,1,1.85.54,3.24,3.24,0,0,1,1.15,1.34,7.85,7.85,0,0,1,.71,3.52,9.81,9.81,0,0,1-1.18,4.61,3.29,3.29,0,0,1-3,2Q91.35,374.77,91.47,369.61Zm2.8.29c0,1.81.33,2.72,1.13,2.74q.54,0,.93-1.5a12.28,12.28,0,0,0,.43-2.91c0-2.05-.26-3.08-.93-3.1-.43,0-.8.53-1.09,1.62A13.82,13.82,0,0,0,94.27,369.9Z"/><path class="cls-10" d="M104.74,357.14c-.34,4-.55,7.69-.63,10.93s-.09,5.53,0,6.84l-2.82-.33c0-1.66,0-4,.08-7.09s.28-6.61.62-10.63Z"/><path class="cls-10" d="M107.21,363.08l2.73.33-.28,11.52-2.73-.33Zm.29-4.21,2.68.37-.3,2.68-2.68-.4Z"/><path class="cls-10" d="M116.81,367.21c0-1-.21-1.45-.69-1.46a.85.85,0,0,0-.67.33,1.43,1.43,0,0,0-.32.93,1.85,1.85,0,0,0,.21,1,2.28,2.28,0,0,0,.82.77l.94.63a8.19,8.19,0,0,1,.81.65,2.79,2.79,0,0,1,.93,2.25,2.72,2.72,0,0,1-1.07,2.17,3.51,3.51,0,0,1-2.31.78,4.05,4.05,0,0,1-2.28-.74,5.5,5.5,0,0,1-1.6-1.76l1.33-1.43q.93,1.68,2,1.71a1,1,0,0,0,.63-.19.69.69,0,0,0,.28-.56c0-.51-.35-1-1.07-1.44a6.5,6.5,0,0,1-1.82-1.49,3.34,3.34,0,0,1-.61-2.26,3.53,3.53,0,0,1,1.26-2.58,3.66,3.66,0,0,1,2.61-1.1,2.69,2.69,0,0,1,2.16,1,3.8,3.8,0,0,1,.74,2.57,7.07,7.07,0,0,1-.18,1.39l-2.18-.24A7.78,7.78,0,0,0,116.81,367.21Z"/><path class="cls-10" d="M127.11,374.88q-.19-5-.09-9.07c.07-2.74.21-5.23.45-7.46l3.18.36c-.31,2.75-.49,5.37-.55,7.89s-.07,4.36,0,5.54c.58-.07,2-.19,4.26-.37l.41,2.79c-1.2.11-2.9.31-5.1.59Z"/><path class="cls-10" d="M135.06,370.68a11.16,11.16,0,0,1,1-4.35,4.58,4.58,0,0,1,1.4-1.73,3.09,3.09,0,0,1,2-.63,3.24,3.24,0,0,1,3,1.87,7.87,7.87,0,0,1,.7,3.52A9.74,9.74,0,0,1,142,374a3.27,3.27,0,0,1-3,1.95Q134.94,375.84,135.06,370.68Zm2.81.28c-.05,1.81.33,2.72,1.13,2.74.35,0,.66-.49.92-1.5a12.28,12.28,0,0,0,.43-2.91c.06-2-.26-3.07-.93-3.09q-.64,0-1.08,1.62A13.21,13.21,0,0,0,137.87,371Z"/><path class="cls-10" d="M150,364.87a2.68,2.68,0,0,1,2.21,1.06c.86-1.19,1.69-1.78,2.51-1.76,2.22.06,3.3,1.75,3.21,5.1a59.3,59.3,0,0,1-.64,6.85l-2.78-.31c.38-3,.58-5.26.62-6.83s-.2-2.36-.71-2.37c-.22,0-.5.35-.82,1.06a8.4,8.4,0,0,0-.65,2.39c-.09,2-.19,3.78-.33,5.34l-2.8-.33c.18-2.25.29-4.11.33-5.56s-.15-2.19-.55-2.2c-.25,0-.6.43-1,1.31a12.07,12.07,0,0,0-.94,2.77c0,1.47,0,3,.11,4.57l-2.8-.34c-.13-2.26-.16-4.31-.12-6.17s.14-3.59.27-5.2l2,.19c.09.44.2,1.22.35,2.36C148.28,365.5,149.14,364.85,150,364.87Z"/><path class="cls-10" d="M165.49,365.25a2.64,2.64,0,0,1,2.21,1.06c.86-1.19,1.7-1.78,2.51-1.76q3.34.07,3.22,5.1a59.59,59.59,0,0,1-.65,6.85l-2.78-.31c.38-3,.59-5.26.63-6.83s-.2-2.36-.71-2.37c-.23,0-.5.35-.82,1.06a8.64,8.64,0,0,0-.66,2.39c-.08,2-.19,3.78-.32,5.34l-2.8-.33c.18-2.25.29-4.11.32-5.56s-.14-2.19-.54-2.2-.6.43-1,1.31a11.48,11.48,0,0,0-.95,2.77c0,1.47,0,3,.11,4.56l-2.8-.33c-.12-2.26-.16-4.31-.11-6.17s.13-3.59.27-5.2l2,.19c.09.43.21,1.22.35,2.36C163.8,365.87,164.66,365.23,165.49,365.25Z"/><path class="cls-10" d="M178.71,374.55c.61,0,1.27-.55,2-1.7l1.79,1.12a14.39,14.39,0,0,1-.91,1.33,4.34,4.34,0,0,1-1.28,1,3.68,3.68,0,0,1-1.89.46,3.19,3.19,0,0,1-2.51-1.35,5.45,5.45,0,0,1-1-3.49,12.23,12.23,0,0,1,1-4.63,4.39,4.39,0,0,1,1.42-1.8,3,3,0,0,1,1.87-.67,3.34,3.34,0,0,1,1.51.34,3.56,3.56,0,0,1,.91.69,3.37,3.37,0,0,1,.58,1.11,10.56,10.56,0,0,1,.35,1.19,11.16,11.16,0,0,1,.15,1.32c0,.77.06,1.47,0,2.09a41.52,41.52,0,0,1-5,.84,4.42,4.42,0,0,0,.3,1.54C178.26,374.35,178.47,374.55,178.71,374.55Zm.71-7.35c-.36,0-.68.33-1,1a7.89,7.89,0,0,0-.55,2.44q1.28-.24,2.22-.45C180.16,368.22,179.93,367.21,179.42,367.2Z"/><path class="cls-11" d="M106,320.06a94.55,94.55,0,0,1,9.1,5.62c.73.51,1.46,1,2.17,1.56s1.27,1,1.65.89,1-.44,1.41-1.08a22.4,22.4,0,0,0,1.28-2.23,37.6,37.6,0,0,1,15.11-15l.1.18A39.23,39.23,0,0,0,123,325.56c-.37.76-.69,1.61-1.21,2.47a6.19,6.19,0,0,1-1,1.24,3,3,0,0,1-3.56.45,9.21,9.21,0,0,1-1.24-.81c-.71-.53-1.42-1.07-2.12-1.62a92.29,92.29,0,0,1-8-7.07Z"/><line class="cls-12" x1="92.78" y1="434.76" x2="141.79" y2="436.36"/><g class="cls-9"><path class="cls-10" d="M124.35,166.27a199.69,199.69,0,0,0-3.2,23.91,217.89,217.89,0,0,0-.61,22.09L111,210.62q.12-8.43.71-16.44T113.38,179L109,184.12l-5.12-5a162.15,162.15,0,0,0,10.75-15.53Z"/><path class="cls-10" d="M150,201.37c-1.67-.13-5-.08-9.9.13L132,195.06q.14-1.73,7.81-13.32t11.86-15.56l11.76,2q-2.72,13.38-4.07,25.91l4.57.77-1.56,7.46-3.74-.27q-.6,8.19-.65,13.81l-8.57-1.35Q149.41,209.42,150,201.37Zm-7.13-8a56.7,56.7,0,0,1,7.79.07q1.2-9.43,3-17.61A190.61,190.61,0,0,0,142.87,193.33Z"/><path class="cls-10" d="M97.41,269.73q-.51,6.87-3.12,10.45t-5.9,3.33a8.06,8.06,0,0,1-3.47-1.41,12.14,12.14,0,0,1-3.46-3.32l2.44-4.45c1.46,1.31,2.59,2,3.36,2.05s1.5-.48,2.17-1.61a11.61,11.61,0,0,0,1.23-4.94q1.5-20.4,1.83-28.92L98.9,242Q98.78,251.12,97.41,269.73Zm-3.75-39.86,6.65,1.27-1.09,6.65-6.64-1.33Z"/><path class="cls-10" d="M125.05,243.24l-.82,9.45q-1,13.35-1,19.66l-5.88-1a32.48,32.48,0,0,0-.41-5.15c-2.43,3.07-4.75,4.53-7,4.36a6.66,6.66,0,0,1-5.13-2.66,9.29,9.29,0,0,1-1.52-6.43,185,185,0,0,1,2.5-18.46l6.9,1.17a167.35,167.35,0,0,0-2.33,16.91c-.15,2,.41,3.1,1.69,3.19.6.05,1.39-.72,2.37-2.29a24.63,24.63,0,0,0,2.5-5.77c0-.88.08-1.92.16-3.12s.42-4.84,1-10.94Z"/><path class="cls-10" d="M131.72,243.25l6.78,1.16-2.12,28.73L129.61,272ZM133,232.76l6.64,1.27-1.09,6.66-6.64-1.33Z"/><path class="cls-10" d="M157.09,245.18q7.91.58,6.93,13.74-.51,6.94-1.86,14.67l-6.95-1.18q1.15-6.77,1.67-13.74c.34-4.65-.14-7-1.46-7.12-.64,0-1.58,1.5-2.81,4.64a43.58,43.58,0,0,0-2.55,9.29q-.06,2.46-.17,8.89l-6.95-1.17q0-8.49.43-14.89t1.21-11.46l4.39.8c.05.33.26,1.64.61,4Q153.55,244.92,157.09,245.18Z"/></g><g class="cls-13"><path class="cls-10" d="M222.38,93.7a51.63,51.63,0,0,1-19.7,14.7,92.24,92.24,0,0,1-24,6.46A219.93,219.93,0,0,1,154,116.79c-8.21.28-16.42.44-24.63.67q-24.64.58-49.28.89c-8.22.07-16.43.18-24.65.19H52.4c-1,0-2,.06-3,.13-2,.15-4.07.33-6.1.54-4.07.44-8.15.94-12.17,1.64l.23-.13a7.57,7.57,0,0,0-1.82,2.53,9.24,9.24,0,0,0-.57,3.13,20.58,20.58,0,0,1-.37,3.3,12.21,12.21,0,0,1-1.11,3.12,12.13,12.13,0,0,0,.85-3.16,23.82,23.82,0,0,0,.11-3.28,9.71,9.71,0,0,1,.43-3.36,8.44,8.44,0,0,1,1.83-2.92l.09-.09.15,0c4-.85,8.1-1.5,12.18-2.09,2-.29,4.08-.56,6.15-.75,1-.09,2.07-.17,3.12-.22l3.07-.12c8.21-.37,16.42-.64,24.63-.94q24.63-.81,49.27-1.36L154,114c8.19-.15,16.36-.48,24.46-1.41a97.58,97.58,0,0,0,23.71-5.51A53.15,53.15,0,0,0,222.38,93.7Z"/></g></g></g></svg>