<svg id="Calque_1" data-name="Calque 1" xmlns="http://www.w3.org/2000/svg" viewBox="0 0 66.2 8.51"><defs><style>.cls-1{fill:#43aaaf;}</style></defs><title>border</title><path class="cls-1" d="M.43,4.67C4.44,8.76,6.29,10,11.3,6.29c2.82-2.11,3.86-2.39,7.15-.37A11.52,11.52,0,0,0,21,7.5C24,8.39,24.5,6.28,26.72,5c3.56-2,6.72,1.59,10.2,1.89,3.17.28,4.1-2.12,6.69-3,3.23-1.14,5.54,3.25,9,2.7C54.83,6.25,61.69,0,63.21,4.2c.64,1.8,3.54,1,2.89-.8A4.8,4.8,0,0,0,62,.14c-3.18-.59-4.56.81-7.23,2.05a7.91,7.91,0,0,1-5.48.27c-.88-.31-1.58-1.28-2.51-1.63A5.11,5.11,0,0,0,44.5.46,6.9,6.9,0,0,0,41,2.11c-2.75,1.94-4.6,1.73-7.61.45-2-.88-4.21-1.94-6.46-1.17-1.36.46-2,2-3.18,2.42-2.41,1-4.09-1.17-5.91-2.08-2.19-1.1-4.19-.69-6.21.56C10.45,3,9.46,4.3,8.21,4.9c-3,1.44-3.84-.49-5.65-2.35C1.2,1.17-.92,3.29.43,4.67Z"/></svg>