<svg id="Calque_1" data-name="Calque 1" xmlns="http://www.w3.org/2000/svg" viewBox="0 0 27.23 28.44"><defs><style>.cls-1{fill:#af1447;}.cls-2{fill:#541c1a;}</style></defs><title>bullet</title><polygon class="cls-1" points="15.08 0.05 9.43 7.28 0.64 5.37 5.74 12.96 0.72 23.23 11.08 18.41 17.95 26.98 17.52 16.11 26.11 10.91 17.77 9.09 15.08 0.05"/><path class="cls-2" d="M15.07.1,9.52,7.35l0,.06H9.4L.6,5.56l.2-.3L6,12.82l.09.12L6,13.08,1,23.37l-.43-.45,10.33-4.87.28-.13.2.24,6.94,8.51-.86.33L17,16.13l0-.3.26-.15c2.85-1.75,5.74-3.43,8.62-5.13l.13.77q-4.17-.95-8.31-1.94l-.17,0-.05-.16C16.66,6.25,16,3.21,15.07.1Zm0-.1c.91,2.92,2,5.91,3,9l-.22-.2c2.79.55,5.58,1.1,8.37,1.68l1,.22-.9.56c-2.85,1.76-5.68,3.55-8.55,5.26l.24-.44L18.44,27l.06,1.48-.92-1.16-6.81-8.62.48.12L.86,23.53,0,23.92l.42-.84L5.51,12.85v.26l-5-7.63L.21,5.07l.47.11,8.77,2-.12,0Z"/></svg>