<svg id="Calque_1" data-name="Calque 1" xmlns="http://www.w3.org/2000/svg" viewBox="0 0 643 348"><defs><style>.cls-1,.cls-17,.cls-21,.cls-8{fill:#fff;}.cls-1{opacity:0;}.cls-2{fill:#af456d;}.cls-3{fill:#23a19d;}.cls-4{fill:#a2a319;}.cls-5{fill:#f7b808;}.cls-6{fill:#f37d11;}.cls-7{fill:#541c1a;}.cls-8{opacity:0.2;}.cls-13,.cls-17,.cls-19,.cls-20,.cls-8,.cls-9{isolation:isolate;}.cls-9{opacity:0.15;}.cls-10{fill:#4c4c4c;}.cls-11{fill:#c1c1bf;}.cls-12{fill:#020202;}.cls-13{opacity:0.4;}.cls-14{fill:#43aaaf;}.cls-15{fill:#442119;}.cls-16{fill:#369696;}.cls-17{opacity:0.25;}.cls-18{fill:#373838;}.cls-19{opacity:0.3;}.cls-20,.cls-23{opacity:0.1;}.cls-22{fill:#f4e558;}.cls-24{fill:#f7981d;}.cls-25{fill:#875712;}.cls-26{fill:none;}.cls-27{opacity:0.13;}</style></defs><title>header_sml</title><rect class="cls-1" width="643" height="348"/><g id="Calque_1-2" data-name="Calque 1-2"><polygon class="cls-2" points="58.88 113 56.13 136.77 34.05 144.37 55.63 154.44 58.35 184.14 74.86 159.39 101.69 169.22 86.03 145.54 98.05 122.34 77.08 129.55 58.88 113"/><path d="M58.89,113l-2.65,23.74v.08h-.09l-22,7.73v-.36l21.63,10,.13.06v.15l2.79,29.7-.61-.16,16.43-24.78.18-.26L75,159l26.86,9.75-.57.72L85.6,145.82l-.16-.25.14-.26c4-7.74,8.06-15.44,12.1-23.16l.49.56-21,7.1-.16.06-.12-.11c-3-2.75-6-5.5-9-8.3Zm0-.09L68,121.05c3.08,2.72,6.18,5.49,9.25,8.26l-.27-.06L97.91,122l1-.33-.46.89c-4,7.75-7.9,15.53-11.93,23.25v-.5L102.08,169l.81,1.23-1.38-.51-26.8-9.91.47-.16L58.63,184.32l-.52.78-.09-.93-2.65-29.71.15.22L34,144.54l-.43-.2.45-.16,22.11-7.53-.09.1Z"/><polygon class="cls-3" points="185.19 97.69 172 117.65 148.87 114.46 163.59 133.2 152.59 160.92 178.47 146.3 197.97 167.19 194.71 138.99 215.91 123.72 193.96 120.69 185.19 97.69"/><path d="M185.15,97.74l-13.08,20v.06H172l-23.14-3.12.18-.31L163.79,133l.1.11-.06.15L152.9,161l-.47-.42L178.29,146l.27-.16.22.23,19.55,20.84-.83.39-3.28-28.2v-.29l.24-.17c7.06-5.11,14.18-10.13,21.27-15.19l.17.71-22-3.16h-.16l-.06-.16c-1.42-3.8-2.84-7.59-4.23-11.44Zm0-.1,4.48,11.4c1.53,3.82,3,7.69,4.53,11.55l-.22-.18,22,2.91,1,.14-.79.54c-7,5.12-14.06,10.29-21.14,15.36l.21-.47,3.25,28.21.17,1.47-1-1.09-19.43-21,.49.08-25.94,14.65-.83.46.34-.87,11.06-27.7v.26l-14.67-18.78-.29-.38.47.06L172,117.53h-.12Z"/><polygon class="cls-4" points="147.59 138.36 134.38 158.32 111.25 155.12 125.97 173.86 114.97 201.59 140.87 186.96 160.35 207.86 157.09 179.66 178.29 164.38 156.34 161.35 147.59 138.36"/><path d="M147.57,138.41l-13.09,20v.07h-.07l-23.14-3.13.18-.31,14.7,18.66.09.12V174l-10.93,27.75-.47-.41,25.85-14.69.28-.15.21.23,19.56,20.84-.84.38-3.28-28.2v-.29l.25-.17c7-5.11,14.17-10.13,21.25-15.19l.18.72-21.94-3.16h-.21v-.15c-1.42-3.8-2.83-7.6-4.24-11.45Zm0-.1,4.5,11.4c1.52,3.81,3,7.68,4.52,11.54l-.22-.17,22,2.91,1,.13-.81.59c-7,5.12-14.07,10.28-21.15,15.35l.2-.46,3.25,28.2.17,1.47-1-1.08L140.6,187.24l.49.07-25.94,14.57-.82.46.35-.87,11-27.7V174l-14.59-18.76-.3-.38.48.07,23.13,3.26-.13.06Z"/><polygon class="cls-5" points="110.98 86.51 97.78 106.47 74.64 103.27 89.36 122.02 78.38 149.74 104.27 135.12 123.77 156.01 120.5 127.81 141.71 112.54 119.75 109.5 110.98 86.51"/><path d="M111,86.56l-13.09,20v.06H97.8L74.66,103.5l.18-.32,14.77,18.7.09.12v.14l-11,27.72-.47-.41,25.85-14.68.28-.16.22.23,19.57,20.84-.83.39L120,127.87v-.29l.23-.18c7-5.11,14.17-10.13,21.27-15.19l.17.72-21.94-3.15h-.17v-.15c-1.43-3.8-2.84-7.6-4.24-11.45Zm0-.1,4.49,11.4c1.52,3.81,3,7.68,4.52,11.54l-.22-.17,22,2.91,1,.13-.81.59c-7,5.12-14.07,10.28-21.15,15.35l.2-.46,3.26,28.2.17,1.47-1-1.08-19.43-21,.49.07L78.53,150l-.82.46.35-.87,11.09-27.67v.26L74.49,103.39l-.34-.39.48.07,23.12,3.27h-.12Z"/><polygon class="cls-2" points="485.52 107.21 475.98 129.15 452.64 130.01 470.38 145.92 464.37 175.13 487.33 156.24 510.15 173.44 502.05 146.23 520.28 127.51 498.13 128.33 485.52 107.21"/><path d="M485.52,107.26l-9.43,21.94v.07H476l-23.33.94.12-.34,17.79,15.85.11.1V146l-5.95,29.2-.55-.33,22.94-18.94.25-.2.25.19,22.87,17.13-.76.53-8.11-27.21-.08-.28.2-.21c6.06-6.25,12.21-12.43,18.31-18.64l.3.67-22.16.7h-.17l-.08-.14c-2.06-3.5-4.11-7-6.15-10.54Zm0-.1,6.4,10.45c2.16,3.49,4.31,7,6.46,10.58l-.25-.13,22.15-.94,1-.05-.69.72c-6.06,6.27-12.07,12.57-18.17,18.79l.12-.49,8.09,27.21.42,1.42-1.17-.89-22.73-17.27h.49l-23,18.84-.72.59.19-.92,6.08-29.2.09.25-17.7-16-.36-.33h.48L476,129l-.11.07Z"/><polygon class="cls-4" points="522.54 143.81 512.68 165.61 489.33 166.12 506.85 182.29 500.39 211.41 523.63 192.86 546.2 210.4 538.5 183.07 557 164.62 534.85 165.12 522.54 143.81"/><path d="M522.55,143.86l-9.75,21.8v.07h-.08l-23.34.59.12-.34,17.55,16.12.11.1v.15l-6.38,29.13-.53-.33,23.2-18.6.24-.2.25.19L546.5,210l-.77.52L538,183.19l-.08-.28.21-.2c6.16-6.17,12.38-12.26,18.59-18.38l.28.68-22.15.37h-.17l-.08-.14c-2-3.53-4-7.05-6-10.63Zm0-.1,6.24,10.54c2.1,3.52,4.21,7.1,6.29,10.68l-.25-.14,22.16-.61h1l-.71.71c-6.14,6.17-12.25,12.38-18.44,18.51L539,183l7.69,27.33.4,1.43-1.17-.91-22.51-17.6h.5l-23.29,18.5-.73.59.2-.92,6.52-29.1.08.25L489.2,166.31l-.36-.33h.49l23.34-.45-.11.08Z"/><polygon class="cls-5" points="572.58 97.69 564.38 120.17 541.14 122.44 559.82 137.25 555.59 166.77 577.37 146.52 601.17 162.3 591.45 135.64 608.51 115.85 586.45 118.01 572.58 97.69"/><path d="M572.58,97.74l-8.08,22.47v.07h-.08l-23.27,2.36.1-.35L560,137l.12.09v.15l-4.17,29.53-.56-.29,21.77-20.3.23-.21.27.17,23.86,15.72-.71.57-9.75-26.66-.1-.28.19-.22c5.67-6.61,11.43-13.15,17.14-19.72l.35.65-22.08,2h-.16l-.09-.14c-2.29-3.36-4.54-6.72-6.79-10.14Zm0-.1,7,10c2.38,3.35,4.74,6.77,7.1,10.17l-.25-.12,22.05-2.28,1-.1-.66.76c-5.65,6.62-11.28,13.27-17,19.85l.1-.49,9.72,26.67.51,1.39-1.22-.82-23.78-15.82h.5L555.81,167l-.69.64.14-.93,4.3-29.51.09.24L541,122.6l-.38-.3h.51l23.25-2.2-.1.08Z"/><path class="cls-6" d="M403.68,35.53l6.5-4.69s-11.67,62.31,18.43,103c-28,10.09-45.51,0-45.51,0S403.68,111.76,403.68,35.53Z"/><path class="cls-7" d="M403.67,35.52l6.5-4.71.07-.06v.09c-.76,4.41-1.23,8.86-1.59,13.31s-.55,8.92-.59,13.39a172.88,172.88,0,0,0,1.76,26.71,128.6,128.6,0,0,0,6.45,26,93.66,93.66,0,0,0,12.51,23.56l.14.2-.23.08a80,80,0,0,1-11.25,3.17,66.85,66.85,0,0,1-11.62,1.34,57.77,57.77,0,0,1-11.67-.88,48.32,48.32,0,0,1-5.7-1.39,31.07,31.07,0,0,1-5.45-2.2l-.27-.14.21-.24a36.22,36.22,0,0,0,3.53-5.22c1-1.84,2-3.73,2.89-5.65A112.11,112.11,0,0,0,393.89,111c1.29-4,2.39-8.13,3.35-12.26s1.8-8.29,2.49-12.47c1.4-8.37,2.37-16.81,3-25.27S403.61,44,403.67,35.52Zm0,0c0,8.48-.15,17-.72,25.46s-1.44,17-2.8,25.34a167.71,167.71,0,0,1-5.79,24.82,108.58,108.58,0,0,1-4.56,11.91c-.89,1.94-1.85,3.84-2.91,5.69a35.4,35.4,0,0,1-3.6,5.31l-.06-.39a32.79,32.79,0,0,0,5.35,2.18,46.89,46.89,0,0,0,5.64,1.39,56.8,56.8,0,0,0,11.58.9,64.85,64.85,0,0,0,11.54-1.3,77.6,77.6,0,0,0,11.21-3.12l-.09.28A95.2,95.2,0,0,1,416,110.31a130,130,0,0,1-6.39-26,173.41,173.41,0,0,1-1.68-26.75q.09-6.72.62-13.4c.37-4.45.87-8.9,1.63-13.31h.06Z"/><circle cx="377.68" cy="36.1" r="1.08"/><path d="M374.8,44.06a1.11,1.11,0,0,0,.9.51,6.61,6.61,0,0,0,1.09,0,13.14,13.14,0,0,0,2.17-.38,26.53,26.53,0,0,0,4.19-1.43,27,27,0,0,0,3.89-2,13.79,13.79,0,0,0,1.73-1.31,5.89,5.89,0,0,0,.71-.79,1,1,0,0,0,.24-.83,1,1,0,0,0-.77-.39,4.61,4.61,0,0,0-1.05,0,13.1,13.1,0,0,0-2.14.36,35.09,35.09,0,0,0-8.13,3.2,12.31,12.31,0,0,0-1.8,1.25,6.25,6.25,0,0,0-.75.79A1.18,1.18,0,0,0,374.8,44.06Zm0,0a1.26,1.26,0,0,1,.25-1.06,5.85,5.85,0,0,1,.74-.83,15.27,15.27,0,0,1,1.74-1.38,24.65,24.65,0,0,1,3.9-2.14,26.46,26.46,0,0,1,4.22-1.41,14,14,0,0,1,2.22-.33,5.53,5.53,0,0,1,1.15,0,1.87,1.87,0,0,1,.58.18.86.86,0,0,1,.5,1.11v0h0a1.8,1.8,0,0,1-.28.53,4.42,4.42,0,0,1-.78.84A13.76,13.76,0,0,1,387.15,41a28,28,0,0,1-8.22,3.33,13.21,13.21,0,0,1-2.17.32,6.86,6.86,0,0,1-1.11,0,1.18,1.18,0,0,1-.89-.57Z"/><path d="M408.15,65.35a56.56,56.56,0,0,1,7.8.51,18.66,18.66,0,0,1,3.82.92,4.51,4.51,0,0,1,1.74,1.08,1.16,1.16,0,0,1,.26,1.14,2,2,0,0,1-.73.84,8.09,8.09,0,0,1-1.83.87,17.75,17.75,0,0,1-1.89.55,36.83,36.83,0,0,1-3.86.71,66,66,0,0,1-7.81.54,68.34,68.34,0,0,1-7.84-.33,36.29,36.29,0,0,1-3.9-.58,15.73,15.73,0,0,1-3.86-1.2,3.81,3.81,0,0,1-.94-.64,1.57,1.57,0,0,1-.42-.57,1.09,1.09,0,0,1-.11-.43,1.48,1.48,0,0,1,0-.42,2.21,2.21,0,0,1,.74-1.11,4.79,4.79,0,0,1,.92-.62,15.55,15.55,0,0,1,3.91-1.32,46.19,46.19,0,0,1,7.86-.92l-.55,1.24q-3-3.48-6-7c-2-2.34-4-4.72-5.94-7.09L386.58,48l-2.91-3.6q-2.91-3.6-5.75-7.26L378,37c2.12,2.24,4.23,4.5,6.3,6.79l3.11,3.42,3.08,3.45c2,2.31,4.09,4.61,6.1,7s4,4.68,6,7l1,1.22h-1.58a43.39,43.39,0,0,0-7.62.71,13.89,13.89,0,0,0-3.54,1.12,3.47,3.47,0,0,0-.7.45,1,1,0,0,0-.37.46v.06h0a.64.64,0,0,0,.16.2,3.26,3.26,0,0,0,.66.46,14.71,14.71,0,0,0,3.51,1.2c1.24.28,2.52.48,3.8.64a68.29,68.29,0,0,0,7.7.46,68.93,68.93,0,0,0,7.74-.38,35.09,35.09,0,0,0,3.81-.6,17.46,17.46,0,0,0,1.85-.5,7.86,7.86,0,0,0,1.71-.75,1.56,1.56,0,0,0,.56-.58.66.66,0,0,0-.18-.65,3.88,3.88,0,0,0-1.52-1,17.62,17.62,0,0,0-3.72-1,55.51,55.51,0,0,0-7.73-.69Z"/><path d="M408.86,50.07a55.43,55.43,0,0,0,7.73-.75,18.24,18.24,0,0,0,3.7-1,3.81,3.81,0,0,0,1.48-1,.58.58,0,0,0,.15-.55,1.39,1.39,0,0,0-.53-.52,7,7,0,0,0-1.68-.74c-.6-.2-1.22-.35-1.84-.49a37.94,37.94,0,0,0-3.8-.59,64.16,64.16,0,0,0-7.71-.34,65.78,65.78,0,0,0-7.69.53c-1.27.16-2.53.37-3.76.64a15.27,15.27,0,0,0-3.52,1.08,2.93,2.93,0,0,0-.63.4l-.14.15h0a1,1,0,0,0,.31.42,4,4,0,0,0,.67.47,14.75,14.75,0,0,0,3.49,1.28,55.83,55.83,0,0,0,7.62,1.27v.15a35.53,35.53,0,0,1-7.85-.37A14.44,14.44,0,0,1,391,49a5,5,0,0,1-.95-.6,2.26,2.26,0,0,1-.79-1.15,1.75,1.75,0,0,1,0-.46,1.89,1.89,0,0,1,.11-.47,2.16,2.16,0,0,1,.44-.63,4.82,4.82,0,0,1,1-.69,15.46,15.46,0,0,1,3.89-1.29c1.3-.27,2.61-.44,3.92-.58a73.71,73.71,0,0,1,7.86-.25,68.22,68.22,0,0,1,7.83.57c1.3.19,2.6.41,3.88.73.64.16,1.28.34,1.91.56a8.23,8.23,0,0,1,1.84.89,1.91,1.91,0,0,1,.77.89,1.23,1.23,0,0,1-.29,1.25,4.36,4.36,0,0,1-1.78,1.09,19.25,19.25,0,0,1-3.85.9,56.27,56.27,0,0,1-7.79.45Z"/><path d="M408.86,60.88a55.43,55.43,0,0,0,7.73-.75,18.24,18.24,0,0,0,3.7-1,4.13,4.13,0,0,0,1.48-1,.58.58,0,0,0,.15-.56,1.39,1.39,0,0,0-.53-.52,8.1,8.1,0,0,0-1.68-.74c-.6-.19-1.22-.35-1.84-.48a35.3,35.3,0,0,0-3.8-.6,66.29,66.29,0,0,0-7.71-.33,63.67,63.67,0,0,0-7.69.53c-1.27.16-2.53.36-3.76.63a16.49,16.49,0,0,0-3.52,1.08,3,3,0,0,0-.63.41l-.14.15h0a1,1,0,0,0,.31.42,3.22,3.22,0,0,0,.67.47,14.35,14.35,0,0,0,3.49,1.29,57.41,57.41,0,0,0,7.62,1.27v.15a36.14,36.14,0,0,1-7.85-.37,14.71,14.71,0,0,1-3.9-1.15,4.75,4.75,0,0,1-.95-.6,2.34,2.34,0,0,1-.79-1.14,1.75,1.75,0,0,1-.05-.46,2,2,0,0,1,.11-.48,2.54,2.54,0,0,1,.44-.63,4.82,4.82,0,0,1,1-.69,16.28,16.28,0,0,1,3.89-1.28c1.3-.27,2.61-.44,3.93-.58a70.91,70.91,0,0,1,7.85-.25,66,66,0,0,1,7.83.57c1.3.18,2.6.41,3.88.72.65.16,1.28.35,1.91.57a8.2,8.2,0,0,1,1.84.88,1.92,1.92,0,0,1,.77.9,1.21,1.21,0,0,1-.29,1.24,4.36,4.36,0,0,1-1.78,1.09,18,18,0,0,1-3.85.9,56.27,56.27,0,0,1-7.79.45Z"/><path class="cls-8" d="M417.15,137.08l-11.07,1.29S398.9,121.48,405.86,35l2.29-2.7S397.15,106.2,417.15,137.08Z"/><polygon class="cls-9" points="219.25 310.14 451.1 310.14 471.06 320.64 195.78 320.64 219.25 310.14"/><path d="M224.15,283.2h20.53l-18.14,32.44a2,2,0,0,1-1.78,1.05h-6.53Z"/><path d="M438.64,283.2H418.15l18.14,32.44a2,2,0,0,0,1.79,1.05h6.51Z"/><path class="cls-6" d="M205.85,121c22.63-3.49,150.58-14.68,250.65.06a7.44,7.44,0,0,1,6.31,6.87c6.61,92.23,2.27,143.29.34,159.59a7.39,7.39,0,0,1-6.43,6.54c-22.58,2.77-151.54,11.78-250.45,0a7.46,7.46,0,0,1-6.51-7c-4.67-85.9-1.47-141.73-.14-159.21A7.47,7.47,0,0,1,205.85,121Z"/><path class="cls-7" d="M205.84,120.92c8.89-1.28,17.84-2.11,26.78-2.9s17.89-1.43,26.85-2q26.88-1.67,53.8-2.25c35.88-.77,71.88-.17,107.62,2.88l6.71.6,6.69.7,3.35.35,3.34.41,6.69.81,6.67.92,1.68.23a9,9,0,0,1,1.69.34,7.52,7.52,0,0,1,3,1.75,7.64,7.64,0,0,1,1.92,2.89,8.13,8.13,0,0,1,.43,1.68c.08.59.1,1.14.14,1.7l.45,6.72c1.21,17.91,2.13,35.84,2.63,53.79s.59,35.91.12,53.86c-.25,9-.64,18-1.26,26.91-.32,4.48-.69,8.95-1.14,13.42l-.37,3.35a10,10,0,0,1-.31,1.72,8.72,8.72,0,0,1-.68,1.64,7.72,7.72,0,0,1-5.6,3.95c-4.49.56-8.94.94-13.42,1.33s-8.95.71-13.43,1q-13.43.93-26.88,1.6-26.9,1.37-53.83,1.86c-9,.16-18,.22-26.93.23s-18-.08-26.94-.26-18-.43-26.92-.83c-4.48-.17-9-.42-13.45-.65l-6.72-.4c-2.24-.14-4.48-.27-6.72-.45-9-.62-17.9-1.46-26.84-2.38l-6.69-.76-1.67-.19a9.13,9.13,0,0,1-1.73-.34,7.87,7.87,0,0,1-4.94-4.73,7.84,7.84,0,0,1-.45-1.71c-.07-.6-.09-1.16-.11-1.72l-.32-6.72q-1.29-26.9-1.72-53.83t.23-53.85c.23-9,.53-17.94,1-26.91.21-4.48.49-9,.8-13.44l.24-3.35a7.72,7.72,0,0,1,.94-3.24A7.44,7.44,0,0,1,205.84,120.92Zm0,.1a7.35,7.35,0,0,0-5.27,3.72c-1.14,2-.92,4.33-1.14,6.54-.29,4.48-.56,9-.78,13.44q-.63,13.44-.91,26.9c-.36,17.95-.31,35.9,0,53.84s1,35.88,2,53.8l.41,6.74a9,9,0,0,0,.11,1.64,7.47,7.47,0,0,0,.42,1.54,7,7,0,0,0,4.46,4.21,8.32,8.32,0,0,0,1.58.3l1.67.18,6.69.73c8.92.88,17.86,1.68,26.81,2.26,35.79,2.46,71.7,3,107.59,2.36q26.91-.45,53.79-1.76,13.44-.65,26.87-1.55,6.72-.45,13.43-1c4.45-.38,8.95-.75,13.36-1.3a7,7,0,0,0,5.64-5,9.43,9.43,0,0,0,.27-1.59l.37-3.34c.47-4.46.84-8.92,1.16-13.4.65-8.94,1-17.9,1.3-26.87.5-17.93.44-35.88,0-53.82s-1.37-35.87-2.55-53.77l-.44-6.72a11.49,11.49,0,0,0-.13-1.66,7.15,7.15,0,0,0-4.94-5.87,9.44,9.44,0,0,0-1.6-.32l-1.67-.23-6.66-.93-6.68-.82-3.34-.41-3.34-.35-6.69-.71-6.71-.61c-35.83-3.19-71.77-3.88-107.65-3.19q-26.91.56-53.8,2.2-13.41.83-26.85,2c-8.94.73-17.88,1.55-26.76,2.8Z"/><path class="cls-10" d="M210.15,289.57c21.9,3.33,145.59,14,242.42-.05a7.13,7.13,0,0,0,6.08-6.52c6.4-87.81,2.19-136.43.33-151.94a7.12,7.12,0,0,0-6.23-6.24c-21.84-2.63-146.5-11.21-242.21,0a7.14,7.14,0,0,0-6.3,6.69c-4.52,81.79-1.42,134.94-.14,151.59A7.13,7.13,0,0,0,210.15,289.57Z"/><path d="M210.15,289.55c8.54,1.2,17.14,2,25.73,2.71,4.3.36,8.59.72,12.9,1s8.6.62,12.91.86c8.61.55,17.22.93,25.85,1.32l12.92.46c2.16.08,4.31.13,6.47.17l6.47.15,6.46.13c2.16,0,4.32,0,6.47.06l12.94.09,12.94-.12c2.15,0,4.31,0,6.47-.08l6.46-.17c4.31-.13,8.63-.21,12.94-.38l12.93-.61,3.23-.15c1.08-.05,2.15-.1,3.23-.19l6.45-.45,6.45-.46,3.23-.22,1.61-.12,1.61-.15c8.58-.87,17.19-1.54,25.73-2.75l6.41-.82,3.21-.41a8.5,8.5,0,0,0,1.56-.33,8,8,0,0,0,1.43-.66,7,7,0,0,0,3.33-5.15c.17-2.13.29-4.29.44-6.44,1.19-17.21,2.08-34.44,2.56-51.69s.56-34.49.09-51.74c-.25-8.62-.63-17.23-1.25-25.83q-.46-6.45-1.12-12.89l-.36-3.21a10.19,10.19,0,0,0-.28-1.56,7.59,7.59,0,0,0-.61-1.44,7,7,0,0,0-5-3.45c-8.55-1-17.17-1.59-25.77-2.18-4.3-.29-8.61-.58-12.91-.81s-8.61-.5-12.92-.69c-8.61-.44-17.23-.75-25.85-1.07l-12.94-.36-3.23-.1h-3.19l-6.47-.12c-8.61-.2-17.25-.18-25.86-.25l-12.95.09h-6.51l-6.46.13L285,120l-12.93.48c-2.15.09-4.31.14-6.46.26l-6.46.36c-4.3.25-8.61.45-12.91.75-8.6.68-17.21,1.21-25.78,2.17l-6.43.66-3.22.32a6.91,6.91,0,0,0-6.27,6.05c-.16,2.13-.24,4.3-.36,6.45q-1.35,25.83-1.89,51.71t0,51.75c.19,8.62.47,17.25.9,25.86.2,4.31.46,8.61.74,12.92l.27,3.26a7.1,7.1,0,0,0,6,6.62Zm0,.05a7.22,7.22,0,0,1-6.08-6.66l-.24-3.23c-.29-4.3-.56-8.61-.77-12.91-.44-8.62-.74-17.24-1-25.87q-.57-25.86-.11-51.75t1.77-51.73c.12-2.16.19-4.3.34-6.48a7.37,7.37,0,0,1,6.63-6.42l3.22-.34,6.44-.66c8.57-1,17.19-1.54,25.79-2.24,4.3-.29,8.61-.49,12.92-.74l6.46-.36c2.15-.12,4.31-.17,6.46-.26l12.94-.47,12.94-.28,6.47-.13h6.47l12.94-.08c8.62.08,17.25.06,25.88.27l6.47.11,3.24.06,3.24.1,12.92.37c8.62.32,17.24.64,25.87,1.08,4.31.19,8.62.45,12.92.7s8.61.52,12.92.81c8.61.6,17.21,1.2,25.8,2.2a7.36,7.36,0,0,1,5.28,3.65,8.53,8.53,0,0,1,.64,1.53,9.84,9.84,0,0,1,.3,1.62l.36,3.22c.44,4.29.79,8.59,1.1,12.9.61,8.61,1,17.23,1.24,25.85.45,17.25.37,34.52-.13,51.76s-1.4,34.49-2.59,51.7c-.16,2.15-.28,4.3-.46,6.46a7.3,7.3,0,0,1-3.46,5.35,8.72,8.72,0,0,1-1.49.69,9,9,0,0,1-1.61.33l-3.21.41-6.42.82c-8.54,1.2-17.15,1.87-25.74,2.73l-1.61.15-1.61.11-3.23.23-6.45.44-6.46.45c-1.07.08-2.15.13-3.23.18l-3.23.15-12.94.58c-4.31.16-8.62.23-12.93.36l-6.47.16c-2.16,0-4.31,0-6.47.07l-12.94.1-12.94-.1c-2.16,0-4.31,0-6.47-.07l-6.47-.15-6.46-.14c-2.16-.05-4.32-.1-6.47-.18l-12.92-.46c-8.62-.4-17.24-.79-25.86-1.35-4.3-.23-8.61-.55-12.91-.86s-8.6-.65-12.9-1c-8.57-.81-17.16-1.58-25.69-2.79Z"/><rect x="255.51" y="216.87" width="3.07" height="62.26" rx="1.53" ry="1.53"/><rect x="248.9" y="216.87" width="3.07" height="62.26" rx="1.53" ry="1.53"/><rect x="242.3" y="216.87" width="3.07" height="62.26" rx="1.53" ry="1.53"/><rect x="235.69" y="216.87" width="3.07" height="62.26" rx="1.53" ry="1.53"/><rect x="229.09" y="216.87" width="3.07" height="62.26" rx="1.53" ry="1.53"/><rect x="222.48" y="216.87" width="3.07" height="62.26" rx="1.53" ry="1.53"/><rect x="215.87" y="216.87" width="3.07" height="62.26" rx="1.53" ry="1.53"/><path class="cls-11" d="M259.55,136.8s2.54,48.29-.51,62c-18.3,2-44.22,0-44.22,0a538.82,538.82,0,0,1,0-62C245.32,133.24,259.55,136.8,259.55,136.8Z"/><path class="cls-12" d="M259.59,136.77c.06.69.09,1.31.14,2l.11,1.94.22,3.88c.14,2.58.28,5.17.38,7.76.2,5.17.37,10.34.47,15.52s.09,10.36,0,15.55l-.14,3.89c0,1.29-.14,2.59-.22,3.88s-.25,2.6-.38,3.89a8.27,8.27,0,0,1-.11,1l-.16,1-.35,1.92-.06.36h-.34a195.11,195.11,0,0,1-22.16.87c-3.7,0-7.39-.15-11.08-.32s-7.38-.37-11.07-.65h-.35v-.35c-.3-5.17-.49-10.34-.63-15.51s-.19-10.35-.18-15.52.08-10.35.25-15.52.42-10.34.75-15.5v-.19h.17l5.59-.57c1.86-.15,3.73-.31,5.6-.44,3.73-.23,7.47-.43,11.22-.46s7.5,0,11.22.25l2.81.21c.92.1,1.86.17,2.8.29s1.85.23,2.78.37l1.38.24C258.7,136.61,259.15,136.68,259.59,136.77Zm-.08.06-1.35-.25-1.38-.23c-.93-.13-1.85-.25-2.78-.35l-2.79-.27-2.8-.18c-3.73-.21-7.47-.23-11.21-.16s-7.47.28-11.2.54c-1.86.14-3.72.32-5.58.48l-5.58.61.2-.21c-.28,5.16-.54,10.33-.65,15.49s-.18,10.34-.15,15.51.11,10.33.27,15.5.39,10.33.72,15.48l-.37-.38c3.67.25,7.35.43,11,.57s7.36.21,11,.24,7.36,0,11-.15,7.35-.37,11-.76l-.44.39.33-1.88.16-.95c0-.31.07-.63.11-1,.12-1.28.3-2.55.36-3.84s.21-2.57.26-3.86l.17-3.87c.17-5.17.21-10.34.19-15.51s-.08-10.35-.2-15.52l-.18-7.76Z"/><circle class="cls-13" cx="236.21" cy="154.99" r="11.07"/><circle class="cls-13" cx="236.21" cy="183.68" r="11.07"/><circle class="cls-14" cx="237.73" cy="152.95" r="11.07"/><path class="cls-15" d="M248.83,153a11.34,11.34,0,0,1-3.17,7.93,11.15,11.15,0,0,1-15.78.25,11.34,11.34,0,0,1-2.53-3.7,11.48,11.48,0,0,1-.89-4.48,11.19,11.19,0,0,1,22.37,0Zm-.05,0a11,11,0,1,0-11.17,10.82h.17a11,11,0,0,0,7.74-3.09,10.8,10.8,0,0,0,3.31-7.73Z"/><circle class="cls-14" cx="237.73" cy="181.64" r="11.07"/><path class="cls-15" d="M248.83,181.64a11.34,11.34,0,0,1-3.17,7.93,11.15,11.15,0,0,1-15.78.25,11.34,11.34,0,0,1-2.53-3.7,11.48,11.48,0,0,1-.89-4.48,11.19,11.19,0,0,1,22.37,0Zm-.05,0a10.94,10.94,0,0,0-10.94-10.94h-.06a10.88,10.88,0,0,0,0,21.76,11,11,0,0,0,7.74-3.09,10.8,10.8,0,0,0,3.31-7.73Z"/><path class="cls-16" d="M277.42,133.3c18.31-2.79,86.77-6.16,167.9,0a5.82,5.82,0,0,1,5.12,5.49c5.36,73.6,1.84,119.44.28,132.45-.33,2.73-2.48,7.94-5.22,8.27-18.35,2.25-87.35,11.38-169.24,3.68-2.9-.27-3.78-2.26-3.77-5.17.21-69-1.19-125.31-.12-139.27A6,6,0,0,1,277.42,133.3Z"/><path d="M342.73,286.49c-20.49,0-42.93-.83-66.49-3-3.61-.34-4-3.26-4-5.43.1-30.8-.13-59.27-.31-82.16-.23-28.67-.4-49.39.2-57.13a6.17,6.17,0,0,1,5.27-5.68c19.53-3,88.84-6,168,0a6,6,0,0,1,5.35,5.72c5.94,81.55.88,127.52.28,132.5-.33,2.77-2.5,8.14-5.44,8.49l-2.33.29A808.42,808.42,0,0,1,342.73,286.49ZM277.42,133.3v.25a5.71,5.71,0,0,0-4.85,5.22c-.59,7.72-.42,28.43-.19,57.09.18,22.88.41,51.36.31,82.17,0,3.16,1.08,4.68,3.54,4.91,78.69,7.4,145.06-.7,166.87-3.36l2.33-.28c2.53-.31,4.67-5.39,5-8.05.6-5,5.66-50.9-.28-132.41a5.5,5.5,0,0,0-4.88-5.24c-79.08-6-148.34-3-167.84,0Z"/><path d="M274.73,136.44a2.25,2.25,0,0,1,2.17-2.18s55.94-3.56,83.05-3.56,86.5,5.59,86.5,5.59a2.2,2.2,0,0,0,1.1-.29h0c1.4-.81,1.53-1.74,1-3.77,0,0-1.38-.22-1.87-.28-86.07-10.38-158.07-2.5-173.5-1.85a2.17,2.17,0,0,0-2.08,2.11c-.37,12.7-2.17,83.15.51,152.73.06-.22,3.57-1.74,3.61-2.25C275.23,282.69,270.67,189.45,274.73,136.44Z"/><path d="M470.93,266.42"/><path class="cls-17" d="M447.55,279.13c-69.63,9.66-138.76,8.13-172.32,3.56l-3.55,2c80,8.34,171.62-1.57,177.9-2.54C448.58,276.59,450.09,282.69,447.55,279.13Z"/><path class="cls-18" d="M449.58,132.23l-2,4.06s7.62,84.51,0,142.84c1.53,5.08,2,2,2,2C453,271.94,457,175.66,449.58,132.23Z"/><path class="cls-19" d="M214.76,136.57s26.8-3.45,44.8.23a20.71,20.71,0,0,1,.14,3.15s-19.49-5.56-45-.48A18.71,18.71,0,0,1,214.76,136.57Z"/><circle class="cls-20" cx="363.07" cy="213.16" r="65.97"/><circle class="cls-14" cx="362.46" cy="209.5" r="64.86"/><path class="cls-21" d="M362.46,274.87a65.37,65.37,0,1,1,65.37-65.37h0A65.43,65.43,0,0,1,362.46,274.87Zm0-129.72a64.36,64.36,0,1,0,64.36,64.37h0A64.44,64.44,0,0,0,362.46,145.15Z"/><polygon class="cls-22" points="299.9 183.42 313.69 238.86 424.56 203.01 420.25 162.84 299.9 183.42"/><g class="cls-23"><polygon points="341.48 186.57 341.31 189.85 333.37 190.76 333.82 207.89 342.35 208.32 342.15 212.25 333.63 211.82 333.69 223.66 341.56 224.06 341.43 226.69 329.51 228.06 329.67 185.97 341.48 186.57"/><polygon points="385.56 186.16 385.39 189.44 377.45 190.36 377.9 207.48 386.44 207.91 386.24 211.85 377.7 211.42 377.76 223.26 385.64 223.66 385.5 226.28 373.6 227.65 373.75 185.57 385.56 186.16"/><polyline points="359.13 227.58 359.29 185.49 371.1 186.09 370.93 189.37 363 190.28 363.44 207.41 371.96 207.84 371.77 211.78 363.25 211.34 363.11 227.12"/><path d="M397.65,207.16l3.31-.49-.41-17.78s-1.71-5.34-7-4.95-5.57,6.29-5.57,6.29-.8,15.75.45,17.13c1.87,2.06,8.86,7,9.41,9S400.59,227,396,227.45s-4.4-4.17-4.4-4.17l-.22-8.56-4,.45,1.37,11.91s2.43,4.07,7,3.65,5.58-6.3,5.58-6.3,1-7.18-.78-10.56c-1.15-3.35-7.61-5.65-8.18-7.65s-1.19-15.84-1.19-15.84.83-3.25,2.8-3.15a4.48,4.48,0,0,1,3.17,2.13Z"/><path d="M323.24,179.59c-3.48-2.54-12.79-3.8-12.79-3.8l1.5,56s12.35-1.73,14-4.8S326.73,182.13,323.24,179.59Zm-1,44c-.92,2.66-7.73,4.35-7.73,4.35v-48s5.1.93,7,3.06,1.6,38,.7,40.62Z"/><polygon points="352.3 191.12 356.23 191.32 351.3 223.61 348.64 224 339.73 192.57 344.35 192.28 352.45 214.06 352.3 191.12"/><polygon points="416.2 178.5 416.69 181.81 408.79 182.07 408.31 230.72 404.37 230.52 405.5 181.91 398.32 180.89 398.49 177.61 416.2 178.5"/></g><polygon class="cls-24" points="341.48 183.8 341.31 187.08 333.37 188 333.82 205.12 342.35 205.55 342.15 209.49 333.63 209.06 333.69 220.9 341.56 221.3 341.43 223.92 329.51 225.29 329.67 183.21 341.48 183.8"/><path class="cls-25" d="M329,225.86l.14-43.19,12.86.65-.21,4.22-7.91.91.43,16.19,8.57.43-.25,5-8.5-.43v10.83l7.9.39-.18,3.57Zm1.14-42.12-.14,41,10.91-1.26.09-1.68-7.86-.4V208.52l8.55.43.15-2.92-8.49-.43-.48-18,8-.92.12-2.35Z"/><polygon class="cls-24" points="385.56 183.4 385.39 186.68 377.45 187.59 377.9 204.72 386.44 205.15 386.24 209.08 377.7 208.65 377.76 220.49 385.64 220.89 385.5 223.51 373.6 224.89 373.75 182.8 385.56 183.4"/><path class="cls-25" d="M373.09,225.46l.15-43.19,12.85.65-.2,4.21L378,188l.42,16.19,8.56.43-.25,5-8.5-.43.06,10.82,7.9.4L386,224Zm1.17-42.12-.15,41L385,223.08l.08-1.69-7.84-.39-.11-12.88,8.56.43.15-2.92-8.49-.43-.48-18.06,8-.92.12-2.34Z"/><polyline class="cls-24" points="359.13 224.81 359.29 182.73 371.1 183.32 370.93 186.6 363 187.52 363.44 204.64 371.96 205.07 371.77 209.01 363.25 208.58 363.11 224.36"/><polygon class="cls-25" points="359.64 224.82 358.63 224.81 358.79 182.19 371.63 182.84 371.42 187.06 363.51 187.97 363.94 204.16 372.5 204.59 372.25 209.54 363.75 209.11 363.62 224.36 362.6 224.35 362.74 208.04 371.29 208.48 371.44 205.56 362.94 205.13 362.48 187.07 370.44 186.15 370.56 183.81 359.8 183.26 359.64 224.82"/><path class="cls-24" d="M397.65,204.4l3.31-.49-.41-17.78s-1.71-5.35-7-5-5.57,6.3-5.57,6.3-.8,15.74.45,17.12c1.87,2.07,8.86,7,9.41,9s2.75,10.67-1.87,11.09-4.4-4.17-4.4-4.17l-.21-8.47-4,.46,1.37,11.91s2.42,4.07,7,3.64,5.57-6.29,5.57-6.29,1-7.19-.78-10.57c-1.15-3.34-7.6-5.64-8.17-7.64s-1.2-15.85-1.2-15.85.83-3.25,2.8-3.15a4.52,4.52,0,0,1,3.17,2.14Z"/><path class="cls-25" d="M395.15,228.52a8.46,8.46,0,0,1-6.81-3.92l0-.1L386.83,212l5-.58.24,9.12a4.14,4.14,0,0,0,1,2.91,3.36,3.36,0,0,0,2.79.76,2.11,2.11,0,0,0,1.68-1c1.59-2.29.21-7.84-.25-9.49-.31-1.12-3.44-3.73-5.72-5.64A43,43,0,0,1,388,204.9c-1.28-1.42-.76-13.75-.57-17.49,0-.06.39-6.36,6-6.78s7.49,5.26,7.52,5.31v.15l.42,18.22-4.25.69-.42-18.21A4,4,0,0,0,394,185H394c-1.35,0-2.07,2.28-2.2,2.7.22,4.79.73,14.12,1.15,15.65.2.7,1.64,1.67,3,2.61,2.06,1.39,4.4,3,5.11,5,1.83,3.5.86,10.54.81,10.84s-1.07,6.27-6,6.73Zm-5.88-4.36a7.23,7.23,0,0,0,6.52,3.31c4.17-.38,5.11-5.81,5.13-5.87s1-7-.74-10.24v-.07c-.59-1.71-2.79-3.19-4.73-4.49-1.69-1.14-3.15-2.12-3.44-3.19-.57-2-1.17-15.39-1.2-16v-.14c0-.15.94-3.66,3.31-3.53a5,5,0,0,1,3.59,2.38l.07.11v.14l.4,17.2,2.3-.34-.4-17.25c-.21-.61-1.89-4.88-6.44-4.54-4.76.35-5.1,5.59-5.11,5.81-.38,7.6-.37,15.94.32,16.76a42.18,42.18,0,0,0,3.47,3.08c3.31,2.77,5.68,4.83,6.05,6.15.63,2.25,1.89,7.76.11,10.34a3.12,3.12,0,0,1-2.43,1.39,4.37,4.37,0,0,1-3.6-1,5.11,5.11,0,0,1-1.34-3.65l-.22-8-2.91.34Z"/><path class="cls-24" d="M323.24,176.82c-3.48-2.53-12.79-3.79-12.79-3.79l1.5,56s12.35-1.74,14-4.81S326.73,179.36,323.24,176.82Zm-1,44c-.92,2.66-7.73,4.34-7.73,4.34v-48s5.1.94,7,3.06,1.6,38,.7,40.64Z"/><path class="cls-25" d="M311.45,229.59l-1.53-57.15.59.08c.39.06,9.48,1.31,13,3.89h0c2.25,1.65,3.12,15.67,3.44,23.88.4,10.5.28,22.4-.63,24.15-1.67,3.21-13,4.89-14.33,5.07Zm-.48-56,1.47,54.8c3.7-.57,11.86-2.25,13-4.45.63-1.21,1-11.21.52-23.64-.57-14.85-1.93-22.3-3-23.1h0c-2.81-2-9.9-3.26-12-3.58Zm3,52.23V176.53l.6.11c.22,0,5.3,1,7.26,3.22,1.24,1.4,1.49,13.41,1.54,20.45,0,9-.2,19.18-.72,20.68-1,2.84-7.36,4.5-8.1,4.68Zm1.07-48L315,224.56c2.12-.61,6.13-2.08,6.75-3.85h0c1-2.84,1-38.24-.62-40.12-1.33-1.59-4.67-2.48-6-2.79Z"/><polygon class="cls-24" points="352.3 188.35 356.23 188.55 353.14 220.84 350.5 221.23 339.73 189.8 344.35 189.51 350.93 207.66 352.3 188.35"/><path class="cls-25" d="M350.15,221.8,339,189.34l5.66-.36,5.89,16.25,1.24-17.41,5,.25-3.17,33.22Zm-9.73-31.53,10.42,30.4,1.84-.27,3-31.37-2.91-.15-1.51,21.2-7.26-20Z"/><polygon class="cls-24" points="416.2 175.74 416.69 179.05 408.79 179.31 408.31 227.96 404.37 227.76 405.5 179.14 398.32 178.12 398.49 174.84 416.2 175.74"/><path class="cls-25" d="M408.8,228.49l-5-.25L405,179.58l-7.19-1,.2-4.25,18.65.94.63,4.29-8,.26Zm-3.92-1.22,2.92.15.49-48.6,7.82-.26-.34-2.34L399,175.38l-.12,2.3,7.17,1Z"/><path class="cls-21" d="M343,259.93l.94-1.72a2,2,0,0,1,2.5.58c.3.22.49.57.77.8a3.22,3.22,0,0,0,1.47.72c1.38.24,2.59-.63,3.67-1.33s1.9-1.3,3.18-.94c1,.3,1.68,1.21,2.68,1.6,1.32.52,2.16,0,3.23-.7a3.49,3.49,0,0,1,3.89-.42,14.66,14.66,0,0,0,2.76,1c1.82.32,2.72-.64,4.26-1.34,2.24-1,3.3,1.32,5.4,1.38,1.47,0,5.73-3.26,6.4-1.17.29.93,1.77.53,1.47-.41a2.81,2.81,0,0,0-3.42-1.79,12.27,12.27,0,0,0-2.84,1.33c-2.47,1.07-3-.5-4.82-1.1a3.11,3.11,0,0,0-2,0c-1.86.62-2.78,2-4.94,1.4-2-.53-3.72-2-5.84-1-1.37.65-2,1.79-3.78.89-.88-.45-1.48-1.2-2.52-1.36-2-.3-3.35,1.28-5,2.07-2.39,1.12-3.39-2.38-6-2a3.5,3.5,0,0,0-3,3.5.77.77,0,0,0,.85.68.79.79,0,0,0,.68-.68Z"/><polyline class="cls-22" points="355.06 242.72 355.08 247.85 358.5 248.02 358.44 249.16 353.27 249.75 353.35 231.53 354.96 231.6"/><polyline class="cls-22" points="361.98 242.72 362 247.85 365.4 248.02 365.35 249.16 360.19 249.75 360.25 231.53 361.88 231.6"/><polyline class="cls-22" points="367.64 242.72 367.67 247.85 371.07 248.02 371.01 249.16 365.87 249.75 365.93 231.53 367.55 231.6"/><line class="cls-26" x1="354.96" y1="231.6" x2="355.08" y2="242.71"/><polygon class="cls-22" points="356.77 233.76 356.77 245.21 358.48 245.21 358.7 233.76 356.77 233.76"/><polygon class="cls-22" points="373.57 231.85 373.52 232.93 370.9 233.24 371.05 238.89 373.87 239.03 373.8 240.33 370.99 240.19 371 244.1 373.61 244.23 373.56 245.1 369.63 245.55 369.68 231.66 373.57 231.85"/><path class="cls-21" d="M329.26,168.45a4.18,4.18,0,0,0,0-1,1,1,0,0,0-.36-.63.73.73,0,0,0-1,.09,1.28,1.28,0,0,0-.11.2,1.35,1.35,0,0,0-.08.84,1.78,1.78,0,0,0,1.26,1.3c.74.3,1.25.53,1.52.67a2.71,2.71,0,0,1,.6.42,2.62,2.62,0,0,1,.61,1.18,2.26,2.26,0,0,1-.43,1.91,2.49,2.49,0,0,1-1.56,1,2.33,2.33,0,0,1-2-.59,8.67,8.67,0,0,1-1.32-1.51l1.09-.8a4.87,4.87,0,0,0,.95,1.12,1.21,1.21,0,0,0,1,.34.79.79,0,0,0,.52-.3.71.71,0,0,0,.13-.64,1.1,1.1,0,0,0-.44-.69,4.63,4.63,0,0,0-1-.55c-.39-.18-.7-.32-.92-.44a8.35,8.35,0,0,1-.74-.47,2.5,2.5,0,0,1-1-1.65,2.46,2.46,0,0,1,.41-1.95,2.52,2.52,0,0,1,1.66-1.07,2.32,2.32,0,0,1,1.9.47,2.56,2.56,0,0,1,1,1.52,3.21,3.21,0,0,1,0,1.51Z"/><path class="cls-21" d="M332.68,167.93a1.7,1.7,0,0,1,1.24-.93,1.36,1.36,0,0,1,1.37.47,4,4,0,0,1,.76,1.91c.16.85.33,2,.52,3.57l-1.06.11-.17-.38a2.33,2.33,0,0,1-1.12.56,1.41,1.41,0,0,1-1.07-.24,1.68,1.68,0,0,1-.26-2.35h0l.16-.17a3.18,3.18,0,0,1,1.61-.89l-.06-.33c-.12-.65-.34-.95-.65-.89s-.28.17-.37.41a2.73,2.73,0,0,0-.13.8l-1.16.1A3.9,3.9,0,0,1,332.68,167.93Zm1.14,3.85c0,.26.23.36.54.31a2,2,0,0,0,.65-.28l-.18-1a1.66,1.66,0,0,0-.82.45A.68.68,0,0,0,333.82,171.78Z"/><path class="cls-21" d="M336.65,164.31l1.43-.1.13,1.4-1.42.09Zm.31,2.19,1.43-.13,1.11,5.93-1.43.13Z"/><path class="cls-21" d="M342.33,167.57c-.09-.5-.26-.72-.51-.68a.5.5,0,0,0-.3.25.65.65,0,0,0-.07.51.93.93,0,0,0,.2.48,1.29,1.29,0,0,0,.52.3l.54.22c.13.06.3.14.49.25a1.45,1.45,0,0,1,.72,1,1.39,1.39,0,0,1-.32,1.22,1.8,1.8,0,0,1-1.09.66,2.23,2.23,0,0,1-1.25-.13,3,3,0,0,1-1-.73l.53-.88c.43.51.83.73,1.19.66a.4.4,0,0,0,.3-.17.33.33,0,0,0,.09-.31c0-.26-.29-.47-.71-.62a3.78,3.78,0,0,1-1.09-.57,1.75,1.75,0,0,1-.56-1.09,1.9,1.9,0,0,1,.37-1.46,2,2,0,0,1,1.21-.85,1.48,1.48,0,0,1,1.22.28,2,2,0,0,1,.66,1.24,4.49,4.49,0,0,1,.06.73l-1.15.11C342.37,167.85,342.35,167.71,342.33,167.57Z"/><path class="cls-21" d="M344.27,168.81a5.9,5.9,0,0,1,.05-2.33,2.36,2.36,0,0,1,.53-1,1.76,1.76,0,0,1,2.68.09,3.93,3.93,0,0,1,.74,1.73,5,5,0,0,1-.1,2.49,1.69,1.69,0,0,1-1.34,1.33C345.45,171.34,344.61,170.58,344.27,168.81Zm1.46-.16c.18.93.47,1.36.88,1.28.18,0,.29-.32.31-.87a6,6,0,0,0-.09-1.53c-.2-1.05-.47-1.55-.82-1.48s-.34.35-.38.94A7.68,7.68,0,0,0,345.73,168.65Z"/><path class="cls-21" d="M351,163.88c1.08-.2,1.79.6,2.14,2.41.18,1,.32,2,.4,3.07l-1.47.14a25.25,25.25,0,0,0-.4-2.88c-.17-1-.41-1.41-.67-1.36s-.24.39-.33,1.09a9.55,9.55,0,0,0,0,2c.08.33.24.93.44,1.81l-1.47.13c-.31-1.14-.54-2.16-.7-3s-.3-1.67-.37-2.38l.94-.07c0,.06.14.31.32.76C350.15,164.54,350.55,164,351,163.88Z"/><path class="cls-21" d="M357.86,160.72a3.49,3.49,0,0,1,1.29-.49,1.85,1.85,0,0,1,2.21,1.41l0,.16c.1.61-.25,1.33-1.08,2.18a2,2,0,0,1,1.56,1.5,2.26,2.26,0,0,1-.48,2,2.62,2.62,0,0,1-1.5,1,4.48,4.48,0,0,1-1.55,0l-.48-1.32a3.31,3.31,0,0,0,1.09-.06,2.29,2.29,0,0,0,1.07-.49.74.74,0,0,0,.3-1,1,1,0,0,0-.34-.31,1.22,1.22,0,0,0-.84-.1,3.52,3.52,0,0,0-1,.36l-.65-1.19a8.24,8.24,0,0,0,1.82-1.29c.4-.42.58-.75.53-1a.44.44,0,0,0-.49-.37l-.07,0a3.36,3.36,0,0,0-1.6,1.09l-1-1A6.84,6.84,0,0,1,357.86,160.72Z"/><rect class="cls-21" x="378.86" y="141.73" width="0.51" height="21.18" transform="translate(-2.47 6.31) rotate(-0.95)"/><rect class="cls-21" x="378.93" y="141.96" width="0.51" height="21.21" transform="translate(-27.66 191.76) rotate(-27.42)"/><rect class="cls-21" x="369.3" y="151.9" width="21.11" height="0.51" transform="translate(58.96 406.05) rotate(-60.18)"/><rect class="cls-21" x="379.62" y="144" width="0.51" height="17.7" transform="translate(173.36 506.43) rotate(-81.63)"/><g class="cls-27"><path class="cls-21" d="M415.09,134.92c-7.6,43.2-77.27,91.13-106.88,104.05,49.22-21,109.42-42.1,117.84-104-2.81-.33-14.48-.66-17.29-1"/></g><path class="cls-8" d="M234.38,143.92s7-1,9.77,2.55a10.68,10.68,0,0,1,2.29,7.25s-1.3-4.88-4.43-6.79A31.58,31.58,0,0,0,234.38,143.92Z"/><path class="cls-8" d="M234.38,172.75s7-1,9.77,2.55a10.68,10.68,0,0,1,2.29,7.25s-1.3-4.88-4.43-6.79A31.58,31.58,0,0,0,234.38,172.75Z"/></g></svg>