<svg id="Calque_1" data-name="Calque 1" xmlns="http://www.w3.org/2000/svg" viewBox="0 0 276.29 230.95"><defs><style>.cls-1{opacity:0.2;}.cls-1,.cls-5{isolation:isolate;}.cls-2{fill:#7ac3dd;}.cls-3{fill:#541c1a;}.cls-4{fill:#f2ede9;}.cls-5{opacity:0.24;}</style></defs><title>hifi</title><g id="Calque_1-2" data-name="Calque 1"><path class="cls-1" d="M48.35,98.83C-20.51,122.09-14,214.42,59.69,229.5c44.52,9.11,115.48-26.87,151-49.4C240,161.46,307,113.69,260,87.25c-31.39-17.67-79.18,5.07-112,9.44C115.43,101,79.68,98.69,48.35,98.83Z"/><rect class="cls-2" x="136.8" y="0.18" width="12.86" height="93.11"/><path class="cls-3" d="M149.59.25,136.8.35,137,.18l.62,93.11-.8-.8,12.86-.14-.94.94q-.14-15.3-.1-30.58c0-10.2,0-20.38.16-30.61s.17-20.46.34-30.78Zm.14-.14.47.48c.17,10.2.21,20.5.33,30.78s.11,20.63.16,30.94,0,20.67-.1,31v1h-.92l-12.86-.14H136v-.79L136.62.18V0h.17Z"/><path class="cls-4" d="M21.23,119.85c-7.37,10.05-10.67,22.59-11.44,35-.69,10.88.64,22.32,6.63,31.42,8.26,12.57,19.42,20.25,33.66,25.13,10.46,3.59,25.54,5.21,36.47,3.49,9.57-1.51,18.08-7,27.54-9.13,5.19-1.18,10.56-1.31,15.85-2,16.56-2.12,31.94-9.46,46.92-16.84,30-14.77,60.56-30.77,82-56.4,5.15-6.15,9.93-13.56,9.2-21.55C266.84,95.82,252,88.79,239,86.18a146.08,146.08,0,0,0-29.2-2.86c-25.4.06-50.27,6.72-75.4,10.45C100.15,98.88,44.76,87.63,21.23,119.85Z"/><path class="cls-2" d="M259.94,80.54c-31.39-17.67-79.18,5.07-112,9.45-32.46,4.32-68.21,2-99.54,2.13-68.86,23.26-62.34,115.59,11.34,130.67a68,68,0,0,0,8.4,1.21c44.62,3.58,109.2-29.42,142.5-50.58C240,154.75,306.86,107,259.94,80.54Zm-59,88.67C169.63,187.05,34.66,230.9,67.65,208.32c43.64-29.87,43.64-77-10-103.44,27.67-.11,59.24,1.73,87.91-1.69,29-3.47,71.23-21.47,98.95-7.48,41.46,20.93-17.65,58.74-43.56,73.5Z"/><path class="cls-3" d="M259.91,80.58C252.1,76.17,243.1,74.31,234.2,74a125.92,125.92,0,0,0-26.63,2.45c-8.78,1.64-17.44,3.85-26.09,6.09s-17.29,4.58-26.07,6.3c-2.19.44-4.4.82-6.61,1.14s-4.44.55-6.66.83l-6.67.66-6.69.49c-8.92.57-17.87.8-26.81.85-17.88.12-35.75-.51-53.61-.43h.09A77.28,77.28,0,0,0,23,106.77a18.34,18.34,0,0,0-1.4,1.2l-1.3,1.29-2.61,2.59-2.38,2.8L14.11,116,13,117.5c-.7,1-1.43,2-2.12,3l-1.87,3.16c-.3.53-.64,1-.92,1.59l-.79,1.66c-.52,1.1-1.1,2.19-1.56,3.32a65.22,65.22,0,0,0-2.43,6.92L2.86,139l-.26.88-.18.9-.73,3.6c-.25,1.2-.32,2.42-.49,3.64L1,149.84a8.59,8.59,0,0,0-.12,1.78l-.15,3.67L.86,159a11.23,11.23,0,0,0,.1,1.83l.22,1.82c.17,1.22.25,2.44.49,3.64a65,65,0,0,0,1.67,7.15,70.86,70.86,0,0,0,2.39,6.93c.45,1.14,1,2.22,1.53,3.34l.79,1.66c.26.55.6,1.06.89,1.6l1.83,3.18c.67,1,1.38,2,2.07,3l1,1.51c.38.49.77,1,1.16,1.43l2.32,2.84,2.55,2.64,1.27,1.32c.44.43.91.82,1.37,1.23l2.76,2.42c.94.78,1.95,1.47,2.93,2.21a68.38,68.38,0,0,0,6.12,4,32.35,32.35,0,0,0,3.22,1.76l3.32,1.71,3.39,1.41,1.69.7.85.36.87.28,3.5,1.14,1.74.57c.59.17,1.19.3,1.78.45l3.58.87c1.18.3,2.38.56,3.59.75a63.8,63.8,0,0,0,7.29.84,93.44,93.44,0,0,0,14.68-.2A160.72,160.72,0,0,0,112.74,218c19-5.22,37.22-12.74,54.91-21.3a430.56,430.56,0,0,0,51.27-29.16c8.17-5.46,16.15-11.23,23.77-17.46a156.87,156.87,0,0,0,21.17-20.46,69.29,69.29,0,0,0,8.25-12.17,32,32,0,0,0,3.93-14,21.2,21.2,0,0,0-4.77-13.59A39.16,39.16,0,0,0,259.91,80.58Zm0-.08a39,39,0,0,1,11.45,9.22,21.42,21.42,0,0,1,4.88,13.71,32.26,32.26,0,0,1-3.89,14.17,69.86,69.86,0,0,1-8.23,12.28A159.13,159.13,0,0,1,243,150.52c-7.6,6.28-15.57,12.1-23.73,17.62s-16.54,10.73-25.1,15.62S177,193.3,168.09,197.6C150.34,206.17,132,213.68,113,218.9a161.81,161.81,0,0,1-29.12,5.38,95.23,95.23,0,0,1-14.82.18,70.34,70.34,0,0,1-7.38-.85c-1.22-.2-2.43-.46-3.63-.77l-3.6-.88c-.6-.16-1.21-.28-1.8-.46l-1.77-.58-3.52-1.15-.88-.29-.86-.36-1.71-.71L40.5,217l-3.3-1.7A33,33,0,0,1,34,213.52a65.65,65.65,0,0,1-6.19-4.1c-1-.75-2-1.45-3-2.24L22,204.73c-.46-.42-.94-.81-1.38-1.24l-1.29-1.34-2.57-2.68-2.35-2.88c-.39-.48-.79-1-1.16-1.44l-1.06-1.53c-.69-1-1.41-2-2.09-3.07l-1.84-3.22c-.3-.55-.64-1.07-.9-1.63L6.58,184c-.51-1.13-1.09-2.22-1.54-3.38A70.47,70.47,0,0,1,1,166.38c-.24-1.22-.32-2.46-.49-3.68l-.22-1.85c-.07-.61-.06-1.23-.1-1.85L0,155.29l.15-3.71a11.42,11.42,0,0,1,.1-1.85l.23-1.84c.17-1.23.25-2.47.49-3.68l.75-3.64.19-.91.25-.89L2.69,137a66.75,66.75,0,0,1,2.46-7c.47-1.14,1.06-2.23,1.59-3.35l.8-1.67c.28-.56.63-1.07.93-1.61l1.9-3.19c.7-1,1.43-2,2.15-3l1.08-1.5,1.19-1.42,2.41-2.82,2.66-2.65,1.32-1.31c.44-.43.94-.8,1.41-1.2A77.74,77.74,0,0,1,48.26,91.85h.05c17.89,0,35.75.6,53.62.55,8.94,0,17.87-.22,26.79-.76l6.68-.47,6.67-.64c2.21-.27,4.44-.5,6.65-.81s4.41-.68,6.6-1.1c8.77-1.7,17.41-4,26.06-6.23s17.33-4.42,26.12-6a125,125,0,0,1,26.67-2.42c9,.27,18,2.14,25.79,6.58Z"/><path class="cls-3" d="M201,169.25A175,175,0,0,1,184.8,177c-5.49,2.37-11,4.62-16.62,6.79-11.15,4.34-22.41,8.41-33.73,12.29s-22.71,7.57-34.2,10.95c-5.74,1.69-11.51,3.3-17.32,4.74-2.91.71-5.83,1.39-8.77,2a48,48,0,0,1-8.94,1.08,5.44,5.44,0,0,1-2.29-.44,1.38,1.38,0,0,1-.5-.43,1.08,1.08,0,0,1-.16-.68,2.51,2.51,0,0,1,.5-1.13,16.51,16.51,0,0,1,3.35-3.06c2.46-1.74,4.9-3.43,7.23-5.31A83.27,83.27,0,0,0,86.1,191.3a61.49,61.49,0,0,0,9.2-15.24,49.58,49.58,0,0,0,2.63-8.51,46.15,46.15,0,0,0,1-8.85,44.81,44.81,0,0,0-3.4-17.37,54.92,54.92,0,0,0-9.44-15.05c-7.84-9-18-15.77-28.61-21L56,104.49h1.69c24.67-.1,49.35,1.11,73.94-.53,6.13-.43,12.29-.93,18.35-1.88S162,99.77,168,98.4c12-2.76,24-5.75,36.29-7.37a104.59,104.59,0,0,1,18.55-.93,56.36,56.36,0,0,1,18.19,3.64,44.92,44.92,0,0,1,8.24,4.32,25.78,25.78,0,0,1,6.83,6.34,15.63,15.63,0,0,1,3,8.78,20.6,20.6,0,0,1-2,9.07,40.37,40.37,0,0,1-4.87,7.9,75,75,0,0,1-6.14,6.95,135.13,135.13,0,0,1-14,12.07A281.36,281.36,0,0,1,201,169.25Zm0-.08a281.54,281.54,0,0,0,30.89-20.25,133.53,133.53,0,0,0,13.92-12.12,71.35,71.35,0,0,0,6.06-6.94,39.41,39.41,0,0,0,4.77-7.83,20,20,0,0,0,1.93-8.83,14.91,14.91,0,0,0-3-8.42,25.39,25.39,0,0,0-6.69-6.13,45.1,45.1,0,0,0-8.14-4.2A56,56,0,0,0,222.78,91a106.35,106.35,0,0,0-18.36,1c-12.2,1.61-24.18,4.59-36.19,7.35-6,1.37-12,2.72-18.16,3.69s-12.28,1.46-18.44,1.88c-24.67,1.59-49.36.31-74,.35l.17-.76c10.72,5.33,20.89,12.18,28.8,21.3a55.75,55.75,0,0,1,9.52,15.25,45.38,45.38,0,0,1,3.41,17.64,46.12,46.12,0,0,1-1,9,50.74,50.74,0,0,1-2.67,8.58,61.68,61.68,0,0,1-9.31,15.37A84.07,84.07,0,0,1,73.66,204.2c-2.33,1.87-4.83,3.57-7.26,5.29a15.78,15.78,0,0,0-3.26,2.95,2,2,0,0,0-.42.9.65.65,0,0,0,.42.68,5.14,5.14,0,0,0,2.09.39,47.16,47.16,0,0,0,8.86-1c2.93-.56,5.85-1.22,8.75-1.92,5.81-1.42,11.58-3,17.33-4.67q17.22-5,34.21-10.85c11.33-3.86,22.59-7.91,33.75-12.24,5.58-2.16,11.13-4.4,16.62-6.76a173.1,173.1,0,0,0,16.18-7.8Z"/><path d="M21.15,145.38h0a1.68,1.68,0,0,1,1.68,1.68v25a1.68,1.68,0,0,1-1.68,1.68h0a1.68,1.68,0,0,1-1.68-1.68v-25A1.68,1.68,0,0,1,21.15,145.38Z"/><path d="M27.4,134.81h0a1.68,1.68,0,0,1,1.68,1.68v46.15a1.68,1.68,0,0,1-1.68,1.68h0a1.68,1.68,0,0,1-1.68-1.68V136.49A1.68,1.68,0,0,1,27.4,134.81Z"/><path d="M33.65,130.48h0a1.68,1.68,0,0,1,1.68,1.68V187a1.68,1.68,0,0,1-1.68,1.68h0A1.68,1.68,0,0,1,32,187v-54.8A1.68,1.68,0,0,1,33.65,130.48Z"/><path d="M39.89,128.08h0a1.68,1.68,0,0,1,1.68,1.68v60.57A1.68,1.68,0,0,1,39.89,192h0a1.68,1.68,0,0,1-1.68-1.68V129.76A1.68,1.68,0,0,1,39.89,128.08Z"/><path d="M46.14,126.16h0a1.68,1.68,0,0,1,1.68,1.68v63.45A1.68,1.68,0,0,1,46.14,193h0a1.68,1.68,0,0,1-1.68-1.68V127.84A1.68,1.68,0,0,1,46.14,126.16Z"/><path d="M77.39,173.74h0a1.68,1.68,0,0,1-1.68-1.68v-25a1.68,1.68,0,0,1,1.68-1.68h0a1.68,1.68,0,0,1,1.68,1.68v25A1.68,1.68,0,0,1,77.39,173.74Z"/><path d="M71.14,134.81h0a1.68,1.68,0,0,1,1.68,1.68v46.15a1.68,1.68,0,0,1-1.68,1.68h0a1.68,1.68,0,0,1-1.68-1.68V136.49A1.68,1.68,0,0,1,71.14,134.81Z"/><path d="M64.89,130.48h0a1.68,1.68,0,0,1,1.68,1.68V187a1.68,1.68,0,0,1-1.68,1.68h0A1.68,1.68,0,0,1,63.21,187v-54.8A1.68,1.68,0,0,1,64.89,130.48Z"/><path d="M58.64,128.08h0a1.68,1.68,0,0,1,1.68,1.68v60.57A1.68,1.68,0,0,1,58.64,192h0A1.68,1.68,0,0,1,57,190.33V129.76A1.68,1.68,0,0,1,58.64,128.08Z"/><path d="M52.39,126.16h0a1.68,1.68,0,0,1,1.68,1.68v63.45A1.68,1.68,0,0,1,52.39,193h0a1.68,1.68,0,0,1-1.68-1.68V127.84A1.68,1.68,0,0,1,52.39,126.16Z"/><path class="cls-5" d="M66,107.81c14.94.68,64.35,3.14,85.54-1.57S207.26,92.11,223,92.9c6.28.31,19.63,1.57,19.63,1.57s-7.47-3.3-21.19-3.93C204.12,89.76,165.48,100,146,103.1c-19.62,3.14-80.86,1.1-85.55,1.57"/></g></svg>