<svg id="1f20c9fe-57c6-4e88-9f37-aab642a8715d" data-name="Calque 1" xmlns="http://www.w3.org/2000/svg" width="35" height="35" viewBox="0 0 35 35">
  <title>icon-close</title>
  <g>
    <g>
      <circle cx="17.5" cy="17.5" r="17" style="fill: #f37d11"/>
      <path d="M17.5,1A16.5,16.5,0,1,1,1,17.5,16.52,16.52,0,0,1,17.5,1m0-1A17.5,17.5,0,1,0,35,17.5,17.51,17.51,0,0,0,17.5,0Z"/>
    </g>
    <path d="M10.34,27.2a110,110,0,0,1,4.64-10,58.28,58.28,0,0,1-3.75-11l4.61.39a59.77,59.77,0,0,0,1.66,7.23q2.19-4.44,4.71-8.72L25.42,7.9a111.64,111.64,0,0,0-5.7,9.69q1.89,4.61,4.84,11l-4.47-.47c-.87-2-1.79-4.33-2.79-7.09a81.76,81.76,0,0,0-3.48,8.29Z"/>
  </g>
</svg>
