<svg xmlns="http://www.w3.org/2000/svg" viewBox="0 0 244.29 92.77"><defs><style>.cls-1{isolation:isolate;}.cls-2{opacity:0.13;mix-blend-mode:multiply;}.cls-3{fill:#f4e558;}.cls-4{fill:#3a1724;}</style></defs><title>inscription</title><g class="cls-1"><g id="Calque_1" data-name="Calque 1"><path class="cls-2" d="M71.46,5.87,2.4,89.35s234.66,6.86,234.66,1.14c0-7.67-8.53-4.39-14.12-83.47Z"/><path class="cls-3" d="M69.89.16.83,83.63s242.51,4.57,242.51-1.14-22-81.19-22-81.19Z"/><path class="cls-4" d="M69.94.25,1.13,83.88l-.29-.64q40.86.62,81.73,1c27.25.24,54.49.41,81.73.36,13.63,0,27.25-.12,40.86-.38,6.81-.13,13.61-.3,20.41-.58,3.39-.15,6.79-.33,10.16-.61,1.68-.14,3.37-.3,5-.57.41-.07.81-.15,1.18-.24a4.22,4.22,0,0,0,.5-.16l.17-.07,0,0a.2.2,0,0,0-.09.09.64.64,0,0,0-.13.41l0-.14,0-.28-.08-.58a11.65,11.65,0,0,0-.2-1.18c-1.42-6.58-3.25-13.17-5-19.74s-3.6-13.13-5.43-19.69q-5.52-19.66-11.23-39.29l1,.72-75.58-.88L107.91.88ZM69.85.07,107.61,0l37.87,0,75.9.27h.74l.21.72Q228,20.65,233.55,40.33,236.31,50.17,239,60c1.75,6.6,3.53,13.16,5,19.9a12.56,12.56,0,0,1,.21,1.34l.09.69,0,.35,0,.17a1.33,1.33,0,0,1-.24.71,3.11,3.11,0,0,1-.32.31l-.24.14a2.07,2.07,0,0,1-.41.19,7,7,0,0,1-.71.22c-.46.12-.9.2-1.33.27-1.74.28-3.45.43-5.16.57-3.42.26-6.83.42-10.24.55-6.82.25-13.64.39-20.45.48-13.63.18-27.26.21-40.89.19-27.25-.06-54.5-.34-81.74-.7S28.07,84.6.82,84L0,84l.52-.63Z"/><path d="M71.74,26.34q-.48,5-.7,11.37t0,11.56l-4.3-.53q-.18-6.54,0-11.8t.69-11.14Z"/><path d="M89.53,26.59,89,41.47q-.14,3.68-.54,7.89l-3.57-.49q-3.8-9.51-6.24-14.28-.15,4.74-.51,15.1l-3.73-.55c0-1.32,0-2.6,0-3.84q.28-7.74,1.51-18l4.24.57a95.42,95.42,0,0,0,5.22,13.48q.15-9.68.1-15.24Z"/><path d="M100.29,35.53a11.06,11.06,0,0,0,.51-2.61,2.63,2.63,0,0,0-.52-1.76,1.83,1.83,0,0,0-1.46-.74,1.8,1.8,0,0,0-1.55.84,3.55,3.55,0,0,0-.68,2c0,1.5.75,2.81,2.42,3.93s2.8,2,3.4,2.53a5.64,5.64,0,0,1,1.26,1.39,6,6,0,0,1,.85,3.26,5.82,5.82,0,0,1-2.1,4.52A6.44,6.44,0,0,1,98,50.46a5.93,5.93,0,0,1-4.74-2.6,20.06,20.06,0,0,1-2.43-4.47L94,42a11.49,11.49,0,0,0,1.73,3.31A3.09,3.09,0,0,0,98,46.72a2.24,2.24,0,0,0,1.45-.46,1.87,1.87,0,0,0,.7-1.53,2.83,2.83,0,0,0-.73-2,11.61,11.61,0,0,0-2.08-1.9c-.87-.65-1.55-1.18-2-1.6a17.75,17.75,0,0,1-1.58-1.57,6.49,6.49,0,0,1-1.53-4.65A6.57,6.57,0,0,1,99,26.68a5.8,5.8,0,0,1,4.45,2.24,6.4,6.4,0,0,1,1.68,4.33,7.91,7.91,0,0,1-1,3.73Z"/><path d="M114.58,31.62q-1.41,0-2.59,3.38a21.57,21.57,0,0,0-1.27,6.12c-.14,3.75.78,5.67,2.74,5.74a1.9,1.9,0,0,0,1.48-.67,4.75,4.75,0,0,0,1-1.46c.2-.5.44-1.2.73-2.08l4,.46A14.7,14.7,0,0,1,118,49,5.56,5.56,0,0,1,113.31,51a6.18,6.18,0,0,1-5.23-2.8,11.1,11.1,0,0,1-1.63-6.7,23.58,23.58,0,0,1,2.18-9.08,9.52,9.52,0,0,1,2.64-3.54A5.44,5.44,0,0,1,115,27.54a4.17,4.17,0,0,1,3.65,1.83,10.07,10.07,0,0,1,.88,1.73,8.48,8.48,0,0,1,.45,2.22,42.49,42.49,0,0,1,.18,4.62l-4.11-.53q.15-4.12-.58-5.21A1.08,1.08,0,0,0,114.58,31.62Z"/><path d="M122.71,50.61q.69-7.65.9-13.67c.15-4,.23-6.64.26-7.9a17,17,0,0,1,7.38-1.4,6.35,6.35,0,0,1,6.37,7.08q-.13,3.78-5.6,7.07,2.78,3.75,5.66,8.24l-3.15,2.16q-1.91-3.11-6.87-10.17-.27,4.92-.62,9.23ZM132,37.23a4.54,4.54,0,0,0,1.77-2.94,2.7,2.7,0,0,0-.71-2.1,2.87,2.87,0,0,0-2-.81,8.68,8.68,0,0,0-2.84.44c-.13,3.6-.23,6.28-.32,8A14.58,14.58,0,0,0,132,37.23Z"/><path d="M145.77,29q-.48,5-.7,11.37t0,11.56l-4.3-.54q-.18-6.54,0-11.8t.68-11.13Z"/><path d="M149,51.81q0-3.62.18-8.69c.13-3.37.39-7.88.81-13.53a15.92,15.92,0,0,1,5.55-.79,7.18,7.18,0,0,1,5,2.28,6.93,6.93,0,0,1,2,5.35,7.35,7.35,0,0,1-2.61,5.42A14.72,14.72,0,0,1,153.45,45c-.08,2.38-.14,4.84-.17,7.35Zm7.89-12.33a4.64,4.64,0,0,0,1.28-3,4.1,4.1,0,0,0-.79-2.78,2.53,2.53,0,0,0-1.92-1.13,11.93,11.93,0,0,0-1.32.12c-.22,3-.38,5.91-.51,8.72A6.74,6.74,0,0,0,156.84,39.48Z"/><path d="M166.27,52q-.12-5.67,0-9.87c.1-2.81.27-5.73.51-8.78l-3.92.41L162.32,30c2.1-.28,4.18-.48,6.23-.57l6-.11.48,3.57c-1.17,0-2.5.07-4,.15q-.36,4.59-.5,8.43t-.26,11Z"/><path d="M182.25,30.3q-.47,5-.69,11.38t0,11.56l-4.3-.54q-.18-6.54,0-11.8T178,29.76Z"/><path d="M191.54,53.88a6.27,6.27,0,0,1-5-2.92q-2-2.8-1.79-8.38a16.38,16.38,0,0,1,2.61-9q2.41-3.44,5.51-3.33a6.27,6.27,0,0,1,5.07,2.94q2,2.82,1.77,8.36a16.52,16.52,0,0,1-2.63,9Q194.6,54,191.54,53.88ZM190.2,36.43a16.51,16.51,0,0,0-1.25,6.2,13.41,13.41,0,0,0,.68,5.6c.55,1.22,1.25,1.85,2.13,1.88s1.68-.77,2.41-2.41a16.84,16.84,0,0,0,1.23-6.21,13.69,13.69,0,0,0-.65-5.58c-.52-1.22-1.2-1.84-2-1.87S190.94,34.8,190.2,36.43Z"/><path d="M216.71,31.16,216.21,46q-.14,3.67-.54,7.89l-3.57-.48q-3.78-9.52-6.24-14.28-.13,4.73-.51,15.09l-3.73-.55c0-1.32,0-2.6,0-3.84q.28-7.74,1.51-18l4.24.57a95.42,95.42,0,0,0,5.22,13.48q.15-9.66.1-15.24Z"/><path d="M77.93,57.42c11.68-1.09,23.39-1.78,35.1-2.3l8.8-.28,8.79-.21,8.79-.1,8.8,0q35.17,0,70.3,2.31v.1Q183.39,55,148.21,55.31l-8.78.12-8.79.19-8.79.21-8.78.29c-11.71.34-23.42.88-35.13,1.4Z"/></g></g></svg>