<svg xmlns="http://www.w3.org/2000/svg" viewBox="0 0 380.53 371.15"><defs><style>.cls-1{isolation:isolate;}.cls-2{opacity:0.19;}.cls-2,.cls-8{mix-blend-mode:multiply;}.cls-3,.cls-8{fill:#f37d11;}.cls-4{fill:#541c1a;}.cls-5{fill:#4c4c4c;}.cls-10,.cls-16,.cls-6,.cls-7,.cls-9{fill:#fff;}.cls-6{opacity:0.25;}.cls-7{opacity:0.5;}.cls-8{opacity:0.32;}.cls-9{opacity:0.22;}.cls-10{opacity:0.2;}.cls-11{fill:#369696;}.cls-12{fill:#c1c1bf;}.cls-13{opacity:0.26;}.cls-14{fill:#43aaaf;}.cls-15{fill:#adadad;}.cls-17{fill:#f4e558;}.cls-18{opacity:0.1;}.cls-19{fill:#f7981d;}.cls-20{fill:#875712;}.cls-21{fill:none;}</style></defs><title>logo-big</title><g class="cls-1"><g id="Calque_1" data-name="Calque 1"><polygon class="cls-2" points="353.49 317.52 214.52 269.95 0 318.45 121.25 371.15 353.49 317.52"/><path d="M337.74,291.76l15.42,25.7s-6.86,6.85-12.57,1.14l-30.27-30.27Z"/><path d="M139.2,340.6l-6.42,29.27s8.68,4.31,12.27-2.92l19-38.34Z"/><path d="M45,288.05l-6.43,29.28s8.68,4.31,12.27-2.92l19-38.34Z"/><path class="cls-3" d="M363.72,104.71s-94.8-18.85-120.5-18.85-193,5.72-213.61,25.7S29,271.48,32.47,284.62s63.39,68,81.1,69.67,232.45-45.11,249-61.68,25.13-181,9.71-185Z"/><path class="cls-4" d="M363.71,104.78c-22-4.31-44.14-8.39-66.3-12.06-11.08-1.81-22.18-3.56-33.32-5l-8.37-1-4.19-.36c-1.4-.12-2.8-.27-4.2-.29l-4.2-.15-4.21,0-8.42.18q-33.69.93-67.31,3.16c-22.41,1.48-44.81,3.3-67.1,6C85,96.75,73.83,98.32,62.81,100.45c-5.51,1.07-11,2.29-16.37,3.82-2.69.78-5.35,1.64-7.95,2.66a33.18,33.18,0,0,0-7.35,3.85,15.56,15.56,0,0,0-4.79,6.57,44.5,44.5,0,0,0-2.5,8,115.84,115.84,0,0,0-2.31,16.61,319.87,319.87,0,0,0-.42,33.64c.38,11.21,1.1,22.42,2.05,33.6s2.11,22.36,3.46,33.5,2.85,22.28,4.69,33.35c.48,2.75,1,5.53,1.58,8.23a14.5,14.5,0,0,0,1.68,3.68c.69,1.19,1.51,2.32,2.32,3.45a140.32,140.32,0,0,0,11,12.7c7.76,8.09,16,15.73,24.51,23,4.27,3.63,8.61,7.18,13.07,10.58s9,6.66,13.76,9.61c1.17.76,2.4,1.43,3.59,2.14s2.44,1.35,3.71,1.92a21.69,21.69,0,0,0,7.76,2.39,36.16,36.16,0,0,0,4.13-.21c1.38-.12,2.77-.28,4.16-.46,2.78-.36,5.55-.77,8.32-1.21C142,350.07,153,348,164,345.8c22-4.36,44-9.14,65.87-14.16s43.7-10.36,65.4-16.16c10.84-2.88,21.66-5.88,32.39-9.17,5.37-1.65,10.7-3.37,16-5.25,2.64-.94,5.27-1.92,7.85-3a67.76,67.76,0,0,0,7.56-3.56,16.49,16.49,0,0,0,3.29-2.36,14.3,14.3,0,0,0,2.26-3.37,48.93,48.93,0,0,0,3-7.76,157,157,0,0,0,3.91-16.33c2.09-11,3.56-22.16,4.76-33.32s2.1-22.35,2.76-33.56,1.07-22.43,1.15-33.66-.13-22.47-1.13-33.65c-.25-2.8-.57-5.59-1-8.36a61.93,61.93,0,0,0-1.75-8.22,20.44,20.44,0,0,0-1.56-3.88,6.79,6.79,0,0,0-1.24-1.66,3.32,3.32,0,0,0-.85-.59c-.31-.12-.64-.22-1-.34Zm0-.13,8,2.65c.33.11.67.21,1,.35a3.2,3.2,0,0,1,.89.61A6.75,6.75,0,0,1,374.9,110a19.29,19.29,0,0,1,1.59,3.92,59.27,59.27,0,0,1,1.78,8.24c.43,2.77.76,5.57,1,8.36,1,11.2,1.26,22.45,1.23,33.68s-.37,22.47-1,33.69-1.43,22.43-2.56,33.61-2.58,22.34-4.63,33.4a157.43,157.43,0,0,1-3.85,16.44,51.37,51.37,0,0,1-3.05,7.94,15.17,15.17,0,0,1-2.41,3.61,17.17,17.17,0,0,1-3.51,2.55,66.14,66.14,0,0,1-7.65,3.66c-2.61,1.09-5.24,2.08-7.89,3-5.29,1.91-10.63,3.66-16,5.34-10.74,3.34-21.55,6.39-32.4,9.33-21.72,5.8-43.55,11.11-65.45,16.16s-43.86,9.8-65.9,14.16c-11,2.16-22.08,4.24-33.19,6-2.77.43-5.56.84-8.35,1.19-1.4.18-2.8.34-4.21.46a35.58,35.58,0,0,1-4.28.2,13.26,13.26,0,0,1-2.19-.29,7.48,7.48,0,0,1-1.06-.27l-1-.32a36.22,36.22,0,0,1-4-1.64c-1.3-.58-2.52-1.3-3.77-2s-2.46-1.4-3.64-2.17c-4.78-3-9.36-6.29-13.83-9.71s-8.83-7-13.1-10.64c-8.53-7.33-16.77-15-24.55-23.14a142,142,0,0,1-11-12.81c-.82-1.15-1.65-2.31-2.37-3.54a15.58,15.58,0,0,1-1.78-4c-.65-2.78-1.11-5.54-1.58-8.32-1.83-11.09-3.31-22.23-4.66-33.39s-2.48-22.34-3.41-33.54-1.64-22.42-2-33.66a318.81,318.81,0,0,1,.47-33.72,116.4,116.4,0,0,1,2.35-16.72A46.35,46.35,0,0,1,25.64,117c.26-.67.62-1.29.93-1.93.16-.32.36-.61.54-.92a10.77,10.77,0,0,1,.58-.91,13.18,13.18,0,0,1,3-3.11,33.77,33.77,0,0,1,7.53-3.93c2.63-1,5.32-1.9,8-2.68,5.42-1.53,10.91-2.75,16.44-3.81,11-2.12,22.18-3.68,33.33-5,22.32-2.65,44.73-4.42,67.15-5.83s44.87-2.41,67.33-3l8.42-.16,4.22,0,4.21.16c1.41,0,2.81.18,4.21.29l4.2.37,8.37,1c11.14,1.42,22.24,3.18,33.32,5C319.61,96.21,341.69,100.32,363.74,104.65Z"/><path class="cls-5" d="M371.15,113.85c-7.92-9.9-236.45,3.43-260.44,23.42-8.56,8.56-9.13,199.32,8,207.32S346,298.32,358.58,285.76,380.29,125.27,371.15,113.85Z"/><path d="M356.26,122.65l9.75-5.37s-114.8-4-169.63,9.13C177,173.82,181,324,200.38,317.74S356.26,122.65,356.26,122.65Z"/><path class="cls-6" d="M347.73,277.76l5.71,3.43s-76.53,36.55-153.06,36.55l5.14-5.14S294.62,306.89,347.73,277.76Z"/><path class="cls-7" d="M370.58,107.57S168.4,110.42,115.28,131C244.93,101.28,370.58,107.57,370.58,107.57Z"/><path class="cls-8" d="M98.15,144.69s-13.71,180.48,15.42,209.6c-56-25.13-81.1-69.67-81.1-69.67S10.79,164.27,25.91,117.36C98.42,141.18,98.15,144.69,98.15,144.69Z"/><path class="cls-9" d="M110.14,131.55s-12,3.43-12,9.71c-15.42-11.42-50.26-21.13-50.26-24S110.14,131.55,110.14,131.55Z"/><path class="cls-3" d="M272.68,102.54c1.38-.26,4.25-1.67,3.43-2.81-5.65-7.83-15.19-35.21-15.19-78.4v-12l-6.28-8V20.76s-.25,75.4-18.28,79.95C240.59,104.22,260.85,104.74,272.68,102.54Z"/><path class="cls-4" d="M272.67,102.47a7.59,7.59,0,0,0,2.74-1.22c.38-.29.8-.69.77-1.16a1.6,1.6,0,0,0-.34-.64c-.14-.21-.29-.42-.42-.64a42.14,42.14,0,0,1-2.83-5.41c-.82-1.86-1.56-3.76-2.24-5.68s-1.33-3.85-1.91-5.8a176.35,176.35,0,0,1-5.22-23.85,235.58,235.58,0,0,1-2.38-24.31c-.4-8.15-.3-16.29-.35-24.43l.09.27-6.31-8,.83-.28,0,13,0,6.51c0,2.18,0,4.35-.1,6.52-.23,8.69-.71,17.37-1.53,26a199.51,199.51,0,0,1-4,25.79,66.55,66.55,0,0,1-4.09,12.46,26.9,26.9,0,0,1-3.41,5.7,13.54,13.54,0,0,1-2.42,2.36,8.49,8.49,0,0,1-3.1,1.49l.2-.87a6.85,6.85,0,0,0,1.87,1,17.19,17.19,0,0,0,2.14.68,42.15,42.15,0,0,0,4.48.86,84.81,84.81,0,0,0,9.15.72q4.6.15,9.2-.13A78.29,78.29,0,0,0,272.67,102.47Zm0,.13a78.07,78.07,0,0,1-9.15,1.15c-3.07.22-6.14.32-9.22.33a86.64,86.64,0,0,1-9.24-.47,42.52,42.52,0,0,1-4.59-.73,20.83,20.83,0,0,1-2.27-.65A7.69,7.69,0,0,1,236,101.1l-.77-.61,1-.26a9.72,9.72,0,0,0,4.88-3.59,26.21,26.21,0,0,0,3.18-5.49,55.12,55.12,0,0,0,2.21-6c.65-2,1.21-4.13,1.71-6.23a198.7,198.7,0,0,0,4-25.6c.88-8.62,1.43-17.27,1.73-25.93.07-2.16.13-4.33.15-6.49l0-6.51.05-13V0L255,1.05l6.26,8,.09.12v.14c0,8.14-.16,16.28.2,24.39s1,16.23,2.13,24.28a170.12,170.12,0,0,0,4.95,23.86,89.62,89.62,0,0,0,4.08,11.49,43.12,43.12,0,0,0,2.82,5.39c.13.22.28.42.42.64a1.57,1.57,0,0,1,.36.69,1,1,0,0,1-.26.75,2.8,2.8,0,0,1-.56.53A7.45,7.45,0,0,1,272.69,102.6Z"/><rect x="167.26" y="242.35" width="4" height="81.1" rx="2" ry="2" transform="translate(338.51 565.81) rotate(-180)"/><rect x="160.4" y="243.5" width="4" height="81.1" rx="2" ry="2" transform="translate(324.8 568.09) rotate(180)"/><rect x="153.55" y="244.64" width="4" height="81.1" rx="2" ry="2" transform="translate(311.09 570.38) rotate(-180)"/><rect x="146.69" y="245.78" width="4" height="81.1" rx="2" ry="2" transform="translate(297.39 572.66) rotate(180)"/><rect x="139.84" y="246.92" width="4" height="81.1" rx="2" ry="2" transform="translate(283.68 574.94) rotate(180)"/><rect x="132.99" y="248.06" width="4" height="81.1" rx="2" ry="2" transform="translate(269.97 577.23) rotate(180)"/><rect x="126.13" y="249.21" width="4" height="81.1" rx="2" ry="2" transform="translate(256.27 579.51) rotate(180)"/><circle cx="205.81" cy="9.62" r="2"/><path d="M200.46,24.34a2.11,2.11,0,0,0,1.67.95,9.85,9.85,0,0,0,2,.06,23.5,23.5,0,0,0,4-.68A49.61,49.61,0,0,0,215.86,22a49.74,49.74,0,0,0,7.2-3.76,25,25,0,0,0,3.23-2.43,9.71,9.71,0,0,0,1.33-1.47,1.89,1.89,0,0,0,.45-1.65,1.89,1.89,0,0,0-1.5-.79,10,10,0,0,0-2-.05,24.57,24.57,0,0,0-4,.67A50.92,50.92,0,0,0,213,15.09a56.46,56.46,0,0,0-7.28,3.58A24,24,0,0,0,202.35,21,9.61,9.61,0,0,0,201,22.49,2.07,2.07,0,0,0,200.46,24.34Zm-.06,0a1.43,1.43,0,0,1,0-1,4,4,0,0,1,.47-.92,10.48,10.48,0,0,1,1.37-1.53,25.55,25.55,0,0,1,3.24-2.52,46.35,46.35,0,0,1,7.21-3.89,50.82,50.82,0,0,1,7.79-2.59,24.38,24.38,0,0,1,4.08-.63,9.85,9.85,0,0,1,2.1.08,4.09,4.09,0,0,1,1.05.32,1.67,1.67,0,0,1,.85.83,1.71,1.71,0,0,1,0,1.18,3.85,3.85,0,0,1-.52,1,9.9,9.9,0,0,1-1.42,1.54,25.45,25.45,0,0,1-3.32,2.43,50.06,50.06,0,0,1-7.3,3.71,50.68,50.68,0,0,1-7.78,2.49,24.06,24.06,0,0,1-4,.62,10,10,0,0,1-2-.06,3.8,3.8,0,0,1-1-.29A1.46,1.46,0,0,1,200.4,24.36Z"/><path class="cls-10" d="M257.65,5.17s.41,90-5.58,95.93c6.85.37,7.14.18,7.14.18l-.86-95.22Z"/><path d="M263.49,63.78a101.93,101.93,0,0,1,14.39,1,34.46,34.46,0,0,1,7,1.72,8.12,8.12,0,0,1,3.16,2,2,2,0,0,1,.47,2,3.34,3.34,0,0,1-1.31,1.48,14.94,14.94,0,0,1-3.34,1.57c-1.15.4-2.32.73-3.49,1a69.37,69.37,0,0,1-7.14,1.29,120,120,0,0,1-14.43.94,127.09,127.09,0,0,1-14.46-.63c-2.4-.26-4.8-.6-7.19-1.09a29,29,0,0,1-7-2.21,7.24,7.24,0,0,1-1.67-1.13,3.29,3.29,0,0,1-.71-1l-.12-.33a2.08,2.08,0,0,1-.05-.36,2.14,2.14,0,0,1,.05-.68,3.67,3.67,0,0,1,1.27-1.87,8.55,8.55,0,0,1,1.64-1.1,27.49,27.49,0,0,1,7-2.39A83.09,83.09,0,0,1,252,62.32L251.32,64c-3.74-4.31-7.47-8.62-11.16-13s-7.35-8.73-11-13.1l-5.49-6.56-5.44-6.61q-5.44-6.6-10.78-13.3l.16-.13q5.79,6.3,11.49,12.68l5.7,6.38,5.65,6.43c3.76,4.29,7.55,8.56,11.26,12.89s7.43,8.66,11.12,13l1.33,1.58-2.05.05a81.57,81.57,0,0,0-14.16,1.38,26.82,26.82,0,0,0-6.62,2.11,7.84,7.84,0,0,0-1.37.88,2.27,2.27,0,0,0-.77,1,.59.59,0,0,0,0,.21.22.22,0,0,1,0,.08.3.3,0,0,1,0,.1,1.5,1.5,0,0,0,.35.47,6.06,6.06,0,0,0,1.3.89,28.4,28.4,0,0,0,6.64,2.17c2.32.51,4.67.87,7,1.16a126.45,126.45,0,0,0,14.31.81,124.53,124.53,0,0,0,14.32-.74,67,67,0,0,0,7.06-1.15,33.54,33.54,0,0,0,3.44-.93,13.7,13.7,0,0,0,3.19-1.43,2.71,2.71,0,0,0,1.08-1.13,1,1,0,0,0,0-.68,1.83,1.83,0,0,0-.36-.67A7.59,7.59,0,0,0,284.71,67a34.52,34.52,0,0,0-6.9-1.81A102.35,102.35,0,0,0,263.49,64Z"/><path d="M263.49,43.79a102.1,102.1,0,0,1,14.4.91A34.82,34.82,0,0,1,285,46.39a8.11,8.11,0,0,1,3.22,2,2.12,2.12,0,0,1,.5,2.11A3.47,3.47,0,0,1,287.32,52a14.84,14.84,0,0,1-3.37,1.6,36.05,36.05,0,0,1-3.51,1A69.9,69.9,0,0,1,273.3,56a122.81,122.81,0,0,1-14.46,1,125.35,125.35,0,0,1-14.49-.55,70.63,70.63,0,0,1-7.22-1.08A30,30,0,0,1,230,53a7.4,7.4,0,0,1-1.69-1.2,3.45,3.45,0,0,1-.74-1l-.12-.36c0-.12,0-.26-.06-.39a2.35,2.35,0,0,1,0-.38,2,2,0,0,1,.06-.35,3.81,3.81,0,0,1,1.35-1.92,8.42,8.42,0,0,1,1.67-1.07,26.81,26.81,0,0,1,7.09-2.16,67.94,67.94,0,0,1,7.22-.84c2.42-.12,4.83-.17,7.24-.09v.19c-2.39.23-4.78.44-7.15.8a66.22,66.22,0,0,0-7,1.3,27.69,27.69,0,0,0-6.55,2.34,8.28,8.28,0,0,0-1.32.91,2,2,0,0,0-.7,1,.3.3,0,0,0,0,.16s0,0,0,.05a.16.16,0,0,1,0,.07,1.45,1.45,0,0,0,.33.4,6.2,6.2,0,0,0,1.27.83,27.93,27.93,0,0,0,6.6,2.06c2.3.49,4.65.87,7,1.15a125.68,125.68,0,0,0,14.27.91,121.94,121.94,0,0,0,14.3-.69,68.8,68.8,0,0,0,7-1.13c1.16-.26,2.31-.55,3.43-.92a13.62,13.62,0,0,0,3.15-1.41,2.62,2.62,0,0,0,1-1.06,1,1,0,0,0,.07-.28,1.12,1.12,0,0,0-.05-.31,1.54,1.54,0,0,0-.33-.63,7.42,7.42,0,0,0-2.82-1.81,34,34,0,0,0-6.87-1.84A102.16,102.16,0,0,0,263.49,44Z"/><path d="M263.49,23.8a102.1,102.1,0,0,1,14.4.91A34.82,34.82,0,0,1,285,26.4a8.11,8.11,0,0,1,3.22,2,2.12,2.12,0,0,1,.5,2.11,3.47,3.47,0,0,1-1.36,1.55,14.84,14.84,0,0,1-3.37,1.6,36.05,36.05,0,0,1-3.51,1A69.9,69.9,0,0,1,273.3,36a122.81,122.81,0,0,1-14.46,1,125.35,125.35,0,0,1-14.49-.55,70.63,70.63,0,0,1-7.22-1.08A30,30,0,0,1,230,33a7.4,7.4,0,0,1-1.69-1.2,3.33,3.33,0,0,1-.74-1l-.12-.36c0-.12,0-.26-.06-.39a2.35,2.35,0,0,1,0-.38,2,2,0,0,1,.06-.35,3.86,3.86,0,0,1,1.35-1.92,8.89,8.89,0,0,1,1.67-1.07,26.81,26.81,0,0,1,7.09-2.16,67.94,67.94,0,0,1,7.22-.84c2.42-.12,4.83-.17,7.24-.09v.19c-2.39.23-4.78.44-7.15.8a66.22,66.22,0,0,0-7,1.3,27.69,27.69,0,0,0-6.55,2.34,8.28,8.28,0,0,0-1.32.91,2,2,0,0,0-.7,1,.3.3,0,0,0,0,.16s0,0,0,.05a.16.16,0,0,1,0,.07,1.32,1.32,0,0,0,.33.4,6.2,6.2,0,0,0,1.27.83,27.93,27.93,0,0,0,6.6,2.06c2.3.49,4.65.87,7,1.15a125.68,125.68,0,0,0,14.27.91,121.94,121.94,0,0,0,14.3-.69,68.8,68.8,0,0,0,7-1.13c1.16-.26,2.31-.55,3.43-.92a13.62,13.62,0,0,0,3.15-1.41,2.56,2.56,0,0,0,1-1.06.9.9,0,0,0,.07-.27,1.13,1.13,0,0,0-.05-.32,1.54,1.54,0,0,0-.33-.63,7.42,7.42,0,0,0-2.82-1.81,34,34,0,0,0-6.87-1.84A102.16,102.16,0,0,0,263.49,24Z"/><path class="cls-11" d="M351.73,121.27c-26.46-.64-104.3-1.08-146.49,13.65a14.07,14.07,0,0,0-9.14,9.71c-10.28,40.78-10.42,129.54.39,159.34a14.45,14.45,0,0,0,14,9.2c66.35-1.58,133.06-31.37,137.19-35.68,6.86-7.15,21.7-93.39,11.23-146.11C357.75,125.3,358.23,121.43,351.73,121.27Z"/><path class="cls-12" d="M171.25,137.84s-29.7-1.15-45.12,6.85c-4,20-4.56,66.82-1.14,90.81,44-5.14,45.12-7.42,45.12-7.42S177,165.25,171.25,137.84Z"/><path class="cls-13" d="M167.58,137.78c2.3,0,3.67.06,3.67.06,5.71,27.41-1.14,90.24-1.14,90.24s-.27.53-5.5,1.66C167.22,206.82,169.91,172,167.58,137.78Z"/><ellipse class="cls-14" cx="151.76" cy="205.8" rx="11.94" ry="14.15"/><path class="cls-15" d="M150.22,219.82s-9.38-.7-10.32-14.22l-7-8.86s-7.12,12.26,5.76,21c11.32,2.19,12.43,2.26,12.43,2.26"/><ellipse class="cls-14" cx="152.69" cy="168.03" rx="11.94" ry="14.15"/><path class="cls-15" d="M151.15,182.05s-9.38-.7-10.31-14.23l-7-8.86s-7.12,12.27,5.77,21.06c11.32,2.19,12.42,2.26,12.42,2.26"/><ellipse class="cls-14" cx="276.98" cy="211.11" rx="68.33" ry="79.32" transform="translate(-27.56 42.16) rotate(-8.29)"/><path class="cls-16" d="M279.86,290.88c-35.75,0-67.29-31.85-71.62-73.63-2.4-23.14,4-45.88,17.6-62.36,11.17-13.56,26.41-21.84,42.9-23.31,37.91-3.38,72.44,29.54,77,73.39,2.4,23.14-4,45.88-17.61,62.36-11.17,13.57-26.41,21.84-42.9,23.32C283.43,290.81,281.64,290.88,279.86,290.88ZM274.1,132.66c-1.74,0-3.48.08-5.24.23-16.14,1.44-31.05,9.55-42,22.84-13.36,16.22-19.67,38.59-17.31,61.39,4.48,43.13,38.37,75.51,75.55,72.21,16.14-1.44,31-9.55,42-22.84,13.36-16.21,19.67-38.59,17.31-61.39C340.15,164,309.18,132.66,274.1,132.66Z"/><polygon class="cls-17" points="208.03 185.25 229.48 251.38 341.35 197.4 331.75 148.96 208.03 185.25"/><g class="cls-18"><polygon points="252.06 185.19 252.29 189.19 244.08 191.04 246.71 211.83 255.72 211.55 256 216.36 247 216.63 248.55 231.03 256.87 230.77 257.06 233.97 244.73 236.76 239.58 185.57 252.06 185.19"/><polygon points="298.28 180.56 298.52 184.57 290.3 186.42 292.94 207.21 301.94 206.93 302.23 211.74 293.23 212.01 294.78 226.41 303.1 226.15 303.29 229.35 290.96 232.14 285.81 180.94 298.28 180.56"/><polygon points="275.77 233.4 270.62 182.21 283.09 181.83 283.33 185.84 275.11 187.69 277.74 208.47 286.75 208.2 287.04 213 278.03 213.28 279.88 232.48 275.77 233.4"/><path d="M313.63,205l3.41-.91-2.68-21.58s-2.46-6.34-8-5.37-5.06,8.17-5.06,8.17,1.15,19.23,2.63,20.79c2.23,2.33,10.18,7.71,11,10.09s4.23,12.71-.57,13.66-5.14-4.66-5.14-4.66L308,214.77l-4.11.93,2.94,14.35s3.06,4.72,7.86,3.77,5.06-8.18,5.06-8.18.17-8.83-2.15-12.77c-1.63-4-8.7-6.15-9.53-8.53s-3.23-19.16-3.23-19.16.45-4,2.53-4.09,3.6,2.3,3.6,2.3Z"/><path d="M232,178.41c-4-2.76-13.91-3.42-13.91-3.42l8.64,67.93s12.74-3.27,14-7.15S236,181.17,232,178.41Zm4.51,53.64c-.63,3.32-7.57,6-7.57,6l-6-58.41s5.47.66,7.7,3.07S237.19,228.72,236.55,232.05Z"/><polygon points="263.99 189.7 268.14 189.58 267.04 229.31 264.31 230.03 250.97 192.64 255.78 191.86 267.04 217.58 263.99 189.7"/><polygon points="329.48 168.38 330.41 172.36 322.15 173.42 327.78 232.62 323.62 232.75 318.68 173.52 311.01 172.95 310.77 168.95 329.48 168.38"/></g><polygon class="cls-19" points="251.71 181.82 251.95 185.83 243.73 187.68 246.36 208.46 255.37 208.19 255.66 212.99 246.65 213.27 248.21 227.66 256.52 227.41 256.71 230.61 244.38 233.4 239.24 182.2 251.71 181.82"/><path class="cls-20" d="M243.8,234.21l-5.3-52.65,13.83-.42.31,5.21-8.18,1.85,2.48,19.58,9.05-.27.37,6.12-9,.28L248.8,227l8.34-.25.27,4.4ZM240,182.84l5,49.74,11-2.49-.12-2-8.29.25-1.7-15.71,9-.28-.21-3.48-9,.27-2.78-22,8.25-1.87-.17-2.8Z"/><polygon class="cls-19" points="297.93 177.2 298.17 181.21 289.95 183.06 292.59 203.84 301.6 203.57 301.88 208.37 292.88 208.65 294.43 223.04 302.75 222.79 302.94 225.99 290.61 228.77 285.46 177.58 297.93 177.2"/><path class="cls-20" d="M290,229.59l-5.3-52.65,13.83-.42.31,5.21-8.18,1.84,2.48,19.59,9.05-.27.36,6.12-9,.28L295,222.36l8.35-.25.26,4.4Zm-3.84-51.37,5,49.74,11-2.49-.12-2-8.28.25L292.14,208l9-.28-.21-3.48-9,.27-2.79-22,8.26-1.87-.17-2.8Z"/><polyline class="cls-19" points="275.42 230.04 270.27 178.85 282.74 178.47 282.98 182.47 274.76 184.33 277.39 205.11 286.4 204.83 286.69 209.64 277.68 209.91 279.53 229.11"/><polygon class="cls-20" points="274.76 230.11 269.54 178.21 283.36 177.79 283.67 182.99 275.49 184.84 277.98 204.43 287.02 204.15 287.39 210.28 278.41 210.55 280.19 229.05 278.87 229.18 276.95 209.27 285.99 209 285.78 205.51 276.81 205.79 274.03 183.81 282.28 181.95 282.12 179.15 271 179.49 276.08 229.97 274.76 230.11"/><path class="cls-19" d="M313.28,201.61l3.41-.91L314,179.12s-2.46-6.35-7.95-5.38-5.07,8.18-5.07,8.18,1.15,19.22,2.64,20.78c2.22,2.34,10.17,7.71,11,10.1s4.23,12.7-.57,13.65-5.14-4.65-5.14-4.65l-1.31-10.39-4.11.92,2.94,14.36s3.06,4.72,7.86,3.77,5.06-8.18,5.06-8.18.17-8.83-2.15-12.77c-1.62-4-8.7-6.16-9.53-8.54s-3.23-19.15-3.23-19.15.45-4,2.53-4.09S310.6,180,310.6,180Z"/><path class="cls-20" d="M313,231.25c-4.35,0-7-4-7.13-4.2l-.06-.11-3.1-15.11,5.45-1.23,1.41,11.11c0,.07.18,2.49,1.64,3.62a3.25,3.25,0,0,0,2.71.47,2,2,0,0,0,1.43-1c1.6-2.79-.63-9.7-1.35-11.75-.47-1.34-4.08-4.22-6.71-6.32a51.26,51.26,0,0,1-4.16-3.54c-1.53-1.61-2.54-16.63-2.82-21.2-.16-2.7.8-8,5.61-8.87,6-1.05,8.66,5.72,8.69,5.79l0,.16,2.75,22.15-4.71,1.25L310,180.27c-.31-.43-1.48-1.88-2.89-1.88H307c-1.11,0-1.74,2.26-1.89,3.42.83,5.81,2.55,17.12,3.19,18.94.3.84,1.92,1.88,3.5,2.89,2.35,1.5,5,3.19,6,5.57,2.36,4.08,2.22,12.72,2.22,13.08s-.34,7.78-5.6,8.82A7.94,7.94,0,0,1,313,231.25Zm-5.95-4.83c.45.63,3.18,4.17,7.11,3.39,4.24-.84,4.53-7.49,4.53-7.55s.14-8.68-2.06-12.42l0-.08c-.83-2-3.32-3.6-5.51-5-1.93-1.23-3.59-2.29-4-3.56-.85-2.41-3.16-18.59-3.26-19.28v-.17c.05-.47.59-4.6,3.17-4.68,2.39-.06,4.11,2.49,4.18,2.6l.08.13,2.61,21,2.13-.56-2.6-20.93c-.29-.69-2.55-5.7-7.2-4.88-4.84.85-4.53,7.21-4.52,7.48.56,9.25,1.63,19.4,2.46,20.37a47,47,0,0,0,4,3.41c3.83,3.06,6.58,5.35,7.14,6.92,1,2.8,3.07,9.66,1.25,12.85a3.3,3.3,0,0,1-2.32,1.67,4.52,4.52,0,0,1-3.79-.73c-1.93-1.5-2.13-4.41-2.14-4.53l-1.22-9.63-2.76.63Z"/><path class="cls-19" d="M231.69,175c-4-2.76-13.91-3.42-13.91-3.42l8.64,67.94s12.74-3.27,14-7.15S235.66,177.8,231.69,175Zm4.51,53.64c-.63,3.32-7.57,6-7.57,6l-6-58.41s5.46.66,7.7,3.07S236.84,225.36,236.2,228.68Z"/><path class="cls-20" d="M225.85,240.39l-.09-.75L217,170.91l.8.05c.42,0,10.17.71,14.25,3.54h0c2.58,1.8,5.26,18.76,6.63,28.71,1.75,12.72,3.12,27.2,2.38,29.41-1.36,4.1-13.16,7.24-14.5,7.58Zm-7.31-68L227,238.72c3.86-1.06,11.94-3.8,12.85-6.52.5-1.53-.37-13.74-2.44-28.81-2.48-18-4.84-26.94-6.08-27.8h0C228.17,173.41,221,172.58,218.54,172.35Zm9.52,63.27-.09-.86-6.09-59.24.82.1c.24,0,5.74.72,8.11,3.28,2.73,2.94,6.55,47.27,6,49.91-.68,3.57-7.24,6.21-8,6.5Zm-4.69-58.55,5.83,56.66c2.16-1,6-3,6.35-5.17.68-3.51-3.76-46.56-5.71-48.76C228.29,178.13,224.93,177.35,223.37,177.07Z"/><polygon class="cls-19" points="263.64 186.34 267.79 186.21 268.63 225.78 265.89 226.49 250.63 189.28 255.44 188.5 264.63 209.95 263.64 186.34"/><path class="cls-20" d="M265.5,227.28l-15.8-38.52,6.14-1,8,18.61L263,185.7l5.49-.17.86,40.75ZM251.55,189.8l14.74,35.91,1.66-.44-.8-38.37-2.82.08,1.12,26.54L255,189.23Z"/><polygon class="cls-19" points="329.13 165.02 330.06 169 321.8 170.05 327.43 229.25 323.27 229.38 318.33 170.16 310.67 169.59 310.43 165.59 329.13 165.02"/><path class="cls-20" d="M322.66,230.06l-.05-.62-4.89-58.66-7.68-.57-.32-5.26,19.93-.61,1.23,5.22-8.36,1.07,5.63,59.27ZM311.29,169l7.66.57,0,.56,4.89,58.6,2.82-.08-5.62-59.14,8.17-1-.64-2.74-17.48.54Z"/><path class="cls-16" d="M263.13,274.32a2,2,0,0,1,2.81-2.07c.39.17.72.85,1.07,1.13a3.84,3.84,0,0,0,1.74.85,4.12,4.12,0,0,0,3.13-1.2c.79-.62,1.6-1.85,2.56-2.15,1.68-.52,2.73,1,4.07,1.55,1.49.59,2.26.18,3.45-.72,1.38-1,2.22-1.65,4.05-1.23a29.7,29.7,0,0,0,2.91.91c1.73.25,2.57-.43,3.94-1.31,1.69-1.09,2.44-1.05,4.09-.19a4.82,4.82,0,0,0,1.94.7c1.68.1,6.09-3.9,6.82-2.15.48,1.16,2.4.65,1.91-.53a3.12,3.12,0,0,0-3.81-2c-1.32.29-1.95,1.3-3.09,1.92-2.49,1.34-3-.4-5.09-.89-2.92-.67-4,2.82-6.9,2.43-2.21-.3-4.08-2.08-6.34-.83-1.67.93-2,2.28-4.2,1.38-.93-.38-1.5-1.12-2.57-1.22-2.23-.2-3.26,1.69-4.9,2.76-2.52,1.65-4-2.44-6.87-1.59a4.18,4.18,0,0,0-2.71,4.49c.11,1.27,2.1,1.28,2,0Z"/><polygon class="cls-17" points="273.39 252.2 274.07 258.43 277.67 258.32 277.75 259.71 272.41 260.92 270.18 238.75 271.9 238.69 273.39 252.2"/><polygon class="cls-17" points="280.65 251.55 281.33 257.79 284.93 257.68 285.01 259.06 279.67 260.27 277.44 238.1 279.16 238.04 280.65 251.55"/><polygon class="cls-17" points="286.6 251.02 287.28 257.26 290.88 257.15 290.96 258.53 285.62 259.74 283.39 237.57 285.11 237.51 286.6 251.02"/><line class="cls-21" x1="271.9" y1="238.68" x2="273.42" y2="252.19"/><polygon class="cls-17" points="274.07 241.13 275.52 255.06 277.3 254.9 276.1 240.95 274.07 241.13"/><polygon class="cls-17" points="291.46 237.25 291.54 238.57 288.83 239.18 289.7 246.04 292.67 245.95 292.77 247.54 289.79 247.63 290.31 252.38 293.05 252.3 293.12 253.35 289.05 254.27 287.35 237.37 291.46 237.25"/><path class="cls-16" d="M236.94,164.3a5.81,5.81,0,0,0-.16-1.27,1.35,1.35,0,0,0-.45-.73.69.69,0,0,0-.67-.14.77.77,0,0,0-.49.61,2,2,0,0,0,0,1,2.13,2.13,0,0,0,1.49,1.46c.82.3,1.38.53,1.68.68a2.35,2.35,0,0,1,.69.46,3.2,3.2,0,0,1,.78,1.37,3.13,3.13,0,0,1-.19,2.37,2.62,2.62,0,0,1-1.52,1.33,2.27,2.27,0,0,1-2.22-.53,9.53,9.53,0,0,1-1.57-1.71l1-1.08a5.35,5.35,0,0,0,1.14,1.28,1.18,1.18,0,0,0,1.09.32.88.88,0,0,0,.51-.41,1,1,0,0,0,.06-.8,1.44,1.44,0,0,0-.56-.8,5,5,0,0,0-1.07-.58c-.43-.17-.77-.32-1-.44a7.59,7.59,0,0,1-.83-.5,3.2,3.2,0,0,1-1.24-1.92,3.37,3.37,0,0,1,.18-2.41,2.61,2.61,0,0,1,1.6-1.46,2.21,2.21,0,0,1,2.06.4,3.29,3.29,0,0,1,1.26,1.75,4.39,4.39,0,0,1,.13,1.84Z"/><path class="cls-16" d="M240.48,163.34a1.78,1.78,0,0,1,1.17-1.24,1.34,1.34,0,0,1,1.5.44,5.36,5.36,0,0,1,1,2.25c.28,1,.61,2.46,1,4.29l-1.09.23-.23-.44a2.32,2.32,0,0,1-1.11.78,1.27,1.27,0,0,1-1.15-.16,2.05,2.05,0,0,1-.78-1.26,2.11,2.11,0,0,1,.35-1.79,3,3,0,0,1,1.58-1.23l-.11-.4c-.21-.78-.47-1.12-.79-1-.16.05-.27.22-.33.53a3.49,3.49,0,0,0-.05,1l-1.2.23A5.36,5.36,0,0,1,240.48,163.34Zm1.66,4.58a.42.42,0,0,0,.61.32,1.69,1.69,0,0,0,.65-.4l-.31-1.25a1.71,1.71,0,0,0-.8.63A1,1,0,0,0,242.14,167.92Z"/><path class="cls-16" d="M244.19,158.56l1.47-.25L246,160l-1.47.24Zm.6,2.64,1.49-.29,1.91,7.11-1.49.29Z"/><path class="cls-16" d="M250.55,162c-.15-.59-.36-.85-.61-.77a.47.47,0,0,0-.29.32,1,1,0,0,0,0,.63,1.4,1.4,0,0,0,.28.56,1.53,1.53,0,0,0,.57.33l.61.21a4.23,4.23,0,0,1,.54.26,1.83,1.83,0,0,1,.89,1.2,1.93,1.93,0,0,1-.17,1.52,1.89,1.89,0,0,1-1.08.9,1.93,1.93,0,0,1-1.32,0,3.08,3.08,0,0,1-1.15-.79l.44-1.12c.52.58,1,.81,1.34.69a.51.51,0,0,0,.34-.62,1.11,1.11,0,0,0-.82-.69,3.41,3.41,0,0,1-1.21-.58,2.29,2.29,0,0,1-.73-1.27,2.59,2.59,0,0,1,.2-1.82,2,2,0,0,1,1.17-1.14,1.36,1.36,0,0,1,1.31.22,2.64,2.64,0,0,1,.85,1.45,5.36,5.36,0,0,1,.15.88l-1.18.24Q250.61,162.23,250.55,162Z"/><path class="cls-16" d="M252.75,163.33a8.42,8.42,0,0,1-.24-2.84,3,3,0,0,1,.43-1.32,1.68,1.68,0,0,1,2-.74,1.8,1.8,0,0,1,.84.61,5.44,5.44,0,0,1,1,2,7.26,7.26,0,0,1,.21,3,1.93,1.93,0,0,1-1.24,1.74Q253.62,166.51,252.75,163.33Zm1.52-.33c.3,1.12.66,1.61,1.09,1.48.18-.06.25-.43.21-1.09a9.53,9.53,0,0,0-.29-1.86c-.34-1.26-.69-1.84-1-1.73s-.32.47-.28,1.19A10.32,10.32,0,0,0,254.27,163Z"/><path class="cls-16" d="M259.23,156.7q1.66-.52,2.55,2.74.47,1.71.81,3.69l-1.52.3c-.21-1.16-.47-2.31-.78-3.46s-.61-1.68-.88-1.59-.21.49-.2,1.35a13,13,0,0,0,.23,2.46l.69,2.16-1.53.3c-.46-1.36-.84-2.57-1.12-3.63s-.52-2-.69-2.87l1-.17q.06.11.45.9C258.39,157.58,258.73,156.86,259.23,156.7Z"/><path class="cls-16" d="M266,152.22a3.39,3.39,0,0,1,1.31-.72,1.78,1.78,0,0,1,1.5.19,2.36,2.36,0,0,1,1,1.51A3.51,3.51,0,0,1,269,156a2.3,2.3,0,0,1,1.83,1.68,3.11,3.11,0,0,1-.26,2.42,2.57,2.57,0,0,1-1.44,1.36,3.81,3.81,0,0,1-1.62.17l-.67-1.55a3.62,3.62,0,0,0,1.14-.18,2.27,2.27,0,0,0,1.06-.7,1,1,0,0,0,.3-.94,1,1,0,0,0-.52-.65,1.1,1.1,0,0,0-.89-.05,3.22,3.22,0,0,0-1,.54l-.85-1.39a8.78,8.78,0,0,0,1.76-1.75,1.71,1.71,0,0,0,.43-1.28c-.1-.35-.31-.48-.64-.38a3.65,3.65,0,0,0-1.54,1.48l-1.19-1.15A6.94,6.94,0,0,1,266,152.22Z"/><rect class="cls-16" x="286.94" y="127.02" width="0.66" height="25.9" transform="translate(-14.45 34.7) rotate(-6.74)"/><rect class="cls-16" x="287.03" y="127.65" width="0.66" height="25.35" transform="translate(-31.71 161.78) rotate(-29.87)"/><rect class="cls-16" x="275.58" y="139.41" width="24.84" height="0.66" transform="translate(56.09 360.39) rotate(-69.46)"/><rect class="cls-16" x="287.82" y="131.22" width="0.66" height="18.77" transform="translate(125.04 416.64) rotate(-85.43)"/></g></g></svg>