<svg xmlns="http://www.w3.org/2000/svg" viewBox="0 0 196.24 205.32"><defs><style>.cls-1{isolation:isolate;}.cls-2,.cls-6{opacity:0.1;}.cls-2{mix-blend-mode:multiply;}.cls-3{fill:#43aaaf;}.cls-4{fill:#fff;}.cls-5{fill:#f4e558;}.cls-7{fill:#f7981d;}.cls-8{fill:#875712;}</style></defs><title>logo</title><g class="cls-1"><g id="Calque_1" data-name="Calque 1"><circle class="cls-2" cx="98.29" cy="107.37" r="97.95"/><circle class="cls-3" cx="97.06" cy="102.01" r="96.31"/><path class="cls-4" d="M97,199.07a97,97,0,1,1,6-.18C101,199,99,199.07,97,199.07ZM97.13,6.46c-2,0-3.92.06-5.9.18A95.55,95.55,0,0,0,97,197.56q2.94,0,5.89-.18A95.55,95.55,0,0,0,97.13,6.46Z"/><polygon class="cls-5" points="2 69.02 27.43 149.94 188.51 86.76 178.48 27.62 2 69.02"/><g class="cls-6"><polygon points="63.88 69.92 63.93 74.8 52.25 76.87 54.47 102.21 67.15 102.07 67.21 107.92 54.53 108.06 55.69 125.6 67.39 125.48 67.44 129.38 49.91 132.49 46.33 70.11 63.88 69.92"/><polygon points="129.18 65.33 129.23 70.2 117.55 72.28 119.77 97.61 132.45 97.48 132.51 103.33 119.83 103.47 120.99 121.01 132.69 120.89 132.74 124.79 115.21 127.9 111.63 65.51 129.18 65.33"/><polyline points="93.77 129.1 90.18 66.72 107.73 66.53 107.79 71.41 96.1 73.48 98.32 98.82 111 98.68 111.06 104.53 98.39 104.67 99.61 128.06"/><path d="M149,95.35l4.86-1L151.64,68s-3-7.77-10.8-6.71-7.7,9.84-7.7,9.84.25,23.4,2.22,25.33c3,2.9,13.76,9.61,14.77,12.53s5,15.55-1.78,16.6-6.89-5.78-6.89-5.78l-1.11-12.67-5.84,1,3.11,17.52s4,5.81,10.78,4.76,7.7-9.83,7.7-9.83S157,109.9,154,105.05c-2-4.85-11.78-7.67-12.79-10.59S138,71.09,138,71.09s.92-4.89,3.85-4.92S146.78,69,146.78,69Z"/><path d="M36.23,61.23c-5.39-3.45-19.31-4.47-19.31-4.47l7.3,82.83s18.15-3.7,20.24-8.39S41.61,64.67,36.23,61.23Zm2.52,65.35c-1.13,4-11.07,7.14-11.07,7.14L23.4,62.53S31,63.45,34,66.43,39.88,122.55,38.75,126.58Z"/><polygon points="80.33 75.68 86.18 75.62 81.79 123.93 77.9 124.74 61.83 78.97 68.65 78.12 82.64 109.66 80.33 75.68"/><polygon points="173.9 51.2 174.92 56.06 163.23 57.16 166.92 129.3 161.07 129.36 158.35 57.22 147.62 56.35 147.56 51.48 173.9 51.2"/></g><polygon class="cls-7" points="63.63 65.82 63.68 70.7 52 72.77 54.22 98.11 66.9 97.97 66.96 103.83 54.28 103.96 55.44 121.5 67.14 121.38 67.19 125.28 49.66 128.39 46.08 66.01 63.63 65.82"/><path class="cls-8" d="M49,129.28l-3.68-64,19.1-.2.06,6.27L52.81,73.39l2.1,24,12.73-.14.08,7.36-12.63.13,1.06,16,11.74-.12.06,5.29ZM46.87,66.75l3.5,60.75,16.05-2.85,0-2.51-11.67.12-1.26-19.05,12.73-.13,0-4.34-12.62.13L51.19,72.15l11.73-2.08,0-3.49Z"/><polygon class="cls-7" points="128.93 61.23 128.98 66.1 117.3 68.18 119.52 93.51 132.2 93.38 132.26 99.23 119.58 99.37 120.74 116.91 132.44 116.79 132.49 120.69 114.96 123.8 111.38 61.41 128.93 61.23"/><path class="cls-8" d="M114.26,124.69l-3.68-64,19.1-.21.06,6.28L118.11,68.8l2.1,24,12.73-.13L133,100l-12.63.13,1.06,16,11.74-.13.06,5.3Zm-2.09-62.53,3.5,60.75,16-2.85,0-2.51-11.66.12-1.27-19,12.73-.13-.05-4.35-12.62.14-2.34-26.72,11.73-2.09,0-3.48Z"/><polyline class="cls-7" points="93.52 125 89.93 62.62 107.48 62.43 107.54 67.31 95.85 69.38 98.07 94.72 110.75 94.58 110.81 100.43 98.14 100.57 99.36 123.96"/><polygon class="cls-8" points="92.76 125.05 89.13 61.87 108.23 61.67 108.3 67.94 96.67 70 98.76 93.95 111.5 93.82 111.58 101.18 98.93 101.31 100.11 123.92 98.6 124 97.34 99.82 110.05 99.69 110 95.35 97.38 95.48 95.04 68.76 106.77 66.67 106.74 63.19 90.73 63.36 94.27 124.96 92.76 125.05"/><path class="cls-7" d="M148.75,91.25l4.87-1-2.23-26.31s-3-7.78-10.8-6.72-7.7,9.84-7.7,9.84.25,23.4,2.22,25.33c3,2.9,13.76,9.61,14.76,12.53s5,15.55-1.77,16.6-6.89-5.78-6.89-5.78l-1.11-12.67-5.84,1,3.11,17.52s4,5.81,10.78,4.76,7.7-9.83,7.7-9.83.86-10.74-2.12-15.59c-2-4.85-11.78-7.67-12.79-10.59S137.77,67,137.77,67s.92-4.89,3.85-4.92,4.91,2.87,4.91,2.87Z"/><path class="cls-8" d="M146.49,127.26c-6.1,0-9.58-5-9.74-5.22l-.09-.14-3.27-18.42,7.39-1.32L142,115.65a6.33,6.33,0,0,0,1.8,4.23,5.09,5.09,0,0,0,4.22.87,3.22,3.22,0,0,0,2.41-1.56c2.14-3.54-.4-11.65-1.23-14-.56-1.63-5.43-5.22-9-7.84a62.47,62.47,0,0,1-5.59-4.39c-2-2-2.38-20.3-2.44-25.86,0-.1,0-9.46,8.35-10.6s11.57,7.11,11.6,7.19l0,.21,2.29,27-6.35,1.34-2.29-26.95c-.42-.54-2-2.4-4.13-2.4h0c-2,0-2.95,3.56-3.1,4.21.75,7.08,2.36,20.86,3.13,23.08.35,1,2.58,2.34,4.73,3.6,3.18,1.87,6.78,4,8,6.9,3,5,2.23,15.54,2.19,16s-1,9.4-8.33,10.52A12.39,12.39,0,0,1,146.49,127.26Zm-8.4-6c.61.83,4.15,5.21,9.95,4.32,6.15-.95,7.05-9.09,7.06-9.17s.8-10.53-2-15.11l-.05-.11c-1-2.47-4.42-4.46-7.42-6.22-2.6-1.54-4.85-2.86-5.39-4.41-1-3-3.12-22.71-3.21-23.54V67l0-.11c0-.23,1.08-5.5,4.58-5.54h.06c3.26,0,5.39,3.08,5.48,3.21l.11.16,0,.2,2.15,25.46,3.38-.71-2.16-25.54c-.37-.88-3.23-7.05-10-6.14-7,.95-7.05,8.75-7,9.08.12,11.29.89,23.66,2,24.81a66.79,66.79,0,0,0,5.43,4.25c5.15,3.8,8.85,6.64,9.52,8.56,1.13,3.28,3.5,11.33,1.1,15.32a4.7,4.7,0,0,1-3.48,2.27,6.48,6.48,0,0,1-5.43-1.22,7.63,7.63,0,0,1-2.32-5.29l-1-11.79-4.28.76Z"/><path class="cls-7" d="M36,57.13c-5.39-3.45-19.31-4.47-19.31-4.47L24,135.49s18.15-3.69,20.24-8.39S41.36,60.58,36,57.13Zm2.52,65.35c-1.13,4-11.07,7.14-11.07,7.14L23.15,58.43s7.64.93,10.61,3.9S39.63,118.45,38.5,122.48Z"/><path class="cls-8" d="M23.29,136.4,15.84,51.85l.89.06C17.3,52,30.9,53,36.38,56.49h0c3.5,2.24,6,22.94,7.27,35.08,1.55,15.52,2.44,33.17,1.25,35.84-2.19,4.91-18.88,8.43-20.78,8.82ZM17.5,53.49l7.15,81.09c5.44-1.19,17.37-4.41,18.87-7.78.82-1.85.46-16.71-1.37-35.08-2.2-22-4.89-32.87-6.58-33.95C31.18,55,20.63,53.78,17.5,53.49Zm9.23,77.14-4.38-73,.89.1c.33,0,7.94,1,11.05,4.12,2,2,3.42,19.74,4.13,30.16.9,13.32,1.45,28.45.81,30.72C38,127,28.71,130,27.65,130.34ZM24,59.32l4.16,69.27c3.09-1.09,8.9-3.64,9.65-6.32C39,118,35.83,65.5,33.22,62.87,31.05,60.69,26,59.66,24,59.32Z"/><polygon class="cls-7" points="80.08 71.58 85.93 71.52 84.28 119.66 80.39 120.48 61.58 74.87 68.4 74.03 79.79 100.32 80.08 71.58"/><path class="cls-8" d="M79.93,121.34,60.5,74.24l8.36-1L79.07,96.76l.26-25.92,7.38-.08L85,120.28ZM62.65,75.5l18.2,44.11,2.69-.57,1.6-46.76-4.32,0-.31,31.55-12.58-29Z"/><polygon class="cls-7" points="173.65 47.1 174.67 51.97 162.98 53.06 166.67 125.2 160.82 125.26 158.1 53.12 147.37 52.25 147.31 47.38 173.65 47.1"/><path class="cls-8" d="M160.09,126l-2.71-72.22L146.62,53l-.07-6.32,27.71-.29,1.33,6.3-11.82,1.11,3.69,72.2Zm-12-74.47,10.72.86,2.72,72.08,4.33,0-3.69-72.08,11.57-1.09L173,47.86l-25,.26Z"/><path class="cls-4" d="M72.83,178.57c-.14-2.44,2.63-3.21,4.59-2.48.49.18,1.07,1.15,1.55,1.49a4.81,4.81,0,0,0,2.23,1c1.9.25,3.54-1,5-2,1-.73,2.28-1.95,3.57-2.16,2-.33,3.45,1.41,5.09,2.1a4.18,4.18,0,0,0,4.74-.71c3.75-3,5.84-.91,9.82-.26,2.93.48,3.77-.77,6.24-2,3.49-1.69,5.27,1.3,8.54,1.22,2.11-.06,8.32-5.25,9.42-2.38.52,1.35,2.71.76,2.19-.6-.86-2.22-2.88-2.93-5.18-2.44-1.61.35-2.68,1.49-4.1,2.22-3.27,1.66-4.17,0-6.67-.95-4.28-1.6-6.5,3.54-10.76,2.5-2.8-.67-5.61-2.47-8.48-1.08-2.1,1-3,3-5.79,1.84-1.35-.57-2.31-1.65-3.85-1.81-3-.31-4.94,2.11-7.27,3.47-3.27,1.91-5.38-3.1-9-2.37a5.19,5.19,0,0,0-4.14,5.41c.08,1.45,2.34,1.46,2.27,0Z"/><polyline class="cls-5" points="89.09 151.91 89.6 159.51 94.67 159.46 94.68 161.15 87.09 162.49 85.54 135.47 87.95 135.44"/><polyline class="cls-5" points="99.34 151.28 99.85 158.88 104.92 158.83 104.93 160.52 97.34 161.87 95.79 134.85 98.2 134.81"/><polyline class="cls-5" points="107.75 150.77 108.25 158.37 113.32 158.32 113.33 160 105.74 161.35 104.19 134.33 106.6 134.3"/><line class="cls-5" x1="87.95" y1="135.44" x2="89.13" y2="151.89"/><polygon class="cls-5" points="90.84 138.47 91.87 155.44 94.39 155.28 93.69 138.29 90.84 138.47"/><polygon class="cls-5" points="115.56 134.12 115.57 135.73 111.72 136.42 112.45 144.78 116.63 144.74 116.65 146.67 112.47 146.71 112.85 152.51 116.72 152.47 116.73 153.75 110.94 154.78 109.76 134.18 115.56 134.12"/><path class="cls-4" d="M44.12,44.18A6.21,6.21,0,0,0,44,42.63a1.53,1.53,0,0,0-.58-.9,1.1,1.1,0,0,0-.93-.18,1.07,1.07,0,0,0-.74.72,2.12,2.12,0,0,0-.05,1.25,2.67,2.67,0,0,0,2,1.81c1.12.38,1.89.67,2.31.86a3.5,3.5,0,0,1,.94.57,3.61,3.61,0,0,1,1,1.69,3.45,3.45,0,0,1-.44,2.88,3.8,3.8,0,0,1-2.23,1.58,3.44,3.44,0,0,1-3.08-.69,11.94,11.94,0,0,1-2.09-2.11l1.55-1.29a6.33,6.33,0,0,0,1.5,1.58,1.84,1.84,0,0,0,1.51.42,1.38,1.38,0,0,0,.75-.5,1.1,1.1,0,0,0,.14-1,1.66,1.66,0,0,0-.73-1,7.73,7.73,0,0,0-1.47-.73c-.59-.22-1.06-.41-1.39-.56a9.15,9.15,0,0,1-1.14-.63,4,4,0,0,1-1.17-5.29A3.76,3.76,0,0,1,42,39.42a3.4,3.4,0,0,1,2.85.54,3.74,3.74,0,0,1,1.65,2.15,4.55,4.55,0,0,1,.06,2.25Z"/><path class="cls-4" d="M49.16,43.1a2.46,2.46,0,0,1,1.74-1.49,2,2,0,0,1,2.08.57,6.13,6.13,0,0,1,1.32,2.75q.47,1.89,1.08,5.25l-1.55.26-.29-.55a3.58,3.58,0,0,1-1.61.93,2.06,2.06,0,0,1-1.62-.22,2.39,2.39,0,0,1-1-1.55,2.35,2.35,0,0,1,.62-2.17,4.45,4.45,0,0,1,2.31-1.47l-.12-.49c-.24-1-.59-1.37-1-1.25-.23,0-.39.26-.5.63a3.6,3.6,0,0,0-.13,1.2l-1.71.25A5.83,5.83,0,0,1,49.16,43.1Zm2,5.6c.1.38.38.52.83.4a2.77,2.77,0,0,0,1-.46l-.35-1.53a2.48,2.48,0,0,0-1.18.74A1,1,0,0,0,51.18,48.7Z"/><path class="cls-4" d="M54.72,37.36l2.09-.27.33,2.07-2.09.26Zm.66,3.23,2.11-.32L59.67,49l-2.11.32Z"/><path class="cls-4" d="M63.42,41.68c-.18-.72-.45-1-.81-1a.68.68,0,0,0-.43.39,1,1,0,0,0,0,.76,1.41,1.41,0,0,0,.35.69,1.83,1.83,0,0,0,.78.41l.84.27a7.94,7.94,0,0,1,.74.33A2.16,2.16,0,0,1,66,45.07a2.08,2.08,0,0,1-.35,1.84A2.75,2.75,0,0,1,64.08,48a3.18,3.18,0,0,1-1.86-.08,4.12,4.12,0,0,1-1.56-1l.7-1.34c.69.71,1.3,1,1.83.86a.7.7,0,0,0,.43-.27.52.52,0,0,0,.1-.47c-.1-.39-.47-.68-1.1-.86A5.16,5.16,0,0,1,61,44.09,2.57,2.57,0,0,1,60,42.53a2.77,2.77,0,0,1,.41-2.2A2.87,2.87,0,0,1,62.15,39a2.14,2.14,0,0,1,1.83.3A3,3,0,0,1,65.07,41a6.52,6.52,0,0,1,.16,1.07l-1.69.27A4.55,4.55,0,0,0,63.42,41.68Z"/><path class="cls-4" d="M66.42,43.35a8.55,8.55,0,0,1-.14-3.46A3.68,3.68,0,0,1,67,38.3a2.37,2.37,0,0,1,1.35-.88,2.59,2.59,0,0,1,1.49,0A2.35,2.35,0,0,1,71,38.2a5.94,5.94,0,0,1,1.26,2.49,7.63,7.63,0,0,1,.08,3.7,2.57,2.57,0,0,1-1.87,2.1C68.4,47,67.07,46,66.42,43.35ZM68.58,43c.34,1.37.81,2,1.42,1.82.26-.06.39-.5.38-1.31a10.07,10.07,0,0,0-.28-2.27c-.39-1.54-.84-2.25-1.34-2.13-.33.09-.49.56-.48,1.44A10.47,10.47,0,0,0,68.58,43Z"/><path class="cls-4" d="M76,35.43q2.39-.6,3.39,3.39c.35,1.39.64,2.9.88,4.5l-2.17.34c-.21-1.41-.49-2.82-.84-4.22s-.73-2.06-1.13-2c-.19.05-.32.59-.38,1.64a13.93,13.93,0,0,0,.16,3c.15.49.42,1.37.82,2.64l-2.17.34c-.56-1.67-1-3.15-1.33-4.44s-.57-2.46-.76-3.5l1.38-.2c0,.1.23.46.56,1.11C74.75,36.49,75.28,35.61,76,35.43Z"/><path class="cls-4" d="M85.81,30.13a5.56,5.56,0,0,1,1.89-.85,2.92,2.92,0,0,1,2.11.26,2.75,2.75,0,0,1,1.33,1.87c.22.89-.24,2-1.4,3.32a2.93,2.93,0,0,1,2.45,2.09,3.42,3.42,0,0,1-.53,2.93,3.84,3.84,0,0,1-2.13,1.64,6.45,6.45,0,0,1-2.29.16l-.82-1.9a5.45,5.45,0,0,0,1.6-.2,3.32,3.32,0,0,0,1.55-.82,1.19,1.19,0,0,0,.48-1.14,1.22,1.22,0,0,0-.68-.81,1.84,1.84,0,0,0-1.26-.08,5.2,5.2,0,0,0-1.45.64l-1.09-1.71a11.69,11.69,0,0,0,2.59-2.08c.56-.65.79-1.17.7-1.55s-.4-.59-.87-.48a5.18,5.18,0,0,0-2.27,1.77l-1.59-1.43A10.07,10.07,0,0,1,85.81,30.13Z"/><rect class="cls-4" x="116.22" y="-0.02" width="0.75" height="31.45" transform="translate(-0.87 9.1) rotate(-4.45)"/><rect class="cls-4" x="116.32" y="0.39" width="0.75" height="31.49" transform="matrix(0.86, -0.51, 0.51, 0.86, 8.29, 62.25)"/><rect class="cls-4" x="101.97" y="15.06" width="31.35" height="0.75" transform="translate(51.66 114.05) rotate(-63.69)"/><rect class="cls-4" x="117.41" y="3.35" width="0.75" height="26.28" transform="translate(91.34 132.45) rotate(-85.12)"/></g></g></svg>