<svg id="Calque_1" data-name="Calque 1" xmlns="http://www.w3.org/2000/svg" viewBox="0 0 233.52 97.7"><defs><style>.cls-1{fill:none;stroke:#fff;stroke-miterlimit:10;}.cls-2{fill:#898a8c;}.cls-3{fill:#4ed5f9;}.cls-4,.cls-6,.cls-9{fill:#fff;}.cls-5{fill:#8a8a8e;opacity:0.5;}.cls-6{opacity:0.51;}.cls-7{opacity:0.39;}.cls-8{opacity:0.27;}.cls-9{opacity:0.78;}</style></defs><title>ship</title><path class="cls-1" d="M58.62,62.11s-6,4.67,0,14"/><path class="cls-2" d="M34.33,65.57a67.55,67.55,0,0,1-.7,9.73,29.17,29.17,0,0,1-1.1,4.77,11.4,11.4,0,0,1-1,2.26,4.24,4.24,0,0,1-.8,1,1.9,1.9,0,0,1-1.24.55,2,2,0,0,1-1.26-.53,4.33,4.33,0,0,1-.83-1,11.53,11.53,0,0,1-1.06-2.25,29.4,29.4,0,0,1-1.22-4.78A64.13,64.13,0,0,1,25,55.77,28.18,28.18,0,0,1,26.11,51a11.75,11.75,0,0,1,1.07-2.31,5,5,0,0,1,.87-1,2,2,0,0,1,2.84,0,5.15,5.15,0,0,1,.84,1.06,11.87,11.87,0,0,1,1,2.32,28.78,28.78,0,0,1,1,4.82c.23,1.62.35,3.25.44,4.88S34.35,63.94,34.33,65.57Zm-.1,0a52.15,52.15,0,0,0-1-9.67A30.33,30.33,0,0,0,32,51.26a10.71,10.71,0,0,0-1-2.1c-.41-.63-1-1.18-1.48-1.16s-1.05.56-1.43,1.18a10.73,10.73,0,0,0-1,2.12,28.92,28.92,0,0,0-1.17,4.64,59.53,59.53,0,0,0-.84,9.63,58.9,58.9,0,0,0,.67,9.66,28.48,28.48,0,0,0,1.12,4.68,11.48,11.48,0,0,0,1,2.17c.41.64,1,1.28,1.64,1.3s1.26-.63,1.68-1.27a11,11,0,0,0,1-2.16,28.59,28.59,0,0,0,1.22-4.69A53.34,53.34,0,0,0,34.23,65.57Z"/><path class="cls-2" d="M13.44,60.2a141.68,141.68,0,0,1-.92,16.21,62.09,62.09,0,0,1-1.44,8,23.27,23.27,0,0,1-1.3,3.88,9,9,0,0,1-1,1.8,2.59,2.59,0,0,1-1.86,1.14A2.6,2.6,0,0,1,5,90.11,8.86,8.86,0,0,1,4,88.31,23.72,23.72,0,0,1,2.6,84.44a64.18,64.18,0,0,1-1.55-8A129.61,129.61,0,0,1,0,60.2,128.06,128.06,0,0,1,.88,44a65.06,65.06,0,0,1,1.52-8A24.45,24.45,0,0,1,3.75,32a8.67,8.67,0,0,1,1.08-1.85,2.83,2.83,0,0,1,2.06-1.22,2.83,2.83,0,0,1,2.05,1.23A8.89,8.89,0,0,1,10,32a23.33,23.33,0,0,1,1.31,3.91,63.4,63.4,0,0,1,1.37,8c.31,2.7.49,5.41.6,8.11S13.46,57.5,13.44,60.2Zm-.1,0A115,115,0,0,0,12.15,44a63.47,63.47,0,0,0-1.64-7.89A22.56,22.56,0,0,0,9.17,32.4a7.66,7.66,0,0,0-1-1.64,1.87,1.87,0,0,0-1.3-.83,1.87,1.87,0,0,0-1.27.84,7.7,7.7,0,0,0-1,1.65,23.35,23.35,0,0,0-1.29,3.75,63.62,63.62,0,0,0-1.5,7.9A127.88,127.88,0,0,0,.8,60.2a128.05,128.05,0,0,0,.9,16.15,64.12,64.12,0,0,0,1.45,7.94,24.63,24.63,0,0,0,1.29,3.8,8.33,8.33,0,0,0,1,1.69,2.11,2.11,0,0,0,1.46,1,2.1,2.1,0,0,0,1.49-.93,8.44,8.44,0,0,0,1-1.69,24,24,0,0,0,1.34-3.79,64.43,64.43,0,0,0,1.57-7.94A116.61,116.61,0,0,0,13.34,60.2Z"/><path class="cls-2" d="M47.32,67.83A52.07,52.07,0,0,1,47,73.54a19.61,19.61,0,0,1-.54,2.83,6.86,6.86,0,0,1-.51,1.37,2.62,2.62,0,0,1-.43.65,1,1,0,0,1-1.57,0,2.71,2.71,0,0,1-.46-.64,7.77,7.77,0,0,1-.57-1.37,20,20,0,0,1-.65-2.83,40.89,40.89,0,0,1-.47-5.74,40,40,0,0,1,.31-5.78,18.06,18.06,0,0,1,.59-2.87,8,8,0,0,1,.57-1.41,3.49,3.49,0,0,1,.5-.7,1.4,1.4,0,0,1,1-.47,1.35,1.35,0,0,1,1,.49,3.18,3.18,0,0,1,.47.7,8.13,8.13,0,0,1,.52,1.42,19.2,19.2,0,0,1,.47,2.88c.1.95.13,1.91.16,2.87S47.33,66.87,47.32,67.83Zm-.1,0a31.42,31.42,0,0,0-.61-5.66,19.61,19.61,0,0,0-.73-2.71,6.93,6.93,0,0,0-.54-1.24c-.19-.36-.53-.65-.62-.62s-.39.28-.57.65a7.6,7.6,0,0,0-.48,1.24,20.11,20.11,0,0,0-.61,2.71,42.2,42.2,0,0,0-.48,5.63,39.57,39.57,0,0,0,.32,5.65,18.09,18.09,0,0,0,.55,2.75,7.64,7.64,0,0,0,.49,1.29c.2.38.5.76.78.78s.62-.38.84-.76a6.65,6.65,0,0,0,.54-1.28,19.69,19.69,0,0,0,.67-2.75A33.73,33.73,0,0,0,47.22,67.83Z"/><path class="cls-3" d="M69.26,37.17s4.22,59.34,76.23,59.34,86.82-50.93,86.82-50.93"/><path d="M69.41,37.16c2.34,17.59,11.86,34.28,26.28,44.49a69,69,0,0,0,11.45,6.55,75.45,75.45,0,0,0,12.5,4.25,102,102,0,0,0,26.25,2.85,126.27,126.27,0,0,0,26.25-3,98.91,98.91,0,0,0,24.68-8.94,82.11,82.11,0,0,0,20.91-15.78A76,76,0,0,0,226,57.25a60.61,60.61,0,0,0,6.22-11.72l.28.09C230,54.27,225.12,62.11,219.28,69a77.81,77.81,0,0,1-21,17,98.35,98.35,0,0,1-12.4,5.58,99.42,99.42,0,0,1-13.08,3.62,128.61,128.61,0,0,1-26.88,2.49,104.05,104.05,0,0,1-26.74-3.37,76.94,76.94,0,0,1-12.73-4.56,69.73,69.73,0,0,1-11.61-6.91A63.37,63.37,0,0,1,77.24,62.61a67.84,67.84,0,0,1-5.33-12.32,61.89,61.89,0,0,1-2.8-13.11Z"/><path class="cls-3" d="M71.6,44C67.51,40.09,69,32.32,74.13,31a289.37,289.37,0,0,1,71.36-8.8c35.77,0,68.64,10.76,83.69,16.52,3.67,1.41,4.26,7.27,1,9.66C216.78,58.15,187,71.66,148.3,71.66,111.66,71.66,84.68,56.29,71.6,44Z"/><path d="M71.5,44.06a8.53,8.53,0,0,1-1.11-10.42,7.39,7.39,0,0,1,2-2,8.24,8.24,0,0,1,2.63-1c1.79-.46,3.59-.89,5.39-1.31q10.8-2.54,21.78-4.25a298,298,0,0,1,44.26-3.6,219.71,219.71,0,0,1,44.2,4.83q10.89,2.28,21.57,5.47c3.56,1.05,7.09,2.2,10.61,3.4,1.75.61,3.51,1.22,5.25,1.87l1.3.48a6.9,6.9,0,0,1,.74.32,4.11,4.11,0,0,1,.76.45A6.2,6.2,0,0,1,232.93,41a7.52,7.52,0,0,1-.28,6.43c-.15.24-.3.48-.46.72l-.56.66c-.21.2-.44.38-.66.57s-.39.28-.58.42l-2.32,1.62a105.69,105.69,0,0,1-9.7,5.66,138.59,138.59,0,0,1-20.69,8.54A160.6,160.6,0,0,1,176,70.91,173.2,173.2,0,0,1,153.68,73a128.45,128.45,0,0,1-22.34-1.29,120.57,120.57,0,0,1-21.69-5.34,116.7,116.7,0,0,1-20.24-9.25A94.87,94.87,0,0,1,71.5,44.06Zm.2-.22a89.43,89.43,0,0,0,8.63,6.91,97.91,97.91,0,0,0,9.44,5.76,113.33,113.33,0,0,0,20.38,8.38,123.75,123.75,0,0,0,21.52,4.4,127.29,127.29,0,0,0,21.91.76,165.38,165.38,0,0,0,43.2-7.31,137.15,137.15,0,0,0,20.37-8.1,106.06,106.06,0,0,0,9.53-5.39l2.25-1.53c.17-.13.39-.26.54-.38l.39-.34.34-.39.29-.44a5.07,5.07,0,0,0,.23-4.29,3.84,3.84,0,0,0-1.26-1.66A1.7,1.7,0,0,0,229,40a4.13,4.13,0,0,0-.53-.23l-1.29-.5c-1.71-.66-3.45-1.28-5.18-1.9-3.47-1.22-7-2.4-10.48-3.48-7-2.17-14.16-4.07-21.35-5.64A216.82,216.82,0,0,0,146.4,23a296.74,296.74,0,0,0-44.16,2.72c-7.31,1-14.59,2.3-21.8,3.92-1.8.42-3.6.85-5.39,1.31a7.81,7.81,0,0,0-2.53,1,6.62,6.62,0,0,0-1.87,1.93A8.22,8.22,0,0,0,71.7,43.84Z"/><path class="cls-4" d="M101,39.84a.59.59,0,0,1,0-.23l0-.14,0-.27.09-.53.23-1.06c.16-.7.33-1.41.53-2.1a43,43,0,0,1,1.34-4.12,50.06,50.06,0,0,1,3.68-7.85,45.53,45.53,0,0,1,11.29-13.12c1.13-.93,2.35-1.72,3.55-2.55s2.48-1.52,3.8-2.15,2.64-1.23,4-1.82c.68-.26,1.37-.49,2.06-.74a19.26,19.26,0,0,1,2.07-.68,65.79,65.79,0,0,1,34.56-.34c1.43.34,2.8.89,4.19,1.34s2.74,1.07,4.05,1.76A42.28,42.28,0,0,1,184,9.85,45.4,45.4,0,0,1,195.6,23a50.73,50.73,0,0,1,3.84,8,44.84,44.84,0,0,1,2.4,8.59l.2,1.15-1.16.34a192.7,192.7,0,0,1-24.78,5.57,165,165,0,0,1-25.32,2,145.21,145.21,0,0,1-25.26-2.47c-4.15-.77-8.29-1.6-12.37-2.68-2-.53-4.07-1.08-6.09-1.68-1-.3-2-.59-3-.93l-1.5-.49-.75-.26A5.64,5.64,0,0,1,101,39.84Zm.26-.16,6,1.41c2,.45,4.11.87,6.16,1.26,4.12.77,8.25,1.48,12.4,2a171,171,0,0,0,24.94,1.53,187,187,0,0,0,24.87-2.33q6.18-.91,12.32-2.2c4.07-.86,8.17-1.8,12.14-2.91l-1,1.49c-1.84-10.85-7.61-21.51-16.48-28.38a40,40,0,0,0-7.1-4.5c-1.23-.68-2.55-1.17-3.84-1.74s-2.64-1-4-1.35a61.28,61.28,0,0,0-16.8-2.33A62.63,62.63,0,0,0,134,3.77a18.41,18.41,0,0,0-2,.62c-.67.23-1.35.43-2,.68-1.31.55-2.65,1-3.91,1.7s-2.51,1.32-3.75,2-2.39,1.53-3.51,2.41C109.67,18,103.54,28.7,101.22,39.68Z"/><path class="cls-5" d="M101.09,39.76S106.58.82,151,.82s49.46,38.94,49.46,38.94-24,7.29-49.58,7.53S101.09,39.76,101.09,39.76Z"/><path class="cls-3" d="M80.9,56.13l-14.57,1V63.3l-9.8-1.44s2,3.23,2,5.38-2,4.66-2,4.66L73,68.55V61.39H80.9S83.77,63.54,80.9,56.13Z"/><path d="M80.82,56.26,66.37,57.67l.54-.58.18,6.21,0,.86-.89-.11-9.83-1.22,1-1.49a21.64,21.64,0,0,1,1.39,2.54,9.71,9.71,0,0,1,.9,2.95A6.39,6.39,0,0,1,59,70.06a13.15,13.15,0,0,1-1.53,2.63l-1.22-2,8.2-1.9c2.74-.61,5.47-1.23,8.23-1.71l-1.22,1.49c0-1.19.05-2.39.1-3.58s.06-2.39.13-3.58L71.8,60l1.22.06c2.62.12,5.25.27,7.88.47l.39,0,.1.14c.08.09.33.19.23.19s-.21.12-.2.15,0,0,.06-.1a4.66,4.66,0,0,0,0-1.48q-.12-.81-.3-1.65L81,57C80.89,56.74,80.87,56.55,80.82,56.26ZM81,56c.15.24.33.58.46.84s.26.51.38.78c.24.53.47,1.06.66,1.62a5.4,5.4,0,0,1,.36,1.9,1.68,1.68,0,0,1-.19.7,1.21,1.21,0,0,1-.89.58A2,2,0,0,1,80.41,62l.49.17c-2.63.2-5.26.35-7.88.47l1.29-1.29c.07,1.19.09,2.39.14,3.58s.08,2.39.09,3.58l0,1.22-1.24.28c-2.73.63-5.49,1.13-8.25,1.64l-8.29,1.44-3.38.58,2.16-2.6a10.85,10.85,0,0,0,1.33-2A4.36,4.36,0,0,0,57.44,67a7.65,7.65,0,0,0-.61-2.3,17.16,17.16,0,0,0-1.13-2.32l-1.05-1.84,2,.35,9.77,1.65-.87.75.17-6.21,0-.57.53,0Z"/><path d="M58.88,67c0,3.36-2.11,6.08-4.21,6.08S51.28,70.39,51.28,67s1.7-6.09,3.8-6.09S58.88,63.67,58.88,67Z"/><polygon class="cls-6" points="107.45 41.55 78.94 50.04 85.53 54.48 107.45 41.55"/><polygon class="cls-7" points="82.17 61.39 81.81 58.76 70.99 58.64 70.99 66.28 59.28 66.76 56.53 71.9 72.9 68.43 72.9 61.51 82.17 61.39"/><path class="cls-8" d="M153.91,83.82c-17,1.81-52.55-6.21-66.44-8.78,10.19,10.87,27.9,20.75,58.62,20.75,68.29,0,82.34-41.91,82.34-41.91l-.35,0C220,68.2,200.91,78.82,153.91,83.82Z"/><path class="cls-9" d="M142.18,6.79S121.4,8.47,112.32,27.1c-2.15,6.45,22.22-23.17,36.07-20.31Z"/></svg>