<svg id="Calque_1" data-name="Calque 1" xmlns="http://www.w3.org/2000/svg" viewBox="0 0 212.93 407.29"><defs><style>.cls-1{fill:#af1447;}.cls-2{fill:#4c311e;}.cls-3{fill:#1c2c44;}.cls-4{fill:#020202;}.cls-5{opacity:0.63;}.cls-6{fill:#fff;}.cls-7{fill:#54151a;opacity:0.29;isolation:isolate;}.cls-8{fill:#ff9d00;}.cls-9{fill:none;stroke:#54151a;stroke-miterlimit:10;}.cls-10{opacity:0.4;}</style></defs><title>tablet</title><g id="Calque_1-2" data-name="Calque 1"><path class="cls-1" d="M175.71,17.32s6.55,36.32-15.49,58.06S35.13,85.44,13.57,97.67C-.35,115.75-3.51,332.35,6.47,340.31c4.33,3.45,35.26,5.25,69.58,5.37,6.26,0,9.14,60.79,15.49,60.7,6.7-.09,16.88-61.06,23.35-61.28,31.3-1.07,57.9-3.61,61.15-7.64,8-10,11.69-279.12,6.2-314-.85-5.43-3-13.84-3-13.84Z"/><path class="cls-2" d="M175.84,17.34a80,80,0,0,1,.91,13.21,83.63,83.63,0,0,1-1.1,13.22,61,61,0,0,1-9.39,24.66c-.6.93-1.32,1.79-2,2.68a30.53,30.53,0,0,1-2.15,2.55A30.77,30.77,0,0,1,159.82,76a21.7,21.7,0,0,1-2.64,2A45.41,45.41,0,0,1,145,83.46a151.38,151.38,0,0,1-26.11,4.74c-17.62,1.86-35.33,2.33-53,3-8.84.38-17.67.75-26.47,1.49-4.4.38-8.8.85-13.14,1.56-2.17.37-4.32.8-6.44,1.38A27.51,27.51,0,0,0,13.78,98l.12-.11a20.06,20.06,0,0,0-2.54,5.83c-.62,2-1.1,4.18-1.54,6.3-.82,4.25-1.51,8.55-2.09,12.86-1.15,8.61-2,17.28-2.67,26C3.68,166.22,2.82,183.61,2.2,201s-.92,34.8-1,52.21.16,34.81,1,52.19c.45,8.67.95,17.38,2.21,25.93a43,43,0,0,0,1.4,6.22,4.11,4.11,0,0,0,1.37,2.33A11.62,11.62,0,0,0,10.05,341a93.51,93.51,0,0,0,12.79,1.91c8.64.81,17.33,1.26,26,1.51s17.4.43,26.1.46l.82,0a2.22,2.22,0,0,1,1.16.23,3.79,3.79,0,0,1,1.38,1.51,16.27,16.27,0,0,1,1.33,3.16,64.83,64.83,0,0,1,1.62,6.42c.89,4.29,1.6,8.59,2.28,12.92,1.37,8.61,2.52,17.24,4.22,25.73.43,2.11.91,4.22,1.52,6.26a21.21,21.21,0,0,0,1.13,3,5.72,5.72,0,0,0,.73,1.17,1.09,1.09,0,0,0,.33.27c.08.05.07,0,.18,0a2.27,2.27,0,0,0,.84-.7,10.23,10.23,0,0,0,.82-1.24,29.75,29.75,0,0,0,1.38-2.84c.83-2,1.54-4,2.21-6.1,2.66-8.23,4.83-16.67,7.17-25.06,1.16-4.21,2.33-8.4,3.66-12.58.67-2.08,1.36-4.16,2.19-6.22.4-1,.85-2,1.37-3.06a9.18,9.18,0,0,1,2.12-3,2.63,2.63,0,0,1,1.15-.56l.35,0,12-.51q6.53-.27,13-.77A254.67,254.67,0,0,0,165.71,340a49.36,49.36,0,0,0,6.22-1.49,10.88,10.88,0,0,0,2.73-1.19,1.78,1.78,0,0,0,.75-.81,3.51,3.51,0,0,0,.24-.64,3.64,3.64,0,0,0,.22-.71,51.78,51.78,0,0,0,1.17-6.28c.3-2.15.53-4.3.73-6.45.85-8.64,1.41-17.33,1.9-26s.88-17.37,1.23-26.07q1.08-26.07,1.79-52.19,1.37-52.21,1.51-104.44c.05-17.42,0-34.82-.36-52.23-.16-8.7-.38-17.4-.84-26.09a127.64,127.64,0,0,0-1.21-13c-.74-4.28-1.7-8.53-2.72-12.76h.28Zm-.2,0,3.53-7.76.17-.38.1.41c1.06,4.23,2.07,8.46,2.86,12.75a128.87,128.87,0,0,1,1.35,13c.56,8.7.87,17.4,1.11,26.11.49,17.41.62,34.82.69,52.25q.15,52.23-.94,104.48c-.38,17.41-.82,34.82-1.5,52.23q-.52,13-1.25,26.08c-.5,8.69-1.06,17.39-1.89,26.1-.23,2.17-.47,4.34-.78,6.52a52.35,52.35,0,0,1-1.2,6.55c-.07.28-.16.56-.26.84a4.7,4.7,0,0,1-.36.87,3.69,3.69,0,0,1-1.41,1.57,12.52,12.52,0,0,1-3.22,1.43,53.86,53.86,0,0,1-6.47,1.55q-13,2.1-26.07,2.89-6.53.45-13,.77l-12,.51h0a1.11,1.11,0,0,0-.3.17,8.11,8.11,0,0,0-1.61,2.32,29.1,29.1,0,0,0-1.3,2.9c-.79,2-1.49,4.07-2.16,6.1-1.32,4.12-2.51,8.3-3.68,12.48-2.35,8.38-4.53,16.82-7.26,25.14-.69,2.08-1.41,4.15-2.29,6.2A26.93,26.93,0,0,1,95,404.49a10.52,10.52,0,0,1-1.14,1.43,3.82,3.82,0,0,1-1.69,1.28,2.4,2.4,0,0,1-.7.09,1.81,1.81,0,0,1-.72-.17,2.75,2.75,0,0,1-.94-.72,7.64,7.64,0,0,1-1-1.57,24.31,24.31,0,0,1-1.13-3.2c-.65-2.13-1.12-4.28-1.55-6.42-1.7-8.6-2.82-17.24-4.17-25.85-.67-4.29-1.36-8.59-2.22-12.82a60.71,60.71,0,0,0-1.56-6.25A15.3,15.3,0,0,0,77,347.43a2.54,2.54,0,0,0-.76-.9,5.63,5.63,0,0,0-1.23,0Q62,346.41,48.9,346c-8.71-.31-17.43-.74-26.09-1.58a93.78,93.78,0,0,1-13-2,12.35,12.35,0,0,1-3.38-1.23L6,340.88a4.89,4.89,0,0,1-.39-.4,5,5,0,0,1-.52-.82A11.45,11.45,0,0,1,4.44,338a44.61,44.61,0,0,1-1.39-6.49c-1.26-8.67-1.74-17.38-2.17-26.09C.14,288.05-.06,270.62,0,253.2S.47,218.37,1.11,201s1.53-34.81,3-52.17c.72-8.68,1.58-17.36,2.75-26,.6-4.32,1.27-8.64,2.16-12.92.45-2.14.94-4.27,1.56-6.37a20.73,20.73,0,0,1,2.66-6.12l0-.07h.08a28.77,28.77,0,0,1,6.28-2.4c2.15-.58,4.33-1,6.52-1.39,4.38-.73,8.8-1.18,13.2-1.56,8.83-.73,17.67-1.07,26.52-1.41,17.67-.66,35.36-1.07,52.92-2.87a150.41,150.41,0,0,0,26-4.65,45.59,45.59,0,0,0,12.06-5.26,20.87,20.87,0,0,0,2.59-2c.83-.71,1.54-1.56,2.32-2.35s1.44-1.66,2.14-2.51a26.82,26.82,0,0,0,1.95-2.67,60.34,60.34,0,0,0,9.42-24.49,84.47,84.47,0,0,0,1.13-13.19,82.55,82.55,0,0,0-.82-13.24Z"/><path d="M185.84,44.15a109.14,109.14,0,0,1,15.33.9,36.29,36.29,0,0,1,7.56,1.77A8.57,8.57,0,0,1,212.24,49a2.48,2.48,0,0,1,.57,2.45,3.83,3.83,0,0,1-1.52,1.76,15.72,15.72,0,0,1-3.63,1.73c-1.24.44-2.49.8-3.75,1.11-2.52.6-5.07,1.07-7.63,1.42a130.09,130.09,0,0,1-15.4,1.1A142.44,142.44,0,0,1,165.42,58c-2.58-.27-5.15-.62-7.72-1.15a30.21,30.21,0,0,1-7.64-2.53,8.46,8.46,0,0,1-1.9-1.36,4.25,4.25,0,0,1-.86-1.24,2.53,2.53,0,0,1-.22-.93,2.32,2.32,0,0,1,.09-.91,4.46,4.46,0,0,1,1.56-2.25,9.9,9.9,0,0,1,1.88-1.18,28.28,28.28,0,0,1,7.65-2.24,71.15,71.15,0,0,1,15.43-.72v.3a115.71,115.71,0,0,0-15,2.48,29.44,29.44,0,0,0-6.84,2.52,8.8,8.8,0,0,0-1.33.93,1.65,1.65,0,0,0-.6.82h0a1.2,1.2,0,0,0,.26.29,5.72,5.72,0,0,0,1.26.8,31.7,31.7,0,0,0,6.94,2.21c2.42.53,4.9.94,7.39,1.25a127.64,127.64,0,0,0,15.13,1.07,130.2,130.2,0,0,0,15.17-.65,75.29,75.29,0,0,0,7.47-1.16c1.22-.26,2.43-.57,3.62-1A14.79,14.79,0,0,0,210.47,52a2.67,2.67,0,0,0,1-1,1,1,0,0,0-.29-1.08,7.65,7.65,0,0,0-2.9-1.88,37.38,37.38,0,0,0-7.26-2,107.47,107.47,0,0,0-15.19-1.48Z"/><circle cx="177.91" cy="8.63" r="8.63"/><path class="cls-3" d="M30.12,114.52s57.79-11.46,134.13-6c2.47,96.54-5.65,211.43-5.65,211.43s-85.08,19.78-135.14,4.59C14,233.86,30.12,114.52,30.12,114.52Z"/><path class="cls-4" d="M30.05,114.45c.77-.19,1.43-.28,2.12-.42l2.07-.37c1.38-.25,2.77-.48,4.15-.71,2.77-.46,5.54-.87,8.32-1.27,5.56-.77,11.12-1.48,16.7-2.08Q80.15,107.79,97,107c11.22-.48,22.45-.78,33.68-.62,5.61,0,11.22.23,16.83.39,2.8.06,5.61.25,8.41.4l8.41.47.76,0,0,.77c.18,8.82.46,17.65.5,26.47,0,4.41.13,8.82.11,13.22l-.05,13.24q-.24,26.46-1,52.9t-2.12,52.87Q161.22,293.6,159.4,320l0,.6-.57.12c-11.15,2.48-22.37,4.38-33.64,6s-22.6,2.82-34,3.53c-5.69.36-11.37.58-17.08.63s-11.39,0-17.08-.38a148.29,148.29,0,0,1-33.73-5.42l-.36-.11,0-.37c-1.67-17.49-2.49-35-2.8-52.58s.16-35.11.92-52.64,1.94-35,3.43-52.52q1.14-13.07,2.52-26.2c.44-4.37.94-8.72,1.44-13.08l.79-6.52.41-3.27C29.74,116.7,29.88,115.6,30.05,114.45Zm.14.15c-1,8.58-2.06,17.38-2.89,26.08s-1.68,17.46-2.39,26.2q-2.11,26.24-3.2,52.51T21,272c.36,17.53,1.27,35.05,3,52.48l-.4-.49a146.42,146.42,0,0,0,33.47,5.27c5.66.32,11.34.4,17,.28s11.34-.32,17-.72q17-1.1,33.88-3.63c11.27-1.67,22.42-3.62,33.48-6.08l-.62.72c2.28-35.13,3.79-70.4,4.87-105.63.54-17.62.83-35.24,1-52.86s.08-35.25-.25-52.86l.78.81-8.38-.53c-2.8-.17-5.59-.38-8.39-.46-5.59-.21-11.19-.53-16.78-.53-11.21-.25-22.41-.05-33.61.34s-22.37,1.2-33.54,2.19c-5.58.49-11.15,1.11-16.71,1.8-2.77.36-5.56.72-8.33,1.13S32.82,114.16,30.19,114.6Z"/><g class="cls-5"><path class="cls-6" d="M173.61,6.24A5.34,5.34,0,0,1,175.41,4a3.14,3.14,0,0,1,1.33-.69,2.25,2.25,0,0,1,1.51.18v.1a9.65,9.65,0,0,1-1.22.67c-.37.19-.81.25-1.22.44a6,6,0,0,0-2.11,1.62Z"/></g><polygon class="cls-7" points="77.15 345.39 115.64 345.02 112 350.57 80.12 350.8 77.15 345.39"/><path class="cls-8" d="M76.72,255.3a55.89,55.89,0,0,1,7.43,3.9c.59.38,1.19.75,1.75,1.15.3.19.56.38.76.49a.73.73,0,0,0,.41.12c.2,0,.62-.28,1-.77a15.24,15.24,0,0,0,.92-1.77,30.89,30.89,0,0,1,4.88-7,29.47,29.47,0,0,1,6.6-5.28l.12.16a30.53,30.53,0,0,0-6,5.73,30,30,0,0,0-4.19,7,19.68,19.68,0,0,1-.91,2,5.12,5.12,0,0,1-.77,1,2.55,2.55,0,0,1-3,.54,8.27,8.27,0,0,1-1-.62c-.58-.39-1.15-.79-1.71-1.21a57.41,57.41,0,0,1-6.42-5.43Z"/><line class="cls-9" x1="77.15" y1="345.4" x2="115.64" y2="345.02"/><g class="cls-10"><path class="cls-6" d="M168.42,73.6a40.23,40.23,0,0,1-15,12.38,72.24,72.24,0,0,1-18.76,6,174,174,0,0,1-19.44,2.38c-6.47.5-13,.91-19.42,1.37L76.38,96.9,56.93,98c-6.48.27-13,.64-19.44.88a93.6,93.6,0,0,0-9.61,1c-3.2.46-6.41.94-9.56,1.6l.23-.14a10.48,10.48,0,0,0-2.82,4.33,32.21,32.21,0,0,0-.91,5.25l.09-2.69a16.31,16.31,0,0,1,.32-2.7,11.15,11.15,0,0,1,2.62-4.8l.08-.09h.15c3.17-.81,6.35-1.43,9.56-2a90.65,90.65,0,0,1,9.71-1.34c6.46-.61,13-1.12,19.4-1.65l19.41-1.47,19.42-1.31c6.48-.4,13-.83,19.43-1.18s12.88-.89,19.24-1.82a77.62,77.62,0,0,0,18.51-5A42,42,0,0,0,168.42,73.6Z"/></g></g></svg>