<svg id="1cbc8866-fb23-4a00-81d4-6888c4e80f64" data-name="Calque 1" xmlns="http://www.w3.org/2000/svg" width="575.1" height="560.58" viewBox="0 0 575.1 560.58"><title>title</title><g id="fad76c3f-0535-44a4-bb92-767da678a80d" data-name="Calque 1"><polygon points="533.9 479.57 324 407.73 0 480.98 183.13 560.57 533.9 479.57" style="opacity:0.1899999976158142;isolation:isolate"/><path d="M510.53,440.66l23.29,38.82s-10.35,10.35-19,1.73L469.1,435.49Z"/><path d="M210.66,514.43,201,558.65s13.11,6.51,18.54-4.41l28.76-57.91Z"/><path d="M68.33,435.07l-9.71,44.22s13.11,6.51,18.54-4.41L105.93,417Z"/><path d="M549.78,158.15s-143.2-28.46-182-28.46S76.2,138.31,45.14,168.51,44.28,410,49.46,429.88,145.21,532.53,172,535.12,523,467,548.05,442s38-273.45,14.67-279.49Z" style="fill:#f37d11"/><path d="M549.75,158.25c-33.28-6.5-66.66-12.67-100.13-18.2-16.74-2.75-33.5-5.39-50.33-7.51l-12.64-1.45-6.33-.54c-2.11-.17-4.22-.4-6.34-.43l-6.35-.23-6.36.06-12.71.26Q297.68,131.62,246.9,135c-33.85,2.23-67.68,5-101.35,9.09-16.83,2-33.63,4.43-50.27,7.65-8.31,1.61-16.59,3.46-24.72,5.77-4.06,1.18-8.09,2.47-12,4a49.56,49.56,0,0,0-11.1,5.81c-3.34,2.46-5.59,6.09-7.24,9.92a68.23,68.23,0,0,0-3.78,12A176.85,176.85,0,0,0,33,214.34a483.45,483.45,0,0,0-.62,50.79C32.89,282.08,34,299,35.41,315.9s3.19,33.77,5.22,50.6,4.31,33.64,7.09,50.36c.73,4.16,1.43,8.37,2.39,12.43a21.89,21.89,0,0,0,2.53,5.57,54.62,54.62,0,0,0,3.51,5.21A208.12,208.12,0,0,0,72.7,459.24C84.42,471.46,96.85,483,109.7,494c6.45,5.5,13,10.85,19.74,16s13.62,10.06,20.78,14.52c1.77,1.16,3.62,2.16,5.43,3.24a61.69,61.69,0,0,0,5.6,2.89c3.77,1.76,7.72,3.41,11.72,3.61a56.56,56.56,0,0,0,6.24-.31c2.09-.19,4.19-.43,6.29-.7,4.19-.54,8.38-1.16,12.56-1.82,16.73-2.68,33.39-5.85,50-9.14,33.27-6.58,66.42-13.79,99.48-21.38s66-15.64,98.78-24.4c16.38-4.36,32.72-8.89,48.93-13.85,8.1-2.49,16.16-5.1,24.14-7.93,4-1.42,8-2.9,11.85-4.52a100.5,100.5,0,0,0,11.41-5.37,24.91,24.91,0,0,0,5-3.58,21.53,21.53,0,0,0,3.41-5.08,74.45,74.45,0,0,0,4.56-11.72,239.81,239.81,0,0,0,5.9-24.67c3.16-16.64,5.37-33.46,7.2-50.32s3.17-33.76,4.16-50.69,1.62-33.89,1.74-50.85-.2-33.93-1.7-50.82c-.39-4.22-.87-8.44-1.51-12.62a90.53,90.53,0,0,0-2.64-12.42,30.06,30.06,0,0,0-2.36-5.86,10,10,0,0,0-1.87-2.51,5.55,5.55,0,0,0-1.27-.88c-.47-.19-1-.34-1.49-.52Zm0-.19,12.08,4c.5.18,1,.32,1.52.53a5.6,5.6,0,0,1,1.34.92,10.51,10.51,0,0,1,1.93,2.56A30.61,30.61,0,0,1,569,172a91.1,91.1,0,0,1,2.69,12.45c.65,4.19,1.15,8.41,1.55,12.64,1.55,16.9,1.89,33.89,1.85,50.86s-.57,33.93-1.46,50.88-2.17,33.88-3.88,50.77-3.89,33.73-7,50.44A239.74,239.74,0,0,1,557,424.86a76.78,76.78,0,0,1-4.61,12,23,23,0,0,1-3.64,5.46,26.38,26.38,0,0,1-5.29,3.86,103,103,0,0,1-11.57,5.52c-3.93,1.64-7.91,3.15-11.91,4.59-8,2.89-16.06,5.53-24.17,8.06-16.21,5-32.55,9.66-48.94,14.1-32.79,8.76-65.78,16.79-98.85,24.41s-66.24,14.8-99.54,21.39c-16.66,3.26-33.34,6.4-50.12,9q-6.29,1-12.62,1.81c-2.11.26-4.23.51-6.36.7a58.08,58.08,0,0,1-6.46.3,20.58,20.58,0,0,1-3.31-.45,9.77,9.77,0,0,1-1.59-.41l-1.57-.47a56.08,56.08,0,0,1-6-2.48c-2-.88-3.81-2-5.7-3s-3.71-2.12-5.49-3.29c-7.23-4.52-14.14-9.49-20.9-14.65S115,500.75,108.58,495.23a508.3,508.3,0,0,1-37.08-35A211.06,211.06,0,0,1,54.89,441c-1.25-1.74-2.5-3.48-3.59-5.35a23.46,23.46,0,0,1-2.69-6c-1-4.19-1.67-8.37-2.39-12.56-2.76-16.76-5-33.58-7-50.44S35.45,332.93,34,316s-2.47-33.86-3-50.83a483.62,483.62,0,0,1,.7-50.94A175.94,175.94,0,0,1,35.27,189a70,70,0,0,1,3.87-12.22c.39-1,.93-1.94,1.4-2.91.25-.48.55-.93.82-1.39a15.17,15.17,0,0,1,.88-1.37,20.09,20.09,0,0,1,4.51-4.69,50.58,50.58,0,0,1,11.38-5.95,124.49,124.49,0,0,1,12.12-4c8.19-2.31,16.49-4.16,24.83-5.76,16.68-3.2,33.5-5.55,50.35-7.59,33.71-4,67.56-6.66,101.42-8.8s67.77-3.63,101.7-4.48l12.72-.25h6.36l6.37.24c2.13,0,4.24.26,6.35.44l6.34.55,12.65,1.46c16.83,2.14,33.59,4.8,50.33,7.56,33.47,5.47,66.83,11.68,100.13,18.22Z" style="fill:#541c1a"/><path d="M561,172c-12-15-357.12,5.17-393.35,35.36-12.94,12.94-13.81,301.06,12.07,313.14S523,450.58,542,431.61,574.79,189.21,561,172Z" style="fill:#4c4c4c"/><path d="M538.51,185.25l14.72-8.12s-173.39-6-256.2,13.8c-29.33,71.6-23.29,298.47,6,289S538.51,185.25,538.51,185.25Z"/><path d="M525.62,419.53l8.63,5.18s-115.59,55.2-231.18,55.2l7.76-7.76S445.4,463.52,525.62,419.53Z" style="fill:#fff;opacity:0.25;isolation:isolate"/><path d="M560.13,162.47s-305.37,4.31-385.59,35.37C370.35,153,560.13,162.47,560.13,162.47Z" style="fill:#fff;opacity:0.5;isolation:isolate"/><path d="M148.66,218.54S128,491.13,172,535.12C87.41,497.17,49.46,429.88,49.46,429.88S16.71,248.11,39.55,177.25C149.07,213.24,148.66,218.54,148.66,218.54Z" style="fill:#f37d11;opacity:0.3199999928474426;isolation:isolate"/><path d="M166.77,198.7s-18.11,5.17-18.11,14.66c-23.29-17.25-75.91-31.91-75.91-36.23S166.77,198.7,166.77,198.7Z" style="fill:#fff;opacity:0.2199999988079071;isolation:isolate"/><path d="M412.26,154.87c2.09-.39,6.43-2.52,5.19-4.24-8.53-11.83-22.94-53.19-22.94-118.42V14.1L385,2V31.35s-.38,113.89-27.61,120.77C363.79,157.42,394.4,158.2,412.26,154.87Z" style="fill:#f37d11"/><path d="M412.25,154.77a11.17,11.17,0,0,0,4.13-1.85c.58-.44,1.22-1,1.18-1.75a2.4,2.4,0,0,0-.52-1c-.21-.32-.44-.63-.64-1a64.84,64.84,0,0,1-4.27-8.18c-1.24-2.81-2.35-5.68-3.38-8.58s-2-5.81-2.88-8.76a265,265,0,0,1-7.89-36A357.4,357.4,0,0,1,394.38,51c-.61-12.29-.45-24.6-.52-36.88l.13.4-9.52-12L385.71,2l.07,19.66v9.83c0,3.29-.08,6.57-.16,9.85-.35,13.12-1.08,26.22-2.31,39.3a300.31,300.31,0,0,1-6.08,39,99.67,99.67,0,0,1-6.18,18.82,40.1,40.1,0,0,1-5.15,8.6,20.28,20.28,0,0,1-3.65,3.58,13.16,13.16,0,0,1-4.68,2.24l.3-1.32a10.11,10.11,0,0,0,2.82,1.56,30.33,30.33,0,0,0,3.24,1,65,65,0,0,0,6.76,1.29,130.39,130.39,0,0,0,13.82,1.09c4.63.16,9.27.08,13.9-.19A119.07,119.07,0,0,0,412.25,154.77Zm0,.2a121.08,121.08,0,0,1-13.82,1.74c-4.63.33-9.28.48-13.93.48a129.93,129.93,0,0,1-13.95-.7,62.47,62.47,0,0,1-6.93-1.11,31.31,31.31,0,0,1-3.43-1,11.72,11.72,0,0,1-3.29-1.71l-1.17-.92,1.47-.4a14.63,14.63,0,0,0,7.4-5.35,39.6,39.6,0,0,0,4.8-8.29,82.22,82.22,0,0,0,3.34-9.12c1-3.09,1.82-6.24,2.58-9.4a299.15,299.15,0,0,0,6.06-38.68c1.33-13,2.16-26.08,2.61-39.16.11-3.27.2-6.54.24-9.81V21.72L384.32,2V0l1.24,1.59L395,13.7l.14.17v.23c0,12.29-.23,24.58.3,36.84s1.52,24.51,3.22,36.67a258.49,258.49,0,0,0,7.47,36A137.2,137.2,0,0,0,412.32,141a61.22,61.22,0,0,0,4.25,8.15c.19.33.42.64.64,1a2.59,2.59,0,0,1,.55,1,1.62,1.62,0,0,1-.4,1.13,4.67,4.67,0,0,1-.86.8,11.53,11.53,0,0,1-4.22,1.87Z" style="fill:#541c1a"/><path d="M256.05,488.54h0a3,3,0,0,1-3-3V369.07a3,3,0,0,1,3-3h0a3,3,0,0,1,3,3V485.52A3,3,0,0,1,256.05,488.54Z"/><path d="M245.71,490.27h0a3,3,0,0,1-3-3V370.8a3,3,0,0,1,3-3h0a3,3,0,0,1,3,3V487.25A3,3,0,0,1,245.71,490.27Z"/><path d="M235.35,492h0a3,3,0,0,1-3-3V372.52a3,3,0,0,1,3-3h0a3,3,0,0,1,3,3V489A3,3,0,0,1,235.35,492Z"/><path d="M225,493.72h0a3,3,0,0,1-3-3V374.25a3,3,0,0,1,3-3h0a3,3,0,0,1,3,3V490.7A3,3,0,0,1,225,493.72Z"/><path d="M214.65,495.44h0a3,3,0,0,1-3-3V376a3,3,0,0,1,3-3h0a3,3,0,0,1,3,3V492.42A3,3,0,0,1,214.65,495.44Z"/><path d="M204.29,497.17h0a3,3,0,0,1-3-3V377.7a3,3,0,0,1,3-3h0a3,3,0,0,1,3,3V494.15A3,3,0,0,1,204.29,497.17Z"/><path d="M193.94,498.89h0a3,3,0,0,1-3-3V379.42a3,3,0,0,1,3-3h0a3,3,0,0,1,3,3V495.87A3,3,0,0,1,193.94,498.89Z"/><circle cx="311.9" cy="14.89" r="3.02"/><path d="M303.18,36.76a3.19,3.19,0,0,0,2.53,1.44,15,15,0,0,0,3.07.09,35.48,35.48,0,0,0,6.06-1,75.82,75.82,0,0,0,11.61-4,75.41,75.41,0,0,0,10.87-5.69,36.33,36.33,0,0,0,4.88-3.66,14.55,14.55,0,0,0,2-2.22,2.94,2.94,0,0,0,.69-2.49,2.9,2.9,0,0,0-2.27-1.2,14.32,14.32,0,0,0-3-.07,37,37,0,0,0-6,1A73.82,73.82,0,0,0,322,22.84a83.63,83.63,0,0,0-11,5.4,36.42,36.42,0,0,0-5,3.54A14.68,14.68,0,0,0,304,34,3.18,3.18,0,0,0,303.18,36.76Zm-.09,0a2.18,2.18,0,0,1,0-1.55,5.47,5.47,0,0,1,.71-1.38,14.67,14.67,0,0,1,2.07-2.31,38.3,38.3,0,0,1,4.88-3.81,69.4,69.4,0,0,1,10.9-5.88A77.5,77.5,0,0,1,333.43,18a37.56,37.56,0,0,1,6.16-.94,15.27,15.27,0,0,1,3.17.12,6.34,6.34,0,0,1,1.59.48,2.29,2.29,0,0,1,1.28,3l0,0a5.64,5.64,0,0,1-.78,1.45,15.18,15.18,0,0,1-2.14,2.32,39.88,39.88,0,0,1-5,3.67,75.84,75.84,0,0,1-11,5.6,74.55,74.55,0,0,1-11.76,3.77,36.84,36.84,0,0,1-6.1.93,14.51,14.51,0,0,1-3.09-.09,5.55,5.55,0,0,1-1.49-.44,2.33,2.33,0,0,1-1.16-1.07Z"/><path d="M389.56,7.8s.63,136-8.43,144.91c10.36.54,10.79.27,10.79.27L390.62,9.16Z" style="fill:#fff;opacity:0.20000000298023224;isolation:isolate"/><path d="M398.39,96.33a154.86,154.86,0,0,1,21.73,1.49,51.83,51.83,0,0,1,10.64,2.6,12.12,12.12,0,0,1,4.77,3,3,3,0,0,1,.71,3,5.08,5.08,0,0,1-2,2.23,22.06,22.06,0,0,1-5,2.38c-1.73.59-3.5,1.1-5.28,1.52a103.6,103.6,0,0,1-10.78,2,182.42,182.42,0,0,1-21.79,1.42,187.4,187.4,0,0,1-21.84-1c-3.64-.39-7.26-.9-10.86-1.64A44.54,44.54,0,0,1,348,109.94a11.09,11.09,0,0,1-2.52-1.71,4.63,4.63,0,0,1-1.07-1.45l-.18-.49a5.21,5.21,0,0,1-.08-.55,3.06,3.06,0,0,1,.08-1,5.66,5.66,0,0,1,1.91-2.82,14.28,14.28,0,0,1,2.47-1.67,42.73,42.73,0,0,1,10.61-3.6,125.22,125.22,0,0,1,21.84-2.49L380,96.58c-5.64-6.51-11.28-13-16.85-19.6s-11.1-13.17-16.64-19.78l-8.29-9.91-8.2-10q-8.24-10-16.28-20.09L314,17q8.76,9.51,17.37,19.16L340,45.8l8.53,9.71c5.68,6.48,11.4,12.92,17,19.47s11.22,13.07,16.79,19.65l2,2.38-3.11.07a123.81,123.81,0,0,0-21.39,2.08,40.38,40.38,0,0,0-10,3.2,12.07,12.07,0,0,0-2.06,1.33,3.4,3.4,0,0,0-1.17,1.55.86.86,0,0,0,0,.32v.12a.33.33,0,0,1,0,.14,2.72,2.72,0,0,0,.54.72,9,9,0,0,0,2,1.35,43.06,43.06,0,0,0,10,3.27c3.5.76,7.06,1.31,10.63,1.74a185.74,185.74,0,0,0,21.61,1.23A186.46,186.46,0,0,0,413,113a104,104,0,0,0,10.67-1.73c1.75-.4,3.49-.85,5.19-1.41a21.21,21.21,0,0,0,4.81-2.16,4.17,4.17,0,0,0,1.63-1.7,1.43,1.43,0,0,0,0-1,3,3,0,0,0-.55-1,11.48,11.48,0,0,0-4.35-2.77A51.94,51.94,0,0,0,420,98.48a155.25,155.25,0,0,0-21.63-1.85Z"/><path d="M398.39,66.14a155.13,155.13,0,0,1,21.75,1.37,52.94,52.94,0,0,1,10.68,2.56,12.22,12.22,0,0,1,4.86,3,3.21,3.21,0,0,1,.76,3.19,5.31,5.31,0,0,1-2.06,2.34,21.93,21.93,0,0,1-5.09,2.4,54.45,54.45,0,0,1-5.3,1.55,106.67,106.67,0,0,1-10.79,2A187.4,187.4,0,0,1,391.37,86a190.62,190.62,0,0,1-21.9-.82q-5.49-.56-10.9-1.65A44.93,44.93,0,0,1,347.86,80a11.42,11.42,0,0,1-2.56-1.81,4.91,4.91,0,0,1-1.1-1.56c-.07-.17-.13-.35-.19-.53s-.06-.4-.08-.6a1.82,1.82,0,0,1,0-.57,2.36,2.36,0,0,1,.1-.53,5.72,5.72,0,0,1,2-2.9,14,14,0,0,1,2.53-1.62,40.19,40.19,0,0,1,10.71-3.25,97.46,97.46,0,0,1,10.91-1.28c3.64-.18,7.29-.26,10.92-.14v.3c-3.62.34-7.22.67-10.8,1.21a97.51,97.51,0,0,0-10.6,2,42.55,42.55,0,0,0-9.9,3.55,10.57,10.57,0,0,0-2,1.37,3.08,3.08,0,0,0-1.06,1.47.53.53,0,0,0,0,.25v.07a.22.22,0,0,1,.05.11,2.43,2.43,0,0,0,.5.61,8.64,8.64,0,0,0,1.92,1.24,41.74,41.74,0,0,0,10,3.11c3.48.75,7,1.32,10.59,1.75a187.08,187.08,0,0,0,21.55,1.37,185.49,185.49,0,0,0,21.6-1,106.6,106.6,0,0,0,10.64-1.71c1.75-.39,3.49-.84,5.17-1.39a21,21,0,0,0,4.77-2.13,4,4,0,0,0,1.56-1.6,1.19,1.19,0,0,0,.11-.41,2.65,2.65,0,0,0-.07-.48,2.5,2.5,0,0,0-.51-1,11.2,11.2,0,0,0-4.26-2.74A51.67,51.67,0,0,0,420,68.4a155.16,155.16,0,0,0-21.62-2Z"/><path d="M398.39,35.94a158.23,158.23,0,0,1,21.75,1.38,51.62,51.62,0,0,1,10.68,2.56,12.22,12.22,0,0,1,4.86,3,3.19,3.19,0,0,1,.76,3.18,5.28,5.28,0,0,1-2.06,2.35,22.38,22.38,0,0,1-5.09,2.41,54.45,54.45,0,0,1-5.3,1.55c-3.57.86-7.17,1.47-10.79,2a189.68,189.68,0,0,1-21.83,1.5,195.26,195.26,0,0,1-21.9-.82q-5.49-.55-10.9-1.65a44.93,44.93,0,0,1-10.71-3.5,11.42,11.42,0,0,1-2.56-1.81,5.32,5.32,0,0,1-1.1-1.56c-.07-.17-.13-.35-.19-.53s-.06-.4-.08-.6a1.82,1.82,0,0,1,0-.57,2.36,2.36,0,0,1,.1-.53,5.72,5.72,0,0,1,2-2.9,14,14,0,0,1,2.53-1.62,40.58,40.58,0,0,1,10.71-3.26,102.36,102.36,0,0,1,10.91-1.27c3.64-.18,7.29-.26,10.92-.14v.3c-3.62.34-7.22.66-10.8,1.2a103.07,103.07,0,0,0-10.6,2,41.94,41.94,0,0,0-9.9,3.55,10.57,10.57,0,0,0-2,1.37A3.08,3.08,0,0,0,346.74,45a.53.53,0,0,0,0,.25v.07a.31.31,0,0,1,.05.1,2.48,2.48,0,0,0,.5.62,9.27,9.27,0,0,0,1.92,1.24,42.19,42.19,0,0,0,10,3.11c3.48.75,7,1.32,10.59,1.74a184.88,184.88,0,0,0,21.55,1.38,185.49,185.49,0,0,0,21.6-1,106.6,106.6,0,0,0,10.64-1.71c1.75-.39,3.49-.84,5.17-1.39a21.46,21.46,0,0,0,4.77-2.13,4,4,0,0,0,1.56-1.6,1.24,1.24,0,0,0,.11-.42,2.42,2.42,0,0,0-.07-.47,2.5,2.5,0,0,0-.51-1A11.09,11.09,0,0,0,430.37,41,51.1,51.1,0,0,0,420,38.21a155.16,155.16,0,0,0-21.62-2Z"/><path d="M531.66,183.17c-40-1-157.53-1.64-221.26,20.61a21.23,21.23,0,0,0-13.79,14.67c-15.53,61.6-15.74,195.66.58,240.66,3.09,8.54,11.74,14.12,21.23,13.9,100.21-2.38,201-47.39,207.2-53.89,10.36-10.8,32.78-141.06,17-220.68C540.75,189.25,541.48,183.41,531.66,183.17Z" style="fill:#369696"/><path d="M259.07,208.19s-44.85-1.73-68.14,10.35c-6,30.19-6.9,100.93-1.73,137.16,66.42-7.77,68.15-11.22,68.15-11.22S267.7,249.59,259.07,208.19Z" style="fill:#c1c1bf"/><path d="M253.53,208.1c3.47,0,5.54.09,5.54.09,8.63,41.4-1.72,136.29-1.72,136.29s-.41.81-8.31,2.52C253,312.38,257,259.77,253.53,208.1Z" style="opacity:0.25999999046325684;isolation:isolate"/><ellipse cx="229.63" cy="310.84" rx="18.04" ry="21.37" style="fill:#43aaaf"/><path d="M227.31,332s-14.18-1.06-15.59-21.49l-10.56-13.38s-10.76,18.52,8.71,31.8c17.09,3.31,18.76,3.41,18.76,3.41" style="fill:#adadad"/><ellipse cx="231.04" cy="253.79" rx="18.04" ry="21.37" style="fill:#43aaaf"/><path d="M228.72,275s-14.18-1.06-15.59-21.48l-10.56-13.39s-10.76,18.53,8.7,31.81c17.1,3.3,18.77,3.41,18.77,3.41" style="fill:#adadad"/><ellipse cx="418.57" cy="318.82" rx="103.2" ry="119.81" transform="translate(-27.51 39.79) rotate(-5.27)" style="fill:#43aaaf;stroke:#fff;stroke-miterlimit:10;stroke-width:2px"/><polygon points="316.62 274.34 343.7 375.79 516.73 303.3 506.13 229.47 316.62 274.34" style="fill:#f4e558"/><g style="opacity:0.10000000149011612"><polygon points="383.03 277.75 383.07 283.81 370.53 285.96 372.84 317.51 386.45 317.81 386.5 325.08 372.89 324.78 374.09 346.62 386.65 346.89 386.68 351.74 367.87 354.96 364.19 277.33 383.03 277.75"/><polygon points="453.12 274.47 453.16 280.53 440.62 282.68 442.93 314.23 456.54 314.53 456.59 321.8 442.98 321.5 444.18 343.33 456.74 343.62 456.78 348.46 437.96 351.68 434.28 274.05 453.12 274.47"/><polygon points="414.94 352.37 411.26 274.75 430.1 275.17 430.14 281.23 417.6 283.37 419.91 314.93 433.52 315.23 433.57 322.5 419.96 322.2 421.21 351.3 414.94 352.37"/><path d="M474.32,312.51l5.22-1.1-2.32-32.76s-3.21-9.77-11.57-8.74-8.29,11.93-8.29,11.93.2,29.08,2.31,31.55c3.17,3.71,14.74,12.45,15.81,16.1s5.37,19.51-2,20.56-7.38-7.44-7.38-7.44L465,326.84l-6.27,1.07L462,349.79s4.23,7.36,11.55,6.32,8.29-11.93,8.29-11.93,1-13.31-2.23-19.44c-2.13-6.11-12.62-10-13.7-13.63S462.59,282,462.59,282s1-6,4.15-6,5.25,3.75,5.25,3.75Z"/><path d="M353.38,265.93c-5.77-4.48-20.71-6.26-20.71-6.26l7.61,103.15s19.48-3.91,21.74-9.67S359.15,270.41,353.38,265.93Zm2.53,81.27c-1.23,4.95-11.91,8.45-11.91,8.45l-4.39-88.58s8.19,1.43,11.37,5.24,6.15,69.93,4.93,74.89Z"/><polygon points="400.66 285.52 406.94 285.66 402.11 345.5 397.93 346.37 380.8 288.92 388.12 288.12 403.05 327.82 400.66 285.52"/><polygon points="501.15 258.58 502.24 264.67 489.69 265.6 493.45 355.34 487.17 355.2 484.45 265.48 472.93 264.01 472.89 257.95 501.15 258.58"/></g><polygon points="382.77 272.65 382.81 278.71 370.27 280.86 372.58 312.41 386.19 312.71 386.24 319.98 372.63 319.68 373.83 341.51 386.39 341.8 386.43 346.64 367.61 349.86 363.93 272.23 382.77 272.65" style="fill:#f7981d;stroke:#875712;stroke-miterlimit:10;stroke-width:2px"/><polygon points="452.86 269.37 452.9 275.43 440.36 277.57 442.68 309.13 456.28 309.43 456.33 316.7 442.73 316.4 443.92 338.23 456.48 338.51 456.52 343.36 437.7 346.57 434.02 268.95 452.86 269.37" style="fill:#f7981d;stroke:#875712;stroke-miterlimit:10;stroke-width:2px"/><polyline points="414.69 347.27 411 269.65 429.84 270.07 429.89 276.13 417.34 278.27 419.66 309.82 433.26 310.13 433.31 317.4 419.71 317.1 420.96 346.2" style="fill:#f7981d;stroke:#875712;stroke-miterlimit:10;stroke-width:2px"/><path d="M474.06,307.41l5.22-1.1L477,273.55s-3.21-9.77-11.57-8.74-8.29,11.93-8.29,11.93.2,29.08,2.31,31.55c3.17,3.71,14.74,12.44,15.81,16.1s5.37,19.51-2,20.56-7.37-7.44-7.37-7.44l-1.16-15.77-6.27,1.07,3.29,21.88s4.24,7.36,11.56,6.32,8.28-11.94,8.28-11.94,1-13.3-2.22-19.43c-2.14-6.11-12.63-10-13.7-13.63s-3.35-29.16-3.35-29.16,1-6,4.15-6,5.26,3.75,5.26,3.75Z" style="fill:#f7981d;stroke:#875712;stroke-miterlimit:10;stroke-width:2px"/><path d="M353.12,260.83c-5.77-4.48-20.71-6.26-20.71-6.26L340,357.72s19.49-3.92,21.74-9.67S358.89,265.31,353.12,260.83Zm2.53,81.26c-1.22,5-11.9,8.46-11.9,8.46L339.35,262s8.2,1.43,11.37,5.24S356.87,337.14,355.65,342.09Z" style="fill:#f7981d;stroke:#875712;stroke-miterlimit:10;stroke-width:2px"/><polygon points="400.4 280.42 406.68 280.56 404.79 340.3 400.61 341.16 380.54 283.82 387.86 283.02 400.02 316.1 400.4 280.42" style="fill:#f7981d;stroke:#875712;stroke-miterlimit:10;stroke-width:2px"/><polygon points="500.89 253.48 501.98 259.56 489.43 260.5 493.19 350.24 486.91 350.1 484.19 260.38 472.67 258.91 472.63 252.85 500.89 253.48" style="fill:#f7981d;stroke:#875712;stroke-miterlimit:10;stroke-width:2px"/><path d="M392.24,413c-.09-3,2.62-4.65,5.1-3,.61.4,1,1.31,1.53,1.78a5.3,5.3,0,0,0,2.27,1.28c1.69.35,3.16-.53,4.48-1.45,1.15-.81,2.64-2.83,4-3.05,2.68-.41,4.44,1.69,6.57,2.64s3.11.32,4.8-.84.73-1.23,3.12-1.75c2-.43,2.49-.18,4.28.55a17.47,17.47,0,0,0,3.51,1.25c2.45.45,3.5-.46,5.55-1.56,2.41-1.3,3.86-1.57,6.26-.37,1.06.54,1.81,1.3,3,1.47,2.48.34,9.72-5.69,10.91-2.34.48,1.36,2.65.77,2.17-.6a4.34,4.34,0,0,0-5.19-3c-1.92.32-2.85,1.93-4.54,2.57-3.79,1.45-5.05-.84-8.07-1.71a4.53,4.53,0,0,0-3.51.39c-2.78,1.38-4.1,3.48-7.64,2.54-2.92-.78-5.53-3.11-8.65-1.55-2.86,1.43-2.54,3.76-7.09,1.46-1.17-.59-2-1.54-3.34-1.75-3.44-.5-5,2.72-7.69,3.94-4.2,1.89-5.75-4.23-10.05-3.1-2.85.75-4.18,3.56-4.1,6.25.05,1.44,2.3,1.45,2.25,0Z" style="fill:#fff"/><polygon points="409.87 380.53 410.38 389.99 415.82 390.11 415.84 392.21 407.69 393.6 406.1 359.98 408.69 360.03 409.87 380.53" style="fill:#f4e558"/><polygon points="420.87 380.14 421.39 389.59 426.83 389.71 426.84 391.81 418.69 393.21 417.1 359.59 419.69 359.63 420.87 380.14" style="fill:#f4e558"/><polygon points="429.88 379.81 430.4 389.27 435.84 389.39 435.86 391.49 427.71 392.88 426.12 359.26 428.7 359.31 429.88 379.81" style="fill:#f4e558"/><line x1="408.69" y1="360.03" x2="409.9" y2="380.51" style="fill:none"/><polygon points="411.77 363.9 412.84 385.02 415.55 384.92 414.84 363.79 411.77 363.9" style="fill:#f4e558"/><polygon points="438.31 359.42 438.33 361.42 434.19 362.13 434.95 372.55 439.44 372.65 439.46 375.05 434.97 374.95 435.36 382.15 439.51 382.25 439.52 383.85 433.31 384.91 432.09 359.28 438.31 359.42" style="fill:#f4e558"/><path d="M361.94,245.08a8.83,8.83,0,0,0-.15-1.92,2,2,0,0,0-.61-1.15,1.05,1.05,0,0,0-1-.25,1.18,1.18,0,0,0-.79.87,3.09,3.09,0,0,0-.06,1.54,3.23,3.23,0,0,0,2.14,2.32c1.2.52,2,.91,2.48,1.16a3.86,3.86,0,0,1,1,.75,4.89,4.89,0,0,1,1.07,2.13,4.73,4.73,0,0,1-.49,3.55,3.9,3.9,0,0,1-2.39,1.89,3.4,3.4,0,0,1-3.3-1,14.89,14.89,0,0,1-2.24-2.7l1.66-1.54a8.18,8.18,0,0,0,1.61,2,1.79,1.79,0,0,0,1.63.57,1.33,1.33,0,0,0,.79-.58,1.53,1.53,0,0,0,.16-1.2,2.27,2.27,0,0,0-.78-1.25,7.71,7.71,0,0,0-1.58-1c-.63-.3-1.13-.55-1.49-.76a10,10,0,0,1-1.22-.82,4.89,4.89,0,0,1-1.72-3,5.17,5.17,0,0,1,.48-3.64,3.9,3.9,0,0,1,2.53-2.06,3.3,3.3,0,0,1,3.06.76,4.93,4.93,0,0,1,1.76,2.74,6.57,6.57,0,0,1,.06,2.79Z" style="fill:#fff"/><path d="M367.34,243.92a2.69,2.69,0,0,1,1.88-1.78,2,2,0,0,1,2.22.78,8.35,8.35,0,0,1,1.41,3.48c.33,1.57.72,3.75,1.15,6.56l-1.67.25-.31-.68a3.64,3.64,0,0,1-1.73,1.09,2,2,0,0,1-1.73-.34,3.05,3.05,0,0,1-1.07-1.95,3.16,3.16,0,0,1,.67-2.68,4.61,4.61,0,0,1,2.48-1.74l-.13-.61c-.25-1.19-.62-1.72-1.12-1.6-.24.06-.42.32-.54.77a5.63,5.63,0,0,0-.14,1.48l-1.83.26A8.16,8.16,0,0,1,367.34,243.92Zm2.16,7a.64.64,0,0,0,.66.6.86.86,0,0,0,.23-.06,2.7,2.7,0,0,0,1-.54L371,249a2.46,2.46,0,0,0-1.26.89,1.34,1.34,0,0,0-.24,1.11Z" style="fill:#fff"/><path d="M373.33,237l2.24-.26.34,2.58-2.24.24Zm.69,4,2.27-.31,2.32,10.87-2.27.31Z" style="fill:#fff"/><path d="M382.65,242.7c-.19-.91-.48-1.31-.87-1.21a.7.7,0,0,0-.46.46,1.5,1.5,0,0,0-.06,1,1.7,1.7,0,0,0,1.21,1.41c.39.15.68.27.9.37a6.09,6.09,0,0,1,.8.42,2.8,2.8,0,0,1,1.24,1.89,2.89,2.89,0,0,1-.38,2.29,2.8,2.8,0,0,1-1.69,1.26,2.94,2.94,0,0,1-2-.17,4.68,4.68,0,0,1-1.68-1.28l.76-1.65c.74.91,1.39,1.3,2,1.15a.82.82,0,0,0,.47-.32.76.76,0,0,0,.1-.59,1.65,1.65,0,0,0-1.18-1.11,5.19,5.19,0,0,1-1.79-1,3.54,3.54,0,0,1-1-2,3.76,3.76,0,0,1,.45-2.72,3,3,0,0,1,1.85-1.63,2.06,2.06,0,0,1,2,.44,4,4,0,0,1,1.16,2.25,8.62,8.62,0,0,1,.17,1.34l-1.81.27C382.79,243.28,382.73,243,382.65,242.7Z" style="fill:#fff"/><path d="M385.87,244.88a12.25,12.25,0,0,1-.14-4.31,4.51,4.51,0,0,1,.74-1.94,2.56,2.56,0,0,1,3-1,2.86,2.86,0,0,1,1.23,1,8.2,8.2,0,0,1,1.34,3.14,11,11,0,0,1,.07,4.6,2.93,2.93,0,0,1-2,2.53C388,249.48,386.56,248.13,385.87,244.88Zm2.31-.37c.37,1.7.87,2.47,1.52,2.31.28-.07.42-.62.41-1.62a14.93,14.93,0,0,0-.29-2.83c-.41-1.93-.89-2.83-1.44-2.69q-.53.13-.51,1.77a15.73,15.73,0,0,0,.31,3.06Z" style="fill:#fff"/><path d="M396.16,235.4q2.56-.66,3.63,4.33.56,2.63.93,5.63l-2.33.33c-.22-1.75-.52-3.5-.9-5.27s-.77-2.58-1.2-2.48c-.21.06-.34.73-.41,2a20.12,20.12,0,0,0,.16,3.72l.87,3.31-2.33.34c-.59-2.1-1.06-4-1.41-5.57s-.61-3.07-.81-4.37l1.48-.19.61,1.4C394.82,236.67,395.4,235.6,396.16,235.4Z" style="fill:#fff"/><path d="M406.71,229.18a5.38,5.38,0,0,1,2-1,2.71,2.71,0,0,1,2.26.4A3.61,3.61,0,0,1,412.4,231c.23,1.11-.27,2.46-1.51,4.07a3.5,3.5,0,0,1,2.62,2.69,4.74,4.74,0,0,1-.58,3.62,4,4,0,0,1-2.29,2,5.63,5.63,0,0,1-2.45.12l-.89-2.4a5.05,5.05,0,0,0,1.73-.18,3.43,3.43,0,0,0,1.66-1,1.56,1.56,0,0,0,.52-1.4,1.49,1.49,0,0,0-.73-1,1.7,1.7,0,0,0-1.34-.14,5.11,5.11,0,0,0-1.57.73l-1.16-2.16a12.92,12.92,0,0,0,2.78-2.49,2.56,2.56,0,0,0,.76-1.9c-.12-.55-.43-.75-.94-.63A5.62,5.62,0,0,0,406.6,233l-1.7-1.83A11.39,11.39,0,0,1,406.71,229.18Z" style="fill:#fff"/><line x1="438.48" y1="192.85" x2="441.02" y2="231.89" style="fill:none;stroke:#fff;stroke-miterlimit:10"/><line x1="431.21" y1="195.83" x2="448.5" y2="229.99" style="fill:none;stroke:#fff;stroke-miterlimit:10"/><line x1="448.37" y1="194.88" x2="433.38" y2="229.27" style="fill:none;stroke:#fff;stroke-miterlimit:10"/><line x1="426.98" y1="211.52" x2="455.08" y2="215.27" style="fill:none;stroke:#fff;stroke-miterlimit:10"/></g></svg>