<svg id="Calque_1" data-name="Calque 1" xmlns="http://www.w3.org/2000/svg" viewBox="0 0 205.98 401.22"><defs><style>.cls-1{fill:#f9e8cd;}.cls-2{fill:#4c311e;}.cls-3{opacity:0.1;}.cls-11,.cls-3,.cls-9{isolation:isolate;}.cls-4{fill:#e78f00;}.cls-5{fill:#2b6041;}.cls-6{fill:#e0d375;}.cls-7{opacity:0.61;}.cls-8{fill:#fff;}.cls-9{opacity:0.26;}.cls-10{fill:#f6d291;}.cls-11{fill:#c6a97b;opacity:0.47;}</style></defs><title>vase</title><polygon points="83.26 331.37 61.28 391.8 97.39 336.07 106.02 401.22 109.94 335.29 138.98 389.44 113.87 315.67 83.26 331.37"/><path class="cls-1" d="M69.47,267.77c17,2,33.69,6.5,50.77,7.6,26.54,1.7,55.28-4.4,78.33,8.85-14.72,0-28.72,5.82-42.77,10.23-31.82,10-67.5,12.9-97.77-1.11C45.87,287.71,34,281,22,275.26,28.08,263.7,58.77,266.51,69.47,267.77Z"/><path class="cls-2" d="M69.48,267.72C80.34,269,91,271.26,101.82,273c5.39.87,10.8,1.66,16.24,2.06s10.91.52,16.37.43c10.91-.1,21.85-.73,32.78,0s21.9,3,31.52,8.43l1,.58h-1.2c-7.66,0-15.22,1.65-22.57,3.79s-14.58,4.83-22,7.05a173.52,173.52,0,0,1-45.42,7.93c-15.39.47-31-1.62-45.43-7.24l-5.33-2.26c-1.74-.82-3.48-1.66-5.2-2.51-3.45-1.71-6.87-3.48-10.27-5.26-6.82-3.56-13.59-7.19-20.51-10.52l-.28-.13.14-.26a12.09,12.09,0,0,1,4.5-4.45A23.74,23.74,0,0,1,32,268.28a58.34,58.34,0,0,1,12.4-1.79,118.84,118.84,0,0,1,12.52.09C61.18,266.82,65.34,267.21,69.48,267.72Zm0,.1c-4.15-.47-8.3-.82-12.47-1a118.26,118.26,0,0,0-12.49,0,58.1,58.1,0,0,0-12.3,1.89,23.65,23.65,0,0,0-5.69,2.38,11.48,11.48,0,0,0-4.25,4.28l-.13-.4c7,3.27,13.79,6.82,20.63,10.32,3.42,1.74,6.85,3.47,10.31,5.14,1.73.84,3.46,1.65,5.21,2.45l5.28,2.23c14.27,5.58,29.75,7.63,45,7.2a172.31,172.31,0,0,0,45.22-7.7c7.35-2.19,14.57-4.86,22-7s15-3.74,22.77-3.74l-.16.59c-9.48-5.38-20.38-7.79-31.23-8.46s-21.82-.23-32.75-.19c-5.46,0-10.93-.11-16.38-.54s-10.87-1.22-16.26-2.11c-10.78-1.75-21.47-4-32.32-5.34Z"/><ellipse class="cls-3" cx="102.49" cy="391.41" rx="41.2" ry="5.1"/><path class="cls-4" d="M59.64,303.38h97.61c.13-2.95-.56-6-1.58-7v-.1c-3.71,4.35-7.37-6-11.24-9.23-1.79-1.47-3.7-1.36-5.57-1.23l-11.71.8c-4,.27-8.08.45-11.69-4-1.18-1.45-2.27-3.38-3.48-4.6-4.16-4.2-8.71.5-13.07,2.78-5.73,3-11.76,7.39-17.24,1.86-2.55-2.58-5-6.08-7.77-6.3-6.29-.5-10.79,10.28-13.84,25.39"/><path class="cls-2" d="M59.64,303.33l97.61-.34-.36.34a15.34,15.34,0,0,0-.24-3.58,9.24,9.24,0,0,0-.44-1.72,3.9,3.9,0,0,0-.8-1.45l-.17-.18.09-.22v-.1l.62.37a2.64,2.64,0,0,1-4,.48,13.92,13.92,0,0,1-2.73-3c-1.56-2.15-2.89-4.5-4.72-6.28a5.22,5.22,0,0,0-3.31-1.47,30,30,0,0,0-3.91.16l-7.94.57c-2.62.14-5.32.56-8.06,0a10,10,0,0,1-3.79-1.68,13.61,13.61,0,0,1-2.9-2.92c-.8-1.09-1.51-2.21-2.31-3.21a5.88,5.88,0,0,0-2.91-2.14,5.67,5.67,0,0,0-3.56.42,22.13,22.13,0,0,0-3.41,1.87c-1.11.71-2.24,1.44-3.44,2.07l-3.51,1.87a18.11,18.11,0,0,1-7.69,2.52,7.68,7.68,0,0,1-4-1,12.73,12.73,0,0,1-3.13-2.63c-.9-1-1.77-2-2.69-2.91a9.74,9.74,0,0,0-3.06-2.26,3.8,3.8,0,0,0-.88-.23h-.93a3.12,3.12,0,0,0-.91.17,3.74,3.74,0,0,0-.45.12l-.42.21a7.1,7.1,0,0,0-1.59,1,13.62,13.62,0,0,0-1.33,1.41,26.63,26.63,0,0,0-3.8,6.86,93.84,93.84,0,0,0-4.44,15.23H60a91.9,91.9,0,0,1,4.1-15.39,27.42,27.42,0,0,1,3.79-7.05,13,13,0,0,1,1.38-1.49A7.89,7.89,0,0,1,71,276.6l.47-.24.51-.15a3.78,3.78,0,0,1,1-.2,8.34,8.34,0,0,1,1,0,4.75,4.75,0,0,1,1,.26,10.22,10.22,0,0,1,3.33,2.38c1,.94,1.84,1.94,2.75,2.89a12.17,12.17,0,0,0,3,2.44,6.83,6.83,0,0,0,3.62.84,17.62,17.62,0,0,0,7.26-2.5l3.49-1.91c1.16-.6,2.25-1.31,3.38-2a24.1,24.1,0,0,1,3.56-2,5.88,5.88,0,0,1,7.62,2c.86,1.07,1.56,2.2,2.34,3.24a10.23,10.23,0,0,0,6.1,4.24c2.48.56,5.14.19,7.79.05l7.94-.51a31.45,31.45,0,0,1,4-.13,6.13,6.13,0,0,1,3.89,1.64c2,2,3.25,4.3,4.79,6.43a13.45,13.45,0,0,0,2.54,2.89,2.2,2.2,0,0,0,1.57.54,2.33,2.33,0,0,0,1.4-.86l1.43-1.7-.8,2.07v.11l-.09-.4a4.53,4.53,0,0,1,1,1.74,11.7,11.7,0,0,1,.47,1.83,18,18,0,0,1,.23,3.74v.34h-.33l-97.61-.27Z"/><path class="cls-5" d="M73.42,240c-.73,23-.62,47.8,10,66.73,17.09-18.56,21.27-48.91,23.65-76.81a1562.36,1562.36,0,0,0,5.07-175.51c-.46-17.07-1.36-34.83-8.14-49.74C98,42.9,87.46,79.73,82.5,118.73,77.42,158.84,74.7,199.39,73.42,240Z"/><path class="cls-6" d="M73.59,240c-.15,5.69-.24,11.38-.14,17.07s.42,11.36,1.06,17a102.6,102.6,0,0,0,3.24,16.66,69.37,69.37,0,0,0,6.5,15.53l-1.51-.18a63.94,63.94,0,0,0,10.18-15.89,101,101,0,0,0,6.13-18c3.06-12.33,4.54-25,5.67-37.77q3.21-38.31,4.82-76.78T111,80.69c0-6.41-.11-12.82-.23-19.24s-.24-12.83-.57-19.2a155.32,155.32,0,0,0-2-19A94.41,94.41,0,0,0,106.06,14a73.42,73.42,0,0,0-3.23-8.87l2.53-.34c-3.15,19.62-7.53,39-11.71,58.34S85.48,101.88,83,121.51s-4.68,39.33-6.2,59.08S74.26,220.18,73.59,240Zm-.4,0c.62-19.81,1.68-39.6,2.93-59.38s3-39.53,5.29-59.22C82.55,111.55,84,101.72,85.76,92s3.7-19.48,5.71-29.19c4-19.4,8.25-38.75,11.23-58.29L103.42,0l1.84,4.09a77,77,0,0,1,3.43,9.2,91.16,91.16,0,0,1,2.28,9.5,156.42,156.42,0,0,1,2.22,19.3c.39,6.45.55,12.88.72,19.3l.23,9.64.18,9.64q.6,38.56-.73,77.13t-5,77c-1.28,12.82-3.06,25.69-6.55,38.21a105,105,0,0,1-6.88,18.24,66.3,66.3,0,0,1-11,16.1l-.9,1-.61-1.13a70.29,70.29,0,0,1-6.17-16.1,113.91,113.91,0,0,1-2.83-16.91c-.54-5.69-.71-11.4-.76-17.1s.09-11.45.3-17.11Z"/><path class="cls-5" d="M137,256.85c-1.57,20.53-4,42.55-13.74,58.55-11.19-17.85-11.54-45.16-10.76-70.16,1.63-52.2,5.77-104.52,12.38-156.46,1.93-15.14,9.19-26.45,15.68-39.17,1,34.46-1.54,59.07-4.71,97.32C132.86,182.9,139.75,220.66,137,256.85Z"/><path class="cls-6" d="M137.19,256.87c-.36,5-.75,10.09-1.29,15.12s-1.17,10.07-2.09,15.06a117.54,117.54,0,0,1-3.61,14.81,70.12,70.12,0,0,1-6.15,14l-.76,1.3-.87-1.26a61.93,61.93,0,0,1-7-15.7,107,107,0,0,1-3.51-16.81,231.24,231.24,0,0,1-1.44-34.1q.77-34,3.28-67.86t6.51-67.61l2-16.82,1.08-8.42a68.12,68.12,0,0,1,1.74-8.5A89.22,89.22,0,0,1,131.42,64c2.54-5.11,5.33-10,7.91-15l2.38-4.62.13,5.18c.44,17.33-.1,34.69-1.33,52q-.91,12.94-2.12,25.87l-1.19,12.91-.59,6.46-.48,6.44c-1,17.22-.19,34.52.64,51.79S138.51,239.59,137.19,256.87Zm-.4,0c.65-8.62.75-17.27.59-25.91s-.64-17.27-1.17-25.9c-1-17.25-2.27-34.54-1.53-51.89,1.06-17.31,2.66-34.51,3.69-51.76s1.45-34.49.85-51.73l2.52.56C136.61,60.37,130.8,70.11,128,80.84a65.25,65.25,0,0,0-1.56,8.09l-1,8.41c-.66,5.61-1.3,11.23-1.88,16.85q-3.6,33.69-5.78,67.52c-.76,11.27-1.37,22.55-2,33.83s-1,22.57-1.44,33.84a264.44,264.44,0,0,0,.62,33.66,103.58,103.58,0,0,0,2.84,16.49,59.31,59.31,0,0,0,6.27,15.37h-1.63a68.85,68.85,0,0,0,6.47-13.49,104.27,104.27,0,0,0,4-14.54q1.5-7.41,2.38-14.95c.59-5,1.15-10,1.52-15.08Z"/><path class="cls-5" d="M121.57,276.32c-.63,15.77-1.84,32.69-8.9,45.22-9.06-13.36-10.09-34.27-10.19-53.43-.2-40,1.52-80.22,5.14-120.18,1-11.66-3.87-43.66.75-53.58,1.71,26.36,12.41,71.85,13.49,98.7C123,220.69,122.68,248.52,121.57,276.32Z"/><path class="cls-6" d="M121.77,276.33c-.13,3.87-.28,7.75-.55,11.62s-.59,7.75-1.15,11.6C119,307.23,117.22,315,113.49,322l-.71,1.33-.89-1.26a48.79,48.79,0,0,1-6.37-13.15,89.68,89.68,0,0,1-3.23-14.19c-.72-4.79-1.12-9.6-1.4-14.41s-.35-9.61-.41-14.4q-.11-14.35.14-28.71t1-28.69q1.41-28.68,4.13-57.26l.33-3.57c.1-1.12.14-2.29.15-3.45,0-2.34-.06-4.71-.16-7.09l-.75-14.3c-.23-4.78-.42-9.58-.35-14.42a66.2,66.2,0,0,1,.41-7.28,25,25,0,0,1,1.77-7.37l2.18-4.94.35,5.42c.48,7.54,1.47,15.08,2.55,22.61s2.33,15,3.56,22.57c2.43,15.05,5,30.11,6.33,45.36.64,7.65.7,15.28.8,22.91s0,15.26,0,22.88-.29,15.25-.44,22.87S122.07,268.71,121.77,276.33Zm-.4,0q.45-11.43.71-22.86c.2-7.62.15-15.24.12-22.86s-.24-15.24-.51-22.85-.51-15.26-1.27-22.76-1.88-15.09-3-22.61-2.5-15-3.79-22.54-2.59-15-3.76-22.57-2.22-15.13-2.79-22.81l2.54.48a22.21,22.21,0,0,0-1.48,6.53c-.24,2.31-.33,4.67-.35,7,0,4.72.19,9.47.46,14.23l.86,14.32c.12,2.39.22,4.8.21,7.24a35.57,35.57,0,0,1-.13,3.7l-.29,3.57q-2.34,28.54-3.32,57.15c-.34,9.54-.61,19.07-.75,28.61s-.32,19.08-.32,28.62c0,4.77,0,9.52.1,14.26s.38,9.47.88,14.15A88.24,88.24,0,0,0,108,308.2a46.24,46.24,0,0,0,5.44,12.8l-1.6.07a52.68,52.68,0,0,0,4.62-10.45,77.36,77.36,0,0,0,2.71-11.22q1-5.72,1.45-11.51c.36-3.84.58-7.71.82-11.58Z"/><path class="cls-5" d="M52.42,255c.51,19,1.8,39.29,11.46,54.32C77,293.25,79,268.12,79.55,245.09c1.25-48.1,11.53-98.9-4.35-144.41C69.13,83.36,58.93,67,52.65,55.1,49.6,86.79,56.17,122.7,54,155,51.77,188.19,51.51,221.63,52.42,255Z"/><path class="cls-6" d="M52.61,255c.16,4.68.36,9.35.72,14s.91,9.31,1.72,13.9a83.67,83.67,0,0,0,3.5,13.5,56.73,56.73,0,0,0,6.11,12.4l-1.51-.09a52.81,52.81,0,0,0,7.72-14.11A87.27,87.27,0,0,0,75,278.93c1.84-10.7,2.32-21.62,2.57-32.55s.91-22,1.66-33,1.69-21.91,2.25-32.84.86-21.87.4-32.76a178.94,178.94,0,0,0-4.08-32.36,137,137,0,0,0-4.53-15.64,154.23,154.23,0,0,0-6.35-15c-4.69-9.86-10.25-19.3-15.42-29.07l2.5-.49c-1.61,16.48-.73,33.15.14,49.78s1.91,33.37.68,50.09S52.67,188.35,52.35,205,52.18,238.36,52.61,255Zm-.4,0c-.47-16.67-.55-33.35-.5-50s.5-33.36,1.5-50c.49-8.29.41-16.6.08-24.91s-.85-16.62-1.38-25c-1-16.62-2.07-33.38-.58-50.15l.39-4.4,2.1,3.9c5.19,9.62,10.86,19.1,15.7,29a159.69,159.69,0,0,1,6.59,15.27,144,144,0,0,1,4.77,16,183.49,183.49,0,0,1,4.56,32.9c.59,11.06.46,22.12,0,33.13s-1.28,22-2.09,32.94-1.52,21.87-1.86,32.82a190.77,190.77,0,0,1-3.42,33,90.3,90.3,0,0,1-4.86,16A54.68,54.68,0,0,1,64.6,310l-.85,1-.67-1.09a58.54,58.54,0,0,1-5.82-13,95.46,95.46,0,0,1-3.1-13.79c-.71-4.65-1.11-9.33-1.42-14S52.3,259.72,52.21,255Z"/><path class="cls-5" d="M96.42,260.62c-.63,15.77-1.84,32.7-8.9,45.22-9.06-13.35-10.09-34.26-10.19-53.43-.2-40-4-69.44-.38-109.4,1.06-11.66.87-14.41,5.49-24.33,1.71,26.36,13.2,31.83,14.27,58.68C97.86,205,97.56,232.83,96.42,260.62Z"/><path class="cls-6" d="M96.65,260.63c-.12,3.87-.28,7.75-.54,11.62s-.6,7.75-1.15,11.6c-1.11,7.68-2.85,15.43-6.59,22.46l-.7,1.32-.89-1.26a46.32,46.32,0,0,1-5.54-10.77A76.37,76.37,0,0,1,78,284a116.13,116.13,0,0,1-1.7-11.89q-.57-6-.75-11.94c-.26-8-.27-15.81-.52-23.71l-.81-23.68c-.57-15.8-.93-31.68-.3-47.56.32-7.93.89-15.86,1.64-23.75a111.39,111.39,0,0,1,1.49-11.93,51.74,51.74,0,0,1,4.19-11.41l2.24-4.76.29,5.24a75.24,75.24,0,0,0,3,17.42c1.65,5.68,4.1,11.13,6.16,16.84a71.83,71.83,0,0,1,4.16,17.7c.33,3,.45,6.06.51,9s.15,6,.19,9c.16,12,.08,24-.13,36l-.41,18Q97,251.63,96.65,260.63Zm-.4,0q.36-9,.6-18c.16-6,.28-12,.26-18q0-18-.66-36l-.39-9c-.12-3-.32-6-.71-8.9a75.45,75.45,0,0,0-4.41-17.18c-2.1-5.55-4.66-11-6.46-16.87a77.12,77.12,0,0,1-3.33-18l2.53.48A49.67,49.67,0,0,0,79.87,130a108,108,0,0,0-1.25,11.62c-.65,7.87-1.12,15.71-1.3,23.59-.4,15.75.31,31.5,1,47.3s1.1,31.71,1.06,47.45A176.11,176.11,0,0,0,81,283.38a74.69,74.69,0,0,0,2.57,11.36,44,44,0,0,0,4.81,10.5l-1.59.06a51.82,51.82,0,0,0,4.61-10.45,78.72,78.72,0,0,0,2.72-11.22q1-5.7,1.45-11.5c.31-3.78.53-7.65.71-11.52Z"/><path class="cls-5" d="M136.24,276.89c.32,10.24,1.06,21.23,6.22,29.35,6.93-8.71,7.91-22.3,8.17-34.75.55-26,3.7-45.12,1.38-71.07-.68-7.56-.52-9.35-3.88-15.78-1.54,17.13-10.21,20.71-11.28,38.16C135.74,240.76,135.68,258.84,136.24,276.89Z"/><path class="cls-6" d="M136.42,276.88c.11,2.53.25,5.05.46,7.57a75.05,75.05,0,0,0,1,7.48,36.55,36.55,0,0,0,5.33,13.8l-1.52-.08a33.25,33.25,0,0,0,5.48-13.79,99.51,99.51,0,0,0,1.37-15.12c.08-2.56.07-5.1.12-7.71s.13-5.18.21-7.78c.21-5.17.53-10.34.89-15.49.67-10.29,1.46-20.53,1.32-30.79-.05-5.12-.31-10.22-.71-15.36a62.77,62.77,0,0,0-.79-7.49,28.88,28.88,0,0,0-2.67-6.87l2.5-.49a45.22,45.22,0,0,1-2.72,11.75c-1.41,3.78-3.34,7.26-4.95,10.77a44.35,44.35,0,0,0-3.54,10.93,48.64,48.64,0,0,0-.68,5.76l-.41,5.87q-.8,11.73-1,23.5C136,261.19,136.17,269,136.42,276.88Zm-.4,0c-.21-7.85-.3-15.7-.41-23.55s0-15.71.16-23.57c.06-2,.13-3.93.22-5.89a56.36,56.36,0,0,1,.49-6,42.15,42.15,0,0,1,1.26-5.88,48.62,48.62,0,0,1,2.07-5.63c1.59-3.66,3.4-7.12,4.65-10.73a42.65,42.65,0,0,0,2.32-11.17l.35-4.55,2.16,4a31.63,31.63,0,0,1,3.08,7.47,63,63,0,0,1,1,7.86c.5,5.15.87,10.36,1,15.55.31,10.4,0,20.8-.62,31.11l-.82,15.43c-.28,5.14-.39,10.23-.69,15.47A83,83,0,0,1,150,292.5a35.87,35.87,0,0,1-6.9,14.31l-.86,1-.65-1.1c-2.69-4.54-3.9-9.64-4.65-14.66-.36-2.52-.55-5.06-.72-7.59s-.11-5-.16-7.57Z"/><g class="cls-7"><path class="cls-8" d="M132.32,97.58c-1,4.78,3.68,4.57,3.17,2.1a5,5,0,0,0-2.21-3q-4,3.66.17,9.09l-1-6.64"/><path class="cls-8" d="M132.7,72q-2.5-7.38.55-2.94"/><path class="cls-8" d="M127.42,131.1a1.3,1.3,0,0,0-1.65.81,1.34,1.34,0,0,0,0,.84"/><path class="cls-8" d="M137.82,131.06q.24,13.24.57,1"/><path class="cls-8" d="M121.71,153.81c-3.44,11.3,7.85-.47.14-.65"/><path class="cls-8" d="M132.71,182.19q-1.64,4.68,2.46,7.21a11.58,11.58,0,0,0-2.81-7.93l1.35,7.14"/><path class="cls-8" d="M129.59,239.87v1.72"/><path class="cls-8" d="M125.56,216.6q.84-8.83.08-3.41"/><path class="cls-8" d="M126.58,179.66"/><path class="cls-8" d="M137.3,220.52q0,6.38.45,0"/><path class="cls-8" d="M113.31,143.1l1.82,10.19-2.55-8.2"/><path class="cls-8" d="M109.42,174.47c-.5-.3,4.3.32.37-2.08"/><path class="cls-8" d="M115.5,182.65c1,9,3.09,3.76.85,2.28"/><path class="cls-8" d="M111.47,209.72q-2.77,7.86-1.17.92"/><path class="cls-8" d="M115.34,224q4.5,7.41,1.28-2"/><path class="cls-8" d="M116.69,203.31"/><path class="cls-8" d="M116.26,203.31v-.43"/><path class="cls-8" d="M108.52,196v-.86"/><path class="cls-8" d="M116.64,253.2q-.73-8.67.09-1.75"/><path class="cls-8" d="M107.69,233.85q-2.11,9,.76.48"/><path class="cls-8" d="M103.26,29.58c1.33.43,1.54,0,.61-1.39"/><path class="cls-8" d="M108.26,47.19q.24,9.15,1.51,3.89"/><path class="cls-8" d="M98.62,54.92v3.87"/><path class="cls-8" d="M106,67.41q-.06,8.43,1.57,0"/><path class="cls-8" d="M96.47,79"/><path class="cls-8" d="M106.42,88.05q-1,5.22,3.14,2.8c-.24-2.71-2-5.06-3.17-1.08"/><path class="cls-8" d="M104.65,105.68V107"/><path class="cls-8" d="M107.66,90.19V88.9"/><path class="cls-8" d="M93.07,92.35q.5,9.95-.25.17"/><path class="cls-8" d="M97.28,126.34c-.45,14.17-2.88-4.35-1.2.82"/><path class="cls-8" d="M102.17,142.71q1.24,8.23,1.26-1.77"/><path class="cls-8" d="M108.52,123.31"/><path class="cls-8" d="M102.07,165v.86"/><path class="cls-8" d="M98.67,156.43a7.9,7.9,0,0,0-1.35-3.86"/><path class="cls-8" d="M102.05,190a2.75,2.75,0,0,0-.41,2.16"/><path class="cls-8" d="M102.5,224"/><path class="cls-8" d="M87.91,123.71q1.73,2.92.82,0"/><path class="cls-8" d="M87.75,150.91c-.08-.19-.78-5.11-1.64-3.11"/><path class="cls-8" d="M90.16,165.83Q93,171.49,90,166"/><path class="cls-8" d="M81.85,183.53c-.29,2.15-.14,2.43.43.86"/><path class="cls-8" d="M89.58,181.39,91,183"/><path class="cls-8" d="M85.31,162,84,161.58"/><path class="cls-8" d="M92.08,203.76q.78,6.35-.09-3.14"/><path class="cls-8" d="M83.57,194.71"/><path class="cls-8" d="M89.06,219.08c1.67,3.6,2.56,3.65,2.64.16"/><path class="cls-8" d="M83.93,208.11l-.84-.88"/><path class="cls-8" d="M88.77,239c-.9,4.93,3.08-6.76.34,0"/><path class="cls-8" d="M81.42,223.1v.9"/><path class="cls-8" d="M91.54,256.63q4,5.17.65-.41"/><path class="cls-8" d="M82.28,256.65V254.5"/><path class="cls-8" d="M69.42,83.31c.9,2.25.47,3.24-1.29,3"/><path class="cls-8" d="M65.49,110.4a1.11,1.11,0,0,1-1.58.11.57.57,0,0,1-.11-.11"/><path class="cls-8" d="M70.36,135q2.48,5.26.28,0"/><path class="cls-8" d="M70.49,110.75q-1.15,8.37,1.85,4.39"/><path class="cls-8" d="M60.7,141q-1.39,5.26-1.7-1.75"/><path class="cls-8" d="M72,155.57q3.57,7.77.79,2.28"/><path class="cls-8" d="M73.78,177.09Q72.42,188,74.87,178.4"/><path class="cls-8" d="M64.22,157.72l-.44.43"/><path class="cls-8" d="M59.91,175.36l.43,2.15"/><path class="cls-8" d="M64.65,172.34"/><path class="cls-8" d="M56.9,193.85c2.71.17.94-2.93-1.74-2.19"/><path class="cls-8" d="M65.75,226.94q4.41,11,2.41,1.34"/><path class="cls-8" d="M74.14,197.29h0"/><path class="cls-8" d="M68.48,203.75l.44,1.29"/><path class="cls-8" d="M59.09,217.51q1.48-14.17-1.68-4.73"/><path class="cls-8" d="M65.48,255.84c9.91,4.07-1.8.17-.86,3.27"/><path class="cls-8" d="M61.09,245.49a4.44,4.44,0,0,1-1.18-5.25"/></g><path class="cls-9" d="M152,234.71c-.65-5.43-.49-6.71-3.75-11.32-1.38,11.37-8.68,14.42-10.58,24.74-1-17.35,0-34.79-1.32-51.77-2.11-27.46.41-47.49-.54-72.19-6.29,9.12-8.22,19.64-10.09,30.5q-4.2,24.47-7,49.06c-1.59-7.38-3.4-15-5-22.32.43-17.14-7.07-26.77-7.7-43.9-.45-12.24-.79-22-.79-36.1-5.78,27.4-21.46,27.5-11.77,54.15,3.14,8.64,2.52,17.31,3.92,12.56,0-.05.93,10.07.79,8.63-.61,1-22.31,58.84-22.76,59.65-1.3-5.25-.65-61.81-.79-69.06-.25-13.76-12.74-28.28-18.82-36.82-3,22.72,3.41,48.47,1.31,71.6a566.9,566.9,0,0,0-1.54,71.74c.49,13.58,1.74,28.16,11.1,38.94A40.81,40.81,0,0,0,78,294.61a45.13,45.13,0,0,0,7.68,16.29c.91-.73,1.77-1.49,2.6-2.26.45.56.91,1.11,1.4,1.65a33.69,33.69,0,0,0,4.59-8.41,65.82,65.82,0,0,0,9.85-21.25v2.6c.1,13.74,1.09,28.73,9.87,38.31a35.67,35.67,0,0,0,5.63-11.41,35.79,35.79,0,0,0,4.62,7c7.79-9.42,10.73-21.74,12.37-34,.06,2.13.13,4.25.21,6.38.31,7.34,1,15.22,6,21,6.71-6.24,7.66-16,7.91-24.91C151.23,267,154.28,253.31,152,234.71Z"/><path d="M141.26,281.8c-2.61-10.06-3.5-20.48-3.82-30.84a267,267,0,0,1,1.06-31.11,260.16,260.16,0,0,1,4.55-30.8A130.64,130.64,0,0,1,147.13,174a50.79,50.79,0,0,1,3.08-7.2,18.31,18.31,0,0,1,2.23-3.29,7.41,7.41,0,0,1,1.55-1.35,3.74,3.74,0,0,1,2.08-.6h0a3.67,3.67,0,0,1,2.12,1.14,6,6,0,0,1,1.2,2,12.37,12.37,0,0,1,.72,4.43,14.36,14.36,0,0,1-.69,4.41,7,7,0,0,1-2.56,3.78,3.62,3.62,0,0,1-2.38.57,5.53,5.53,0,0,1-2.22-.82,11.1,11.1,0,0,1-1.78-1.42,9.41,9.41,0,0,1-1.47-1.74,12.81,12.81,0,0,1-1.51-4.24,35.48,35.48,0,0,1-.54-4.37,91.46,91.46,0,0,1,.85-17.42c.46-2.87,1-5.74,1.68-8.56a25.73,25.73,0,0,1,1.39-4.19,4.84,4.84,0,0,1,1.38-1.93,1.39,1.39,0,0,1,.71-.26,1.33,1.33,0,0,1,.75.19,3,3,0,0,1,.87.91l-.66.44a6.37,6.37,0,0,1-.61-2.78c0-.91,0-1.81,0-2.71.09-1.79.28-3.57.54-5.34a67.73,67.73,0,0,1,2.38-10.44,39.19,39.19,0,0,1,2-5,15.73,15.73,0,0,1,3-4.44,5.43,5.43,0,0,1,2.35-1.37,3.89,3.89,0,0,1,2.68.34,10.77,10.77,0,0,1,3.79,3.74l-.09.06a10.47,10.47,0,0,0-3.8-3.59,3.64,3.64,0,0,0-2.51-.27,5,5,0,0,0-2.14,1.32,15.15,15.15,0,0,0-2.85,4.39,37.84,37.84,0,0,0-1.87,5,67.1,67.1,0,0,0-2.23,10.38,51.82,51.82,0,0,0-.47,5.27c0,.88,0,1.75,0,2.63a6.14,6.14,0,0,0,.51,2.39l-.66.44a2.14,2.14,0,0,0-.62-.65.47.47,0,0,0-.58,0,4.14,4.14,0,0,0-1.07,1.6,24.9,24.9,0,0,0-1.29,4.06c-.69,2.78-1.13,5.64-1.57,8.48a91,91,0,0,0-.85,17.22,35.57,35.57,0,0,0,.52,4.24,12.52,12.52,0,0,0,1.38,3.9,8.21,8.21,0,0,0,1.32,1.56,9.55,9.55,0,0,0,1.61,1.3,3.23,3.23,0,0,0,3.57.28,6.2,6.2,0,0,0,2.2-3.27,13.78,13.78,0,0,0,.67-4.13,11.48,11.48,0,0,0-.63-4.11,3.67,3.67,0,0,0-2.65-2.6h0a4.16,4.16,0,0,0-3,1.66,17.16,17.16,0,0,0-2.14,3.13,49.15,49.15,0,0,0-3.06,7.07,129.3,129.3,0,0,0-4.14,14.95,260.61,260.61,0,0,0-4.69,30.7,269.63,269.63,0,0,0-1.27,31c.26,10.35,1.08,20.76,3.62,30.82Z"/><path d="M63.65,309.18A101.63,101.63,0,0,0,68,275.4a235.29,235.29,0,0,0-3.85-34L62.68,233l-.77-4.22c-.25-1.4-.53-2.81-.69-4.24-.66-5.68-1.15-11.36-2.15-17a64.13,64.13,0,0,0-2-8.29,20.85,20.85,0,0,0-3.82-7.43,7.52,7.52,0,0,0-7.46-2.19,9.78,9.78,0,0,0-6.33,4.87,4.28,4.28,0,0,0-.26,3.77,4.69,4.69,0,0,0,3.13,2.19c2.69.66,5.59,1.09,8.22.32a6.56,6.56,0,0,0,3.31-2.15,9,9,0,0,0,1.68-3.67,24,24,0,0,0,.08-8.36,83.17,83.17,0,0,0-4.39-16.41c-1.94-5.36-4.18-10.6-6.6-15.76s-4.47-10.54-6.69-15.78a74.25,74.25,0,0,0-8-15,29.46,29.46,0,0,0-13-10.46c-5.29-2.07-11.13-2.35-16.77-1.76l.1-.15a6.68,6.68,0,0,0,.49,1.69,2.67,2.67,0,0,0,2.78,1.67,6.43,6.43,0,0,0,1.73-.36v.1a7,7,0,0,1-1.75.4,3.15,3.15,0,0,1-1.78-.36A3.22,3.22,0,0,1,.54,113,6.56,6.56,0,0,1,0,111.3v-.13H.13c5.65-.69,11.57-.56,17,1.52a30.19,30.19,0,0,1,13.43,10.53,75.55,75.55,0,0,1,8.23,15.08c2.27,5.26,4.32,10.58,6.79,15.71a169.62,169.62,0,0,1,6.64,15.84,82.4,82.4,0,0,1,4.41,16.63,24.88,24.88,0,0,1-.14,8.69,9.77,9.77,0,0,1-1.88,4,7.56,7.56,0,0,1-3.76,2.43,16.9,16.9,0,0,1-8.7-.37,5.48,5.48,0,0,1-3.63-2.64,5.05,5.05,0,0,1,.29-4.48,10.54,10.54,0,0,1,6.86-5.25,8.94,8.94,0,0,1,4.42.09,7.65,7.65,0,0,1,3.74,2.36A21.21,21.21,0,0,1,57.76,199a63.06,63.06,0,0,1,2,8.38c1,5.64,1.45,11.35,2.08,17,.15,1.41.43,2.8.68,4.22l.74,4.21,1.46,8.45a236,236,0,0,1,3.67,34.06,101.44,101.44,0,0,1-4.59,33.82Z"/><path d="M87.89,299.17c-1.24-14.06-4.12-27.93-4.87-42.08A104.29,104.29,0,0,1,83,246.48c0-.89.12-1.77.19-2.65a14.26,14.26,0,0,1,.35-2.68,28.94,28.94,0,0,1,2-5,48.18,48.18,0,0,1,2.6-4.66,29.78,29.78,0,0,1,3.21-4.29,12.32,12.32,0,0,1,2-1.82,5.65,5.65,0,0,1,1.3-.65,2.48,2.48,0,0,1,1.57,0,2.6,2.6,0,0,1,1.22,1A5.21,5.21,0,0,1,98,227a13.63,13.63,0,0,1,.58,2.68V230l-.23.16a1.8,1.8,0,0,1-1.19.35,2.37,2.37,0,0,1-1.08-.43,6.18,6.18,0,0,1-1.38-1.46,18.63,18.63,0,0,1-1.78-3.36,48,48,0,0,1-2.3-7.12,67.51,67.51,0,0,1-2-14.77,43.68,43.68,0,0,1,2-14.76A20.62,20.62,0,0,1,94.16,182a13.87,13.87,0,0,1,6-4.24v.1a13.61,13.61,0,0,0-5.78,4.39,20.74,20.74,0,0,0-3.28,6.5,44.92,44.92,0,0,0-1.62,14.54,75.27,75.27,0,0,0,2,14.56,47.52,47.52,0,0,0,2.24,7,18.64,18.64,0,0,0,1.67,3.19c.62.94,1.63,1.92,2.3,1.35l-.19.43a11.71,11.71,0,0,0-.51-2.49,2.62,2.62,0,0,0-1.29-1.75,2.42,2.42,0,0,0-2.1.51,10.85,10.85,0,0,0-1.91,1.67,30.29,30.29,0,0,0-3.16,4.15,46.61,46.61,0,0,0-2.6,4.56A28.94,28.94,0,0,0,84,241.34a14.73,14.73,0,0,0-.35,2.56c-.07.88-.18,1.75-.21,2.63a103.32,103.32,0,0,0,0,10.56c.32,7,1.15,14.05,2,21.05s1.85,14,2.39,21.05Z"/><path class="cls-10" d="M63.64,278.51A165.46,165.46,0,0,0,110.83,289c30.48,2.3,61.67-14,90.2-3-9.45-1.18-18.32,5.18-24.09,12.74s-9.51,16.53-15.34,24.05c-12.84,16.55-34.27,24.14-55,26.73C94.42,351,81.5,351,70.42,345.68c-12.49-6-21-17.77-29-29.1-5.24-7.45-13.13-23.67-23-41.28C33,260,53.76,275.21,63.64,278.51Z"/><path class="cls-2" d="M63.67,278.42a162.16,162.16,0,0,0,33.68,8.87c2.87.44,5.76.79,8.65,1.07s5.79.51,8.69.58a113.38,113.38,0,0,0,17.37-1.11c11.52-1.51,22.88-4.13,34.49-5.48a95.79,95.79,0,0,1,17.51-.6,65.72,65.72,0,0,1,8.72,1.18,59.32,59.32,0,0,1,8.46,2.46l4.74,1.77-5-.63a21.38,21.38,0,0,0-14.13,3.72,38.51,38.51,0,0,0-10.62,10.59c-2.91,4.15-5.34,8.64-7.93,13.06a71.89,71.89,0,0,1-8.9,12.65c-7,7.71-16,13.28-25.6,17.09a114.29,114.29,0,0,1-30,7.1,85.3,85.3,0,0,1-15.49.39,52.35,52.35,0,0,1-15.23-3.26,46.07,46.07,0,0,1-13.34-8.07,80.11,80.11,0,0,1-10.68-11.26c-3.2-4.05-6.12-8.24-9-12.49a152.73,152.73,0,0,1-7.66-13.39c-4.76-9.06-9.4-18.17-14.31-27.13l-.17-.31.24-.25a21.42,21.42,0,0,1,10.65-6.16,27.16,27.16,0,0,1,12.26.4,63.8,63.8,0,0,1,11.53,4.18C56.26,275.05,59.84,277,63.67,278.42Zm-.06.18c-3.87-1.35-7.48-3.29-11.22-4.9a63.42,63.42,0,0,0-11.5-4,25.75,25.75,0,0,0-12-.19,20.53,20.53,0,0,0-10.12,6.14l.07-.56C24,284,28.84,293,33.75,301.92c2.48,4.46,5,8.95,7.75,13.14s5.91,8.31,9.08,12.27a78.36,78.36,0,0,0,10.39,11A44.52,44.52,0,0,0,73.76,346a50.77,50.77,0,0,0,14.66,3.16,91.26,91.26,0,0,0,15.15-.33,112,112,0,0,0,29.57-6.78c9.42-3.67,18.28-9.06,25.11-16.52s10.88-17,16.85-25.47a39.94,39.94,0,0,1,11-10.87,25.93,25.93,0,0,1,7.13-3.23,19.9,19.9,0,0,1,7.83-.6l-.29,1.13A59.5,59.5,0,0,0,192.5,284a64.82,64.82,0,0,0-8.56-1.2,98.37,98.37,0,0,0-17.33.48c-11.54,1.22-22.94,3.72-34.52,5.11a114.36,114.36,0,0,1-17.45.93c-2.91-.1-5.82-.35-8.71-.66s-5.79-.69-8.66-1.15A167.47,167.47,0,0,1,63.61,278.6Z"/><path class="cls-11" d="M192.34,283.92a35.34,35.34,0,0,0-18.29,4.77c-8,4.53-14.29,11.53-19.56,19-2.75,3.92-5.29,8-8.77,11.35C137,327.35,124,338.44,112,339.18c-11.09.69-11.44.79-31.84-3.13-4.8-.93-11.36-5.75-15.94-7.47a44.73,44.73,0,0,1-9.71-5.66L38.26,311.54c1.15,1.94,2.22,3.63,3.19,5,8,11.33,16.48,23.13,29,29.1,11.08,5.3,24,5.31,36.13,3.78,20.78-2.59,42.21-10.18,55-26.73,5.83-7.52,9.57-16.48,15.34-24.05S191.56,284.72,201,285.9a38.33,38.33,0,0,0-4-1.34C195.24,284.34,193.51,284,192.34,283.92Z"/></svg>